{"glyphs":{"0":{"ha":833,"x_min":93,"x_max":740,"o":"m 417 -17 q 180 103 267 -17 q 93 446 93 222 q 180 785 93 669 q 417 901 267 901 q 653 785 567 901 q 740 446 740 669 q 653 103 740 222 q 417 -17 567 -17 m 417 93 q 496 113 460 93 q 558 176 532 133 q 599 286 585 219 q 614 446 614 353 q 599 605 614 539 q 558 713 585 671 q 496 774 532 754 q 417 793 460 793 q 338 774 374 793 q 275 713 301 754 q 234 605 249 671 q 219 446 219 539 q 234 286 219 353 q 275 176 249 219 q 338 113 301 133 q 417 93 374 93 m 417 357 q 352 383 379 357 q 325 453 325 408 q 352 523 325 497 q 417 549 379 549 q 481 523 454 549 q 508 453 508 497 q 481 383 508 408 q 417 357 454 357 z "},"1":{"ha":833,"x_min":129,"x_max":740,"o":"m 129 0 l 129 113 l 379 113 l 379 729 l 182 729 l 182 815 q 317 843 264 826 q 415 885 371 860 l 517 885 l 517 113 l 740 113 l 740 0 l 129 0 z "},"2":{"ha":833,"x_min":89,"x_max":729,"o":"m 96 0 l 96 81 q 289 252 204 175 q 431 395 374 329 q 519 518 489 461 q 550 629 550 575 q 506 747 550 703 q 369 792 461 792 q 258 761 310 792 q 167 689 207 731 l 89 765 q 222 865 151 829 q 388 901 292 901 q 509 883 454 901 q 602 829 564 864 q 661 745 640 794 q 682 636 682 696 q 653 513 682 575 q 572 387 624 451 q 450 253 521 322 q 296 108 379 183 q 378 114 336 111 q 458 117 421 117 l 729 117 l 729 0 l 96 0 z "},"3":{"ha":833,"x_min":74,"x_max":725,"o":"m 396 -17 q 201 20 281 -17 q 74 108 122 57 l 142 197 q 247 126 186 157 q 386 96 307 96 q 465 106 429 96 q 528 136 501 117 q 571 183 556 156 q 586 244 586 210 q 569 310 586 281 q 517 362 553 340 q 422 395 481 383 q 278 407 363 407 l 278 510 q 406 522 353 510 q 492 553 458 533 q 540 601 525 574 q 556 663 556 629 q 509 757 556 722 q 386 792 463 792 q 274 767 326 792 q 178 704 222 743 l 106 790 q 235 870 164 839 q 392 901 306 901 q 513 886 457 901 q 608 842 568 871 q 672 769 649 813 q 694 672 694 726 q 644 544 694 594 q 510 465 593 493 l 510 460 q 592 431 553 450 q 661 383 632 411 q 708 319 690 356 q 725 238 725 282 q 699 131 725 178 q 628 51 672 83 q 523 1 583 18 q 396 -17 463 -17 z "},"4":{"ha":833,"x_min":53,"x_max":763,"o":"m 501 0 l 501 236 l 53 236 l 53 329 l 476 886 l 631 886 l 631 344 l 763 344 l 763 236 l 631 236 l 631 0 l 501 0 m 197 344 l 501 344 l 501 586 q 504 669 503 624 q 508 753 506 714 l 501 753 q 457 685 481 718 q 410 618 433 651 l 197 344 z "},"5":{"ha":833,"x_min":74,"x_max":729,"o":"m 396 -17 q 290 -6 338 -17 q 202 21 242 4 q 131 60 163 38 q 74 106 100 82 l 140 194 q 240 126 183 156 q 379 96 297 96 q 462 109 424 96 q 528 146 500 122 q 574 204 557 169 q 590 282 590 239 q 534 415 590 368 q 386 461 478 461 q 338 458 360 461 q 297 448 317 454 q 258 432 278 442 q 215 410 238 422 l 146 454 l 174 885 l 686 885 l 686 768 l 294 768 l 274 531 q 344 554 310 546 q 425 563 379 563 q 543 546 488 563 q 640 495 599 529 q 705 409 681 461 q 729 286 729 357 q 701 158 729 214 q 627 63 674 101 q 520 3 581 24 q 396 -17 460 -17 z "},"6":{"ha":833,"x_min":101,"x_max":746,"o":"m 444 -17 q 311 9 374 -17 q 202 88 249 35 q 128 222 156 142 q 101 413 101 303 q 133 636 101 543 q 215 788 164 729 q 334 874 267 847 q 474 901 401 901 q 622 873 558 901 q 731 804 686 844 l 656 719 q 577 770 622 751 q 483 789 532 789 q 388 771 433 789 q 308 711 343 753 q 252 601 274 669 q 229 433 231 533 q 345 515 282 486 q 471 544 408 544 q 581 528 531 544 q 669 476 632 511 q 726 390 706 442 q 746 271 746 339 q 722 153 746 206 q 656 63 697 100 q 559 4 614 25 q 444 -17 504 -17 m 443 90 q 510 103 479 90 q 565 138 542 115 q 603 195 589 161 q 617 271 617 229 q 572 399 617 356 q 443 443 526 443 q 338 417 394 443 q 233 332 282 392 q 303 149 249 208 q 443 90 357 90 z "},"7":{"ha":833,"x_min":94,"x_max":742,"o":"m 301 0 q 325 223 307 122 q 376 414 343 324 q 462 590 410 504 q 588 768 514 676 l 94 768 l 94 885 l 742 885 l 742 800 q 599 613 654 701 q 511 432 544 525 q 463 235 478 339 q 443 0 449 131 l 301 0 z "},"8":{"ha":833,"x_min":92,"x_max":742,"o":"m 419 -17 q 283 1 344 -17 q 180 51 222 19 q 115 128 138 83 q 92 226 92 174 q 107 306 92 271 q 149 369 122 342 q 208 419 175 397 q 276 457 240 440 l 276 463 q 182 549 221 499 q 143 669 143 599 q 164 765 143 722 q 222 838 185 808 q 311 885 260 868 q 424 901 363 901 q 540 884 489 901 q 628 835 592 867 q 683 760 664 804 q 703 664 703 717 q 663 548 703 601 q 569 457 624 494 l 569 451 q 637 413 606 433 q 692 366 668 393 q 728 303 715 339 q 742 222 742 268 q 720 128 742 172 q 658 52 699 85 q 556 1 617 19 q 419 -17 496 -17 m 486 490 q 585 656 585 568 q 542 760 585 718 q 421 801 500 801 q 310 767 353 801 q 267 669 267 732 q 283 606 267 633 q 329 558 300 579 q 399 522 358 538 q 486 490 439 506 m 422 83 q 561 122 511 83 q 611 226 611 160 q 591 297 611 268 q 535 346 571 325 q 453 383 500 367 q 350 419 406 400 q 253 344 292 388 q 215 240 215 301 q 272 126 215 169 q 422 83 328 83 z "},"9":{"ha":833,"x_min":88,"x_max":733,"o":"m 390 442 q 495 467 439 442 q 600 553 551 493 q 531 735 585 676 q 390 794 476 794 q 323 782 354 794 q 268 747 292 769 q 231 690 244 724 q 217 614 217 656 q 262 485 217 529 q 390 442 307 442 m 360 -17 q 212 12 275 -17 q 104 81 149 40 l 179 165 q 256 115 211 133 q 350 96 301 96 q 445 114 400 96 q 525 174 490 132 q 581 283 560 215 q 604 451 601 351 q 488 369 551 399 q 363 340 425 340 q 251 357 301 340 q 165 408 201 374 q 108 494 128 443 q 88 614 88 544 q 112 732 88 679 q 178 822 136 785 q 274 881 219 860 q 389 901 328 901 q 523 875 460 901 q 633 796 586 849 q 706 663 679 743 q 733 472 733 582 q 702 249 733 342 q 619 97 671 156 q 499 10 567 38 q 360 -17 432 -17 z "}," ":{"ha":833,"x_min":0,"x_max":0,"o":""},"A":{"ha":833,"x_min":36,"x_max":797,"o":"m 326 496 l 289 371 l 540 371 l 503 496 q 458 646 481 571 q 417 799 436 721 l 411 799 q 370 646 392 721 q 326 496 349 571 m 36 0 l 336 910 l 497 910 l 797 0 l 650 0 l 572 261 l 256 261 l 178 0 l 36 0 z "},"B":{"ha":833,"x_min":128,"x_max":765,"o":"m 128 0 l 128 910 l 399 910 q 526 898 468 910 q 627 860 585 886 q 693 791 669 833 q 717 688 717 749 q 678 565 717 621 q 558 489 639 510 l 558 483 q 712 414 658 468 q 765 267 765 360 q 740 149 765 199 q 669 65 715 99 q 560 16 624 32 q 421 0 497 0 l 128 0 m 267 532 l 382 532 q 534 567 488 532 q 581 672 581 601 q 532 768 581 740 q 386 796 483 796 l 267 796 l 267 532 m 267 114 l 404 114 q 571 152 513 114 q 629 275 629 190 q 572 388 629 354 q 404 421 515 421 l 267 421 l 267 114 z "},"C":{"ha":833,"x_min":86,"x_max":775,"o":"m 489 -17 q 331 15 404 -17 q 203 106 257 46 q 117 253 149 167 q 86 453 86 340 q 117 651 86 564 q 203 800 149 739 q 334 894 258 861 q 500 926 410 926 q 649 892 583 926 q 756 814 714 858 l 678 726 q 600 784 643 763 q 500 806 557 806 q 389 781 439 806 q 303 712 339 757 q 249 602 268 667 q 229 457 229 538 q 249 310 229 375 q 304 199 268 244 q 390 128 340 153 q 503 104 440 104 q 610 129 563 104 q 697 200 657 154 l 775 115 q 651 17 721 51 q 489 -17 581 -17 z "},"D":{"ha":833,"x_min":115,"x_max":772,"o":"m 115 0 l 115 910 l 346 910 q 662 796 551 910 q 772 458 772 682 q 663 118 772 236 q 353 0 553 0 l 115 0 m 254 113 l 338 113 q 555 200 481 113 q 629 458 629 288 q 555 713 629 629 q 338 797 481 797 l 254 797 l 254 113 z "},"E":{"ha":833,"x_min":151,"x_max":738,"o":"m 151 0 l 151 910 l 724 910 l 724 793 l 290 793 l 290 533 l 657 533 l 657 417 l 290 417 l 290 117 l 738 117 l 738 0 l 151 0 z "},"F":{"ha":833,"x_min":175,"x_max":744,"o":"m 175 0 l 175 910 l 744 910 l 744 793 l 314 793 l 314 511 l 679 511 l 679 393 l 314 393 l 314 0 l 175 0 z "},"G":{"ha":833,"x_min":71,"x_max":746,"o":"m 471 -17 q 311 15 385 -17 q 184 106 238 46 q 101 253 131 167 q 71 453 71 340 q 101 652 71 564 q 186 801 132 740 q 315 894 240 863 q 478 926 390 926 q 631 891 568 926 q 733 814 693 856 l 656 726 q 582 783 624 761 q 478 806 540 806 q 371 781 419 806 q 288 712 322 757 q 233 602 253 667 q 214 457 214 538 q 282 199 214 293 q 479 104 350 104 q 558 117 521 104 q 618 151 594 129 l 618 368 l 450 368 l 450 482 l 746 482 l 746 90 q 630 15 701 46 q 471 -17 558 -17 z "},"H":{"ha":833,"x_min":104,"x_max":729,"o":"m 104 0 l 104 910 l 244 910 l 244 536 l 589 536 l 589 910 l 729 910 l 729 0 l 589 0 l 589 415 l 244 415 l 244 0 l 104 0 z "},"I":{"ha":833,"x_min":125,"x_max":708,"o":"m 125 0 l 125 117 l 347 117 l 347 793 l 125 793 l 125 910 l 708 910 l 708 793 l 486 793 l 486 117 l 708 117 l 708 0 l 125 0 z "},"J":{"ha":833,"x_min":104,"x_max":693,"o":"m 382 -17 q 230 19 306 -17 q 104 135 154 54 l 189 219 q 278 133 228 161 q 378 104 328 104 q 512 151 469 104 q 554 307 554 199 l 554 794 l 181 794 l 181 911 l 693 911 l 693 296 q 677 174 693 231 q 625 75 661 118 q 529 8 589 32 q 382 -17 469 -17 z "},"K":{"ha":833,"x_min":125,"x_max":811,"o":"m 125 0 l 125 910 l 265 910 l 265 475 l 269 475 l 622 910 l 779 910 l 494 560 l 811 0 l 656 0 l 408 456 l 265 279 l 265 0 l 125 0 z "},"L":{"ha":833,"x_min":176,"x_max":751,"o":"m 176 0 l 176 910 l 314 910 l 314 117 l 751 117 l 751 0 l 176 0 z "},"M":{"ha":833,"x_min":94,"x_max":739,"o":"m 94 0 l 94 910 l 256 910 l 374 539 l 414 397 l 419 397 l 460 539 l 578 910 l 739 910 l 739 0 l 611 0 l 611 410 q 614 492 611 444 q 620 588 617 539 q 627 681 624 636 q 633 758 631 726 l 629 758 l 572 563 l 457 242 l 371 242 l 257 563 l 201 758 l 197 758 q 205 681 201 726 q 212 588 208 636 q 217 492 215 539 q 219 410 219 444 l 219 0 l 94 0 z "},"N":{"ha":833,"x_min":108,"x_max":725,"o":"m 108 0 l 108 910 l 257 910 l 522 369 l 607 178 l 611 178 q 599 324 607 247 q 592 476 592 401 l 592 910 l 725 910 l 725 0 l 576 0 l 311 540 l 226 732 l 222 732 q 234 585 226 661 q 242 436 242 510 l 242 0 l 108 0 z "},"O":{"ha":833,"x_min":63,"x_max":771,"o":"m 417 -17 q 274 15 339 -17 q 161 108 208 47 q 88 257 114 168 q 63 458 63 346 q 88 657 63 569 q 161 804 114 744 q 274 895 208 864 q 417 926 339 926 q 560 895 494 926 q 672 804 625 864 q 744 657 718 744 q 771 458 771 569 q 744 257 771 346 q 672 108 718 168 q 560 15 625 47 q 417 -17 494 -17 m 417 104 q 570 197 513 104 q 628 458 628 290 q 570 715 628 624 q 417 806 513 806 q 263 715 321 806 q 206 458 206 624 q 263 197 206 290 q 417 104 321 104 z "},"P":{"ha":833,"x_min":132,"x_max":760,"o":"m 132 0 l 132 910 l 419 910 q 557 896 494 910 q 665 849 619 882 q 735 765 710 817 q 760 636 760 713 q 734 508 760 563 q 663 417 708 453 q 556 365 618 382 q 419 347 493 347 l 271 347 l 271 0 l 132 0 m 271 460 l 406 460 q 569 502 517 460 q 622 636 622 544 q 568 763 622 728 q 406 799 514 799 l 271 799 l 271 460 z "},"Q":{"ha":833,"x_min":65,"x_max":781,"o":"m 417 97 q 569 191 513 97 q 626 458 626 285 q 569 715 626 624 q 417 807 513 807 q 264 715 321 807 q 207 458 207 624 q 264 191 207 285 q 417 97 321 97 m 669 -232 q 466 -169 546 -232 q 350 -10 386 -107 q 233 40 285 3 q 143 137 181 78 q 85 277 106 196 q 65 458 65 358 q 91 657 65 569 q 163 805 117 744 q 274 897 210 865 q 417 928 339 928 q 559 897 494 928 q 670 805 624 865 q 742 657 717 744 q 768 458 768 569 q 694 142 768 263 q 496 -7 621 22 q 570 -90 519 -64 q 686 -115 621 -115 q 756 -101 725 -115 l 781 -210 q 731 -226 758 -219 q 669 -232 703 -232 z "},"R":{"ha":833,"x_min":128,"x_max":779,"o":"m 128 0 l 128 910 l 421 910 q 551 897 492 910 q 655 852 611 883 q 723 771 699 821 q 747 647 747 721 q 695 478 747 542 q 556 388 643 414 l 779 0 l 622 0 l 415 369 l 267 369 l 267 0 l 128 0 m 267 482 l 404 482 q 557 523 504 482 q 610 647 610 564 q 557 765 610 731 q 404 799 504 799 l 267 799 l 267 482 z "},"S":{"ha":833,"x_min":88,"x_max":751,"o":"m 421 -17 q 238 19 322 -17 q 88 118 153 54 l 168 213 q 288 134 221 164 q 429 104 354 104 q 563 140 517 104 q 610 232 610 175 q 598 288 610 265 q 565 326 586 310 q 515 356 544 343 q 451 383 486 369 l 324 440 q 254 474 289 454 q 192 523 219 494 q 147 590 164 551 q 129 678 129 628 q 151 776 129 731 q 215 856 174 822 q 312 908 256 889 q 436 926 368 926 q 594 896 521 926 q 721 813 668 865 l 649 724 q 552 784 604 763 q 429 806 500 806 q 313 774 357 806 q 269 686 269 742 q 283 635 269 657 q 318 598 296 614 q 369 570 340 582 q 428 546 397 558 l 551 492 q 631 453 594 475 q 694 403 667 432 q 736 337 721 375 q 751 249 751 299 q 729 146 751 194 q 664 61 707 97 q 560 4 621 25 q 421 -17 499 -17 z "},"T":{"ha":833,"x_min":54,"x_max":779,"o":"m 347 0 l 347 793 l 54 793 l 54 910 l 779 910 l 779 793 l 486 793 l 486 0 l 347 0 z "},"U":{"ha":833,"x_min":104,"x_max":729,"o":"m 418 -17 q 290 4 347 -17 q 190 69 232 25 q 126 181 149 113 q 104 346 104 250 l 104 910 l 244 910 l 244 338 q 292 158 244 213 q 418 104 340 104 q 545 158 496 104 q 594 338 594 213 l 594 910 l 729 910 l 729 346 q 707 181 729 250 q 644 69 685 113 q 547 4 604 25 q 418 -17 489 -17 z "},"V":{"ha":833,"x_min":49,"x_max":785,"o":"m 336 0 l 49 910 l 196 910 l 333 436 q 375 287 357 357 q 417 138 393 217 l 422 138 q 465 287 447 217 q 507 436 483 357 l 643 910 l 785 910 l 499 0 l 336 0 z "},"W":{"ha":833,"x_min":13,"x_max":822,"o":"m 146 0 l 13 911 l 164 911 l 219 361 q 228 258 225 304 q 235 147 232 213 l 239 147 q 260 258 250 213 q 283 361 271 304 l 365 678 l 482 678 l 560 361 q 572 308 567 333 q 583 258 578 283 q 593 207 588 233 q 604 147 599 181 l 610 147 q 613 207 611 181 q 615 258 614 233 q 619 308 617 283 q 624 361 621 333 l 678 911 l 822 911 l 694 0 l 531 0 l 450 344 q 433 428 440 386 q 419 511 425 469 l 415 511 q 402 428 408 469 q 385 344 396 386 l 306 0 l 146 0 z "},"X":{"ha":833,"x_min":63,"x_max":771,"o":"m 63 0 l 332 469 l 79 910 l 233 910 l 351 693 q 385 629 368 661 q 422 557 401 597 l 428 557 q 462 629 447 597 q 493 693 476 661 l 607 910 l 754 910 l 501 463 l 771 0 l 618 0 l 490 229 q 452 299 471 264 q 413 376 433 335 l 407 376 q 369 299 388 335 q 333 229 351 264 l 208 0 l 63 0 z "},"Y":{"ha":833,"x_min":46,"x_max":788,"o":"m 347 0 l 347 319 l 46 910 l 193 910 l 318 653 q 367 548 343 600 q 417 442 390 496 l 422 442 q 474 548 449 496 q 524 653 499 600 l 644 910 l 788 910 l 486 319 l 486 0 l 347 0 z "},"Z":{"ha":833,"x_min":88,"x_max":751,"o":"m 88 0 l 88 83 l 574 794 l 131 794 l 131 911 l 744 911 l 744 826 l 257 117 l 751 117 l 751 0 l 88 0 z "},"a":{"ha":833,"x_min":106,"x_max":722,"o":"m 335 -17 q 244 -3 286 -17 q 171 37 201 11 q 123 99 140 63 q 106 179 106 135 q 133 279 106 236 q 217 353 160 322 q 366 403 275 383 q 585 432 457 422 q 544 539 582 494 q 415 583 506 583 q 294 560 353 583 q 185 507 235 536 l 133 600 q 196 634 161 617 q 270 665 231 651 q 352 688 310 679 q 439 696 394 696 q 651 619 581 696 q 722 408 722 543 l 722 0 l 610 0 l 599 88 l 594 88 q 473 15 540 46 q 335 -17 406 -17 m 374 93 q 480 117 428 93 q 585 183 532 140 l 585 344 q 418 323 485 336 q 312 290 351 310 q 256 244 272 269 q 239 189 239 219 q 278 115 239 138 q 374 93 318 93 z "},"b":{"ha":833,"x_min":122,"x_max":756,"o":"m 451 -17 q 348 7 403 -17 q 247 75 293 31 l 243 75 l 231 0 l 122 0 l 122 985 l 260 985 l 260 724 l 254 599 l 258 599 q 360 669 303 643 q 475 696 417 696 q 594 672 542 696 q 683 602 647 647 q 737 493 718 557 q 756 350 756 429 q 731 194 756 263 q 663 80 706 126 q 566 8 621 33 q 451 -17 511 -17 m 425 97 q 560 162 506 97 q 614 349 614 226 q 572 518 614 456 q 439 581 531 581 q 351 559 397 581 q 260 489 306 538 l 260 168 q 347 113 303 129 q 425 97 392 97 z "},"c":{"ha":833,"x_min":106,"x_max":751,"o":"m 479 -17 q 331 7 400 -17 q 213 76 263 31 q 134 188 163 122 q 106 339 106 254 q 136 490 106 424 q 219 603 167 557 q 341 672 272 649 q 488 696 410 696 q 633 667 571 696 q 738 599 696 639 l 671 511 q 588 563 631 544 q 494 582 544 582 q 394 565 440 582 q 316 515 349 547 q 265 438 283 483 q 247 339 247 393 q 265 240 247 285 q 315 163 282 194 q 392 113 347 131 q 490 96 436 96 q 602 119 553 96 q 692 176 651 143 l 751 88 q 624 10 693 38 q 479 -17 554 -17 z "},"d":{"ha":833,"x_min":78,"x_max":711,"o":"m 371 -17 q 251 7 304 -17 q 158 76 197 31 q 99 188 119 122 q 78 339 78 254 q 103 488 78 422 q 172 600 129 554 q 269 671 214 646 q 382 696 324 696 q 488 674 442 696 q 576 611 535 651 l 581 611 l 574 732 l 574 985 l 711 985 l 711 0 l 599 0 l 588 83 l 583 83 q 488 13 543 43 q 371 -17 432 -17 m 403 97 q 574 189 494 97 l 574 511 q 493 565 533 550 q 413 581 453 581 q 338 564 372 581 q 276 516 303 547 q 235 440 250 485 q 219 340 219 396 q 267 160 219 222 q 403 97 315 97 z "},"e":{"ha":833,"x_min":90,"x_max":750,"o":"m 458 -17 q 314 7 381 -17 q 197 76 247 31 q 119 189 147 122 q 90 340 90 256 q 119 490 90 424 q 197 601 149 556 q 307 672 244 647 q 438 696 369 696 q 571 672 513 696 q 669 606 629 649 q 729 505 708 564 q 750 375 750 446 q 749 333 750 353 q 744 300 747 314 l 228 300 q 308 143 239 194 q 476 92 376 92 q 581 108 533 92 q 674 151 628 124 l 722 64 q 603 6 669 29 q 458 -17 538 -17 m 442 588 q 368 576 403 588 q 306 540 333 564 q 258 482 278 517 q 231 401 239 447 l 626 401 q 570 541 619 494 q 442 588 521 588 z "},"f":{"ha":833,"x_min":136,"x_max":806,"o":"m 326 0 l 326 568 l 136 568 l 136 672 l 326 679 l 326 726 q 343 838 326 788 q 394 925 360 889 q 482 981 429 961 q 607 1001 535 1001 q 806 963 708 1001 l 775 861 q 701 885 736 878 q 622 892 665 892 q 500 849 538 892 q 463 729 463 807 l 463 679 l 733 679 l 733 568 l 463 568 l 463 0 l 326 0 z "},"g":{"ha":833,"x_min":93,"x_max":789,"o":"m 404 -307 q 176 -260 258 -307 q 93 -122 93 -212 q 203 25 93 -36 l 203 31 q 154 73 175 46 q 133 143 133 100 q 155 210 133 176 q 214 271 176 244 l 214 276 q 153 347 178 303 q 129 451 129 390 q 151 553 129 508 q 211 631 174 599 q 298 679 249 663 q 403 696 347 696 q 506 679 460 696 l 785 679 l 785 571 l 619 571 q 654 516 639 549 q 669 447 669 483 q 649 349 669 392 q 592 276 628 306 q 507 231 556 246 q 403 215 458 215 q 349 221 378 215 q 293 238 321 226 q 246 167 246 207 q 381 96 246 96 l 525 96 q 724 58 658 96 q 789 -67 789 21 q 762 -160 789 -117 q 685 -237 735 -204 q 563 -288 635 -269 q 404 -307 492 -307 m 403 304 q 503 343 461 304 q 544 451 544 382 q 503 558 544 518 q 403 599 461 599 q 302 558 344 599 q 260 451 260 518 q 302 343 260 382 q 403 304 344 304 m 418 -211 q 516 -201 472 -211 q 590 -174 560 -190 q 638 -135 621 -157 q 654 -90 654 -114 q 618 -31 654 -46 q 510 -15 582 -15 l 389 -15 q 332 -13 357 -15 q 286 -4 307 -11 q 226 -53 243 -28 q 208 -106 208 -79 q 263 -183 208 -154 q 418 -211 317 -211 z "},"h":{"ha":833,"x_min":122,"x_max":732,"o":"m 122 0 l 122 985 l 260 985 l 260 724 l 251 571 l 256 571 q 363 660 304 624 q 501 696 422 696 q 676 625 621 696 q 732 421 732 554 l 732 0 l 594 0 l 594 403 q 563 534 594 492 q 453 576 531 576 q 356 549 399 576 q 260 468 313 522 l 260 0 l 122 0 z "},"i":{"ha":833,"x_min":121,"x_max":585,"o":"m 425 0 l 425 568 l 121 568 l 121 679 l 563 679 l 563 0 l 425 0 m 482 811 q 408 838 438 811 q 379 910 379 865 q 408 981 379 954 q 482 1008 438 1008 q 556 981 526 1008 q 585 910 585 954 q 556 838 585 865 q 482 811 526 811 z "},"j":{"ha":833,"x_min":72,"x_max":585,"o":"m 269 -294 q 163 -281 214 -294 q 72 -249 113 -268 l 115 -147 q 265 -183 192 -183 q 392 -138 358 -183 q 425 -10 425 -93 l 425 568 l 121 568 l 121 679 l 563 679 l 563 -1 q 549 -117 563 -64 q 501 -210 535 -171 q 410 -272 467 -250 q 269 -294 354 -294 m 482 811 q 408 838 438 811 q 379 910 379 865 q 408 981 379 954 q 482 1008 438 1008 q 556 981 526 1008 q 585 910 585 954 q 556 838 585 865 q 482 811 526 811 z "},"k":{"ha":833,"x_min":136,"x_max":801,"o":"m 136 0 l 136 985 l 274 985 l 274 343 l 279 343 l 614 679 l 768 679 l 501 410 l 801 0 l 650 0 l 417 325 l 274 181 l 274 0 l 136 0 z "},"l":{"ha":833,"x_min":94,"x_max":749,"o":"m 561 -17 q 388 49 447 -17 q 328 238 328 114 l 328 875 l 94 875 l 94 985 l 465 985 l 465 229 q 501 127 465 158 q 593 96 536 96 q 715 125 646 96 l 749 22 q 659 -7 700 3 q 561 -17 618 -17 z "},"m":{"ha":833,"x_min":72,"x_max":781,"o":"m 72 0 l 72 679 l 181 679 l 192 590 l 194 590 q 253 666 218 636 q 347 696 289 696 q 472 579 444 696 q 535 664 500 632 q 629 696 571 696 q 741 641 701 696 q 781 483 781 586 l 781 0 l 646 0 l 646 474 q 583 578 646 578 q 531 554 551 578 q 486 483 510 531 l 486 0 l 367 0 l 367 474 q 306 578 367 578 q 251 554 274 578 q 207 483 229 531 l 207 0 l 72 0 z "},"n":{"ha":833,"x_min":122,"x_max":732,"o":"m 122 0 l 122 679 l 235 679 l 246 569 l 251 569 q 363 659 303 622 q 501 696 422 696 q 676 625 621 696 q 732 421 732 554 l 732 0 l 594 0 l 594 403 q 563 534 594 492 q 453 576 531 576 q 356 549 399 576 q 260 468 313 522 l 260 0 l 122 0 z "},"o":{"ha":833,"x_min":78,"x_max":756,"o":"m 417 -17 q 289 7 350 -17 q 181 76 228 31 q 106 188 133 122 q 78 339 78 254 q 106 490 78 424 q 181 603 133 557 q 289 672 228 649 q 417 696 350 696 q 544 672 483 696 q 653 603 606 649 q 728 490 700 557 q 756 339 756 424 q 728 188 756 254 q 653 76 700 122 q 544 7 606 31 q 417 -17 483 -17 m 417 96 q 561 163 508 96 q 614 339 614 229 q 561 515 614 449 q 417 582 508 582 q 272 515 325 582 q 219 339 219 449 q 272 163 219 229 q 417 96 325 96 z "},"p":{"ha":833,"x_min":122,"x_max":756,"o":"m 122 -278 l 122 679 l 235 679 l 246 596 l 250 596 q 356 668 296 640 q 476 696 415 696 q 595 672 543 696 q 683 602 647 647 q 737 493 718 557 q 756 350 756 429 q 731 194 756 263 q 663 80 706 126 q 565 8 621 33 q 450 -17 510 -17 q 351 5 403 -17 q 257 67 300 26 l 253 67 l 260 -56 l 260 -278 l 122 -278 m 424 97 q 560 162 506 97 q 614 349 614 226 q 572 518 614 456 q 439 581 531 581 q 351 559 397 581 q 260 489 306 538 l 260 168 q 347 113 303 129 q 424 97 392 97 z "},"q":{"ha":833,"x_min":78,"x_max":711,"o":"m 574 -278 l 574 -42 l 581 81 l 576 81 q 483 11 536 39 q 369 -17 429 -17 q 250 7 304 -17 q 158 76 196 31 q 99 188 119 122 q 78 339 78 254 q 103 488 78 422 q 172 600 129 554 q 269 671 214 646 q 382 696 324 696 q 492 673 443 696 q 586 606 540 650 l 590 606 l 603 679 l 711 679 l 711 -278 l 574 -278 m 403 97 q 574 189 494 97 l 574 511 q 493 565 533 550 q 413 581 453 581 q 338 564 372 581 q 276 516 303 547 q 235 440 250 485 q 219 340 219 396 q 267 160 219 222 q 403 97 315 97 z "},"r":{"ha":833,"x_min":192,"x_max":750,"o":"m 192 0 l 192 679 l 306 679 l 317 521 l 321 521 q 449 650 374 604 q 617 696 525 696 q 688 690 657 696 q 750 668 718 683 l 719 550 q 660 567 685 561 q 596 572 635 572 q 454 531 522 572 q 329 386 386 489 l 329 0 l 192 0 z "},"s":{"ha":833,"x_min":93,"x_max":736,"o":"m 425 -17 q 242 15 328 -17 q 93 89 156 46 l 154 178 q 284 113 214 136 q 443 89 354 89 q 560 116 522 89 q 597 182 597 143 q 590 215 597 200 q 562 244 583 231 q 501 269 540 257 q 399 296 463 282 q 199 372 264 324 q 135 497 135 419 q 153 576 135 540 q 209 639 172 613 q 300 681 246 665 q 425 696 354 696 q 578 669 506 696 q 703 607 651 642 l 639 521 q 533 572 590 553 q 413 590 475 590 q 303 565 335 590 q 272 504 272 540 q 315 443 272 464 q 458 401 358 422 q 595 363 542 383 q 680 317 649 342 q 724 260 711 292 q 736 190 736 229 q 715 110 736 147 q 655 44 694 72 q 558 -1 615 15 q 425 -17 500 -17 z "},"t":{"ha":833,"x_min":89,"x_max":760,"o":"m 544 -17 q 417 4 469 -17 q 334 63 365 25 q 289 152 303 100 q 275 268 275 204 l 275 568 l 89 568 l 89 672 l 281 679 l 299 894 l 413 894 l 413 679 l 733 679 l 733 568 l 413 568 l 413 268 q 448 138 413 181 q 576 94 483 94 q 658 102 621 94 q 732 124 696 110 l 760 22 q 663 -5 714 7 q 544 -17 611 -17 z "},"u":{"ha":833,"x_min":101,"x_max":708,"o":"m 333 -17 q 157 53 213 -17 q 101 258 101 124 l 101 679 l 239 679 l 239 276 q 271 144 239 186 q 381 101 303 101 q 477 127 433 101 q 571 214 521 153 l 571 679 l 708 679 l 708 0 l 596 0 l 585 113 l 579 113 q 470 19 529 54 q 333 -17 411 -17 z "},"v":{"ha":833,"x_min":64,"x_max":769,"o":"m 342 0 l 64 679 l 203 679 l 346 310 q 383 208 365 258 q 418 108 400 158 l 424 108 q 458 208 442 158 q 494 310 475 258 l 638 679 l 769 679 l 497 0 l 342 0 z "},"w":{"ha":833,"x_min":10,"x_max":824,"o":"m 149 0 l 10 679 l 146 679 l 215 306 q 231 210 225 257 q 244 115 238 164 l 250 115 q 266 210 257 164 q 286 306 275 257 l 360 624 l 482 624 l 554 306 q 576 210 565 257 q 593 115 586 164 l 599 115 q 613 210 607 164 q 626 306 618 257 l 696 679 l 824 679 l 689 0 l 518 0 l 451 297 q 435 385 443 335 q 419 497 426 435 l 414 497 q 399 390 407 439 q 383 297 392 340 l 318 0 l 149 0 z "},"x":{"ha":833,"x_min":79,"x_max":753,"o":"m 79 0 l 332 353 l 97 679 l 247 679 l 346 540 q 383 483 364 513 q 422 425 403 453 l 428 425 q 465 483 446 453 q 500 542 483 514 l 590 679 l 736 679 l 500 339 l 753 0 l 603 0 l 494 144 q 453 206 475 174 q 408 267 431 238 l 403 267 q 364 206 383 236 q 325 144 344 176 l 225 0 l 79 0 z "},"y":{"ha":833,"x_min":63,"x_max":772,"o":"m 186 -285 q 137 -281 161 -285 q 93 -271 113 -278 l 121 -164 q 149 -171 133 -168 q 179 -174 164 -174 q 289 -137 247 -174 q 354 -43 331 -100 l 372 4 l 63 679 l 200 679 l 353 325 q 392 228 372 279 q 432 126 411 176 l 438 126 q 472 226 454 175 q 507 325 490 278 l 642 679 l 772 679 l 482 -43 q 435 -142 461 -97 q 373 -218 408 -186 q 292 -267 338 -250 q 186 -285 246 -285 z "},"z":{"ha":833,"x_min":99,"x_max":742,"o":"m 99 0 l 99 74 l 533 568 l 147 568 l 147 679 l 729 679 l 729 606 l 292 111 l 742 111 l 742 0 l 99 0 z "},"À":{"ha":833,"x_min":36,"x_max":797,"o":"m 326 496 l 289 371 l 540 371 l 503 496 q 458 646 481 571 q 417 799 436 721 l 411 799 q 370 646 392 721 q 326 496 349 571 m 36 0 l 336 910 l 497 910 l 797 0 l 650 0 l 572 261 l 256 261 l 178 0 l 36 0 m 460 963 l 238 1122 l 314 1214 l 521 1032 l 460 963 z "},"Á":{"ha":833,"x_min":36,"x_max":797,"o":"m 326 496 l 289 371 l 540 371 l 503 496 q 458 646 481 571 q 417 799 436 721 l 411 799 q 370 646 392 721 q 326 496 349 571 m 36 0 l 336 910 l 497 910 l 797 0 l 650 0 l 572 261 l 256 261 l 178 0 l 36 0 m 374 963 l 313 1032 l 519 1214 l 596 1122 l 374 963 z "},"Â":{"ha":833,"x_min":36,"x_max":797,"o":"m 326 496 l 289 371 l 540 371 l 503 496 q 458 646 481 571 q 417 799 436 721 l 411 799 q 370 646 392 721 q 326 496 349 571 m 36 0 l 336 910 l 497 910 l 797 0 l 650 0 l 572 261 l 256 261 l 178 0 l 36 0 m 264 965 l 204 1007 l 343 1163 l 490 1163 l 629 1007 l 569 965 l 419 1092 l 414 1092 l 264 965 z "},"Ã":{"ha":833,"x_min":36,"x_max":797,"o":"m 326 496 l 289 371 l 540 371 l 503 496 q 458 646 481 571 q 417 799 436 721 l 411 799 q 370 646 392 721 q 326 496 349 571 m 36 0 l 336 910 l 497 910 l 797 0 l 650 0 l 572 261 l 256 261 l 178 0 l 36 0 m 519 979 q 453 994 481 979 q 403 1026 425 1008 q 360 1058 381 1043 q 318 1072 340 1072 q 276 1051 293 1072 q 254 986 258 1031 l 164 993 q 208 1126 168 1081 q 314 1172 249 1172 q 381 1158 353 1172 q 431 1125 408 1143 q 473 1092 453 1107 q 515 1078 493 1078 q 579 1164 568 1078 l 669 1157 q 625 1024 665 1069 q 519 979 585 979 z "},"Ä":{"ha":833,"x_min":36,"x_max":797,"o":"m 326 496 l 289 371 l 540 371 l 503 496 q 458 646 481 571 q 417 799 436 721 l 411 799 q 370 646 392 721 q 326 496 349 571 m 36 0 l 336 910 l 497 910 l 797 0 l 650 0 l 572 261 l 256 261 l 178 0 l 36 0 m 283 988 q 226 1010 249 988 q 204 1067 204 1032 q 226 1123 204 1101 q 283 1144 249 1144 q 339 1123 317 1144 q 361 1067 361 1101 q 339 1010 361 1032 q 283 988 317 988 m 550 988 q 494 1010 517 988 q 472 1067 472 1032 q 494 1123 472 1101 q 550 1144 517 1144 q 607 1123 585 1144 q 629 1067 629 1101 q 607 1010 629 1032 q 550 988 585 988 z "},"Ā":{"ha":833,"x_min":36,"x_max":797,"o":"m 326 496 l 289 371 l 540 371 l 503 496 q 458 646 481 571 q 417 799 436 721 l 411 799 q 370 646 392 721 q 326 496 349 571 m 36 0 l 336 910 l 497 910 l 797 0 l 650 0 l 572 261 l 256 261 l 178 0 l 36 0 m 225 1015 l 225 1108 l 608 1108 l 608 1015 l 225 1015 z "},"Ă":{"ha":833,"x_min":36,"x_max":797,"o":"m 326 496 l 289 371 l 540 371 l 503 496 q 458 646 481 571 q 417 799 436 721 l 411 799 q 370 646 392 721 q 326 496 349 571 m 36 0 l 336 910 l 497 910 l 797 0 l 650 0 l 572 261 l 256 261 l 178 0 l 36 0 m 417 976 q 267 1028 318 976 q 208 1158 217 1081 l 289 1172 q 328 1092 297 1124 q 417 1061 360 1061 q 505 1092 474 1061 q 544 1172 536 1124 l 625 1158 q 565 1028 617 1081 q 417 976 514 976 z "},"Å":{"ha":833,"x_min":36,"x_max":797,"o":"m 326 496 l 289 371 l 540 371 l 503 496 q 458 646 481 571 q 417 799 436 721 l 411 799 q 370 646 392 721 q 326 496 349 571 m 36 0 l 336 910 l 497 910 l 797 0 l 650 0 l 572 261 l 256 261 l 178 0 l 36 0 m 417 969 q 315 1005 354 969 q 276 1099 276 1040 q 315 1192 276 1157 q 417 1228 354 1228 q 517 1192 478 1228 q 557 1099 557 1157 q 517 1005 557 1040 q 417 969 478 969 m 417 1026 q 464 1045 444 1026 q 483 1099 483 1064 q 464 1151 483 1132 q 417 1169 444 1169 q 369 1151 389 1169 q 349 1099 349 1132 q 369 1045 349 1064 q 417 1026 389 1026 z "},"Ǻ":{"ha":833,"x_min":36,"x_max":797,"o":"m 326 496 l 289 371 l 540 371 l 503 496 q 458 646 481 571 q 417 799 436 721 l 411 799 q 370 646 392 721 q 326 496 349 571 m 36 0 l 336 910 l 497 910 l 797 0 l 650 0 l 572 261 l 256 261 l 178 0 l 36 0 m 417 969 q 315 1005 354 969 q 276 1099 276 1040 q 318 1194 276 1160 l 518 1358 l 576 1278 l 467 1221 q 532 1176 507 1208 q 557 1099 557 1144 q 517 1005 557 1040 q 417 969 478 969 m 417 1026 q 464 1045 444 1026 q 483 1099 483 1064 q 464 1151 483 1132 q 417 1169 444 1169 q 369 1151 389 1169 q 349 1099 349 1132 q 369 1045 349 1064 q 417 1026 389 1026 z "},"Ǎ":{"ha":833,"x_min":36,"x_max":797,"o":"m 326 496 l 289 371 l 540 371 l 503 496 q 458 646 481 571 q 417 799 436 721 l 411 799 q 370 646 392 721 q 326 496 349 571 m 36 0 l 336 910 l 497 910 l 797 0 l 650 0 l 572 261 l 256 261 l 178 0 l 36 0 m 343 979 l 204 1135 l 264 1176 l 414 1051 l 419 1051 l 569 1176 l 629 1135 l 490 979 l 343 979 z "},"Ą":{"ha":833,"x_min":36,"x_max":846,"o":"m 713 -314 q 608 -281 650 -314 q 565 -185 565 -249 q 576 -124 565 -153 q 605 -73 588 -96 q 644 -31 622 -50 q 685 0 665 -12 l 650 0 l 572 261 l 256 261 l 178 0 l 36 0 l 336 910 l 497 910 l 797 0 q 706 -62 742 -19 q 669 -153 669 -104 q 691 -203 669 -186 q 740 -219 713 -219 q 778 -211 761 -219 q 807 -192 794 -203 l 846 -262 q 787 -299 821 -285 q 713 -314 753 -314 m 326 496 l 289 371 l 540 371 l 503 496 q 458 646 479 571 q 417 799 436 721 l 411 799 q 371 646 392 721 q 326 496 350 571 z "},"Ạ":{"ha":833,"x_min":36,"x_max":797,"o":"m 326 496 l 289 371 l 540 371 l 503 496 q 458 646 481 571 q 417 799 436 721 l 411 799 q 370 646 392 721 q 326 496 349 571 m 36 0 l 336 910 l 497 910 l 797 0 l 650 0 l 572 261 l 256 261 l 178 0 l 36 0 m 417 -308 q 343 -281 372 -308 q 314 -210 314 -254 q 343 -138 314 -165 q 417 -111 372 -111 q 490 -138 461 -111 q 519 -210 519 -165 q 490 -281 519 -254 q 417 -308 461 -308 z "},"Ả":{"ha":833,"x_min":36,"x_max":797,"o":"m 326 496 l 289 371 l 540 371 l 503 496 q 458 646 481 571 q 417 799 436 721 l 411 799 q 370 646 392 721 q 326 496 349 571 m 36 0 l 336 910 l 497 910 l 797 0 l 650 0 l 572 261 l 256 261 l 178 0 l 36 0 m 368 967 l 354 1028 q 408 1048 386 1035 q 429 1085 429 1061 q 315 1140 429 1135 l 329 1217 q 532 1100 532 1210 q 519 1045 532 1068 q 483 1006 506 1022 q 431 981 460 990 q 368 967 401 971 z "},"Ấ":{"ha":833,"x_min":36,"x_max":797,"o":"m 326 496 l 289 371 l 540 371 l 503 496 q 458 646 481 571 q 417 799 436 721 l 411 799 q 370 646 392 721 q 326 496 349 571 m 36 0 l 336 910 l 497 910 l 797 0 l 650 0 l 572 261 l 256 261 l 178 0 l 36 0 m 285 965 l 229 1007 l 357 1136 l 476 1136 l 604 1007 l 549 965 l 419 1063 l 414 1063 l 285 965 m 596 1058 l 549 1110 l 685 1236 l 739 1174 l 596 1058 z "},"Ầ":{"ha":833,"x_min":36,"x_max":797,"o":"m 326 496 l 289 371 l 540 371 l 503 496 q 458 646 481 571 q 417 799 436 721 l 411 799 q 370 646 392 721 q 326 496 349 571 m 36 0 l 336 910 l 497 910 l 797 0 l 650 0 l 572 261 l 256 261 l 178 0 l 36 0 m 285 965 l 229 1007 l 357 1136 l 476 1136 l 604 1007 l 549 965 l 419 1063 l 414 1063 l 285 965 m 238 1058 l 108 1176 l 163 1236 l 285 1107 l 238 1058 z "},"Ẩ":{"ha":833,"x_min":36,"x_max":797,"o":"m 326 496 l 289 371 l 540 371 l 503 496 q 458 646 481 571 q 417 799 436 721 l 411 799 q 370 646 392 721 q 326 496 349 571 m 36 0 l 336 910 l 497 910 l 797 0 l 650 0 l 572 261 l 256 261 l 178 0 l 36 0 m 285 965 l 229 1007 l 357 1136 l 476 1136 l 604 1007 l 549 965 l 419 1063 l 414 1063 l 285 965 m 585 1046 l 569 1099 q 610 1115 593 1104 q 626 1146 626 1125 q 605 1183 626 1171 q 531 1197 583 1194 l 544 1263 q 721 1158 721 1257 q 710 1111 721 1131 q 680 1078 699 1092 q 636 1058 661 1065 q 585 1046 611 1050 z "},"Ẫ":{"ha":833,"x_min":36,"x_max":797,"o":"m 326 496 l 289 371 l 540 371 l 503 496 q 458 646 481 571 q 417 799 436 721 l 411 799 q 370 646 392 721 q 326 496 349 571 m 36 0 l 336 910 l 497 910 l 797 0 l 650 0 l 572 261 l 256 261 l 178 0 l 36 0 m 285 965 l 229 1007 l 357 1129 l 476 1129 l 604 1007 l 549 965 l 419 1057 l 414 1057 l 285 965 m 506 1165 q 450 1176 474 1165 q 408 1199 426 1186 q 372 1222 389 1211 q 335 1232 354 1232 q 299 1217 311 1232 q 283 1171 288 1201 l 213 1179 q 242 1276 215 1240 q 328 1313 269 1313 q 383 1302 360 1313 q 426 1279 407 1292 q 462 1256 444 1267 q 499 1246 479 1246 q 534 1262 522 1246 q 550 1307 546 1278 l 621 1299 q 591 1202 618 1239 q 506 1165 564 1165 z "},"Ậ":{"ha":833,"x_min":36,"x_max":797,"o":"m 326 496 l 289 371 l 540 371 l 503 496 q 458 646 481 571 q 417 799 436 721 l 411 799 q 370 646 392 721 q 326 496 349 571 m 36 0 l 336 910 l 497 910 l 797 0 l 650 0 l 572 261 l 256 261 l 178 0 l 36 0 m 264 965 l 204 1007 l 343 1163 l 490 1163 l 629 1007 l 569 965 l 419 1092 l 414 1092 l 264 965 m 417 -308 q 343 -281 372 -308 q 314 -210 314 -254 q 343 -138 314 -165 q 417 -111 372 -111 q 490 -138 461 -111 q 519 -210 519 -165 q 490 -281 519 -254 q 417 -308 461 -308 z "},"Ắ":{"ha":833,"x_min":36,"x_max":797,"o":"m 326 496 l 289 371 l 540 371 l 503 496 q 458 646 481 571 q 417 799 436 721 l 411 799 q 370 646 392 721 q 326 496 349 571 m 36 0 l 336 910 l 497 910 l 797 0 l 650 0 l 572 261 l 256 261 l 178 0 l 36 0 m 417 976 q 267 1028 318 976 q 208 1158 217 1081 l 282 1172 q 325 1088 292 1121 q 417 1054 358 1054 q 508 1088 475 1054 q 551 1172 542 1121 l 625 1158 q 565 1028 617 1081 q 417 976 514 976 m 426 1117 l 358 1163 l 490 1332 l 576 1274 l 426 1117 z "},"Ằ":{"ha":833,"x_min":36,"x_max":797,"o":"m 326 496 l 289 371 l 540 371 l 503 496 q 458 646 481 571 q 417 799 436 721 l 411 799 q 370 646 392 721 q 326 496 349 571 m 36 0 l 336 910 l 497 910 l 797 0 l 650 0 l 572 261 l 256 261 l 178 0 l 36 0 m 417 976 q 267 1028 318 976 q 208 1158 217 1081 l 282 1172 q 325 1088 292 1121 q 417 1054 358 1054 q 508 1088 475 1054 q 551 1172 542 1121 l 625 1158 q 565 1028 617 1081 q 417 976 514 976 m 407 1117 l 257 1274 l 343 1332 l 475 1163 l 407 1117 z "},"Ẳ":{"ha":833,"x_min":36,"x_max":797,"o":"m 326 496 l 289 371 l 540 371 l 503 496 q 458 646 481 571 q 417 799 436 721 l 411 799 q 370 646 392 721 q 326 496 349 571 m 36 0 l 336 910 l 497 910 l 797 0 l 650 0 l 572 261 l 256 261 l 178 0 l 36 0 m 417 976 q 267 1028 318 976 q 208 1158 217 1081 l 282 1172 q 325 1088 292 1121 q 417 1054 358 1054 q 508 1088 475 1054 q 551 1172 542 1121 l 625 1158 q 565 1028 617 1081 q 417 976 514 976 m 382 1114 l 367 1165 q 407 1183 390 1172 q 424 1214 424 1193 q 402 1251 424 1239 q 328 1265 381 1263 l 342 1329 q 518 1226 518 1324 q 507 1179 518 1199 q 477 1147 496 1160 q 433 1126 458 1133 q 382 1114 408 1118 z "},"Ẵ":{"ha":833,"x_min":36,"x_max":797,"o":"m 326 496 l 289 371 l 540 371 l 503 496 q 458 646 481 571 q 417 799 436 721 l 411 799 q 370 646 392 721 q 326 496 349 571 m 36 0 l 336 910 l 497 910 l 797 0 l 650 0 l 572 261 l 256 261 l 178 0 l 36 0 m 417 981 q 269 1025 318 981 q 213 1131 219 1069 l 286 1143 q 324 1080 293 1107 q 417 1053 354 1053 q 510 1080 479 1053 q 547 1143 540 1107 l 621 1131 q 603 1073 617 1100 q 564 1025 589 1046 q 502 992 539 1004 q 417 981 465 981 m 506 1172 q 450 1183 474 1172 q 408 1206 426 1193 q 372 1228 389 1218 q 335 1239 354 1239 q 299 1223 311 1239 q 283 1178 288 1207 l 213 1186 q 242 1283 215 1246 q 328 1319 269 1319 q 383 1309 360 1319 q 426 1286 407 1299 q 462 1263 444 1274 q 499 1253 479 1253 q 534 1269 522 1253 q 550 1314 546 1285 l 621 1306 q 591 1209 618 1246 q 506 1172 564 1172 z "},"Ặ":{"ha":833,"x_min":36,"x_max":797,"o":"m 326 496 l 289 371 l 540 371 l 503 496 q 458 646 481 571 q 417 799 436 721 l 411 799 q 370 646 392 721 q 326 496 349 571 m 36 0 l 336 910 l 497 910 l 797 0 l 650 0 l 572 261 l 256 261 l 178 0 l 36 0 m 417 976 q 267 1028 318 976 q 208 1158 217 1081 l 289 1172 q 328 1092 297 1124 q 417 1061 360 1061 q 505 1092 474 1061 q 544 1172 536 1124 l 625 1158 q 565 1028 617 1081 q 417 976 514 976 m 417 -308 q 343 -281 372 -308 q 314 -210 314 -254 q 343 -138 314 -165 q 417 -111 372 -111 q 490 -138 461 -111 q 519 -210 519 -165 q 490 -281 519 -254 q 417 -308 461 -308 z "},"Æ":{"ha":833,"x_min":-3,"x_max":822,"o":"m 329 517 l 272 360 l 439 360 l 439 803 l 433 803 q 382 658 408 728 q 329 517 356 588 m -3 0 l 347 910 l 810 910 l 810 793 l 564 793 l 564 535 l 757 535 l 757 418 l 564 418 l 564 117 l 822 117 l 822 0 l 439 0 l 439 250 l 232 250 l 142 0 l -3 0 z "},"Ǽ":{"ha":833,"x_min":-3,"x_max":822,"o":"m 329 517 l 272 360 l 439 360 l 439 803 l 433 803 q 382 658 408 728 q 329 517 356 588 m -3 0 l 347 910 l 810 910 l 810 793 l 564 793 l 564 535 l 757 535 l 757 418 l 564 418 l 564 117 l 822 117 l 822 0 l 439 0 l 439 250 l 232 250 l 142 0 l -3 0 m 531 963 l 469 1032 l 676 1214 l 753 1122 l 531 963 z "},"Ǣ":{"ha":833,"x_min":-3,"x_max":822,"o":"m 329 517 l 272 360 l 439 360 l 439 803 l 433 803 q 382 658 408 728 q 329 517 356 588 m -3 0 l 347 910 l 810 910 l 810 793 l 564 793 l 564 535 l 757 535 l 757 418 l 564 418 l 564 117 l 822 117 l 822 0 l 439 0 l 439 250 l 232 250 l 142 0 l -3 0 m 382 1015 l 382 1108 l 765 1108 l 765 1015 l 382 1015 z "},"Ƀ":{"ha":833,"x_min":31,"x_max":772,"o":"m 139 0 l 139 228 l 31 228 l 31 311 l 139 319 l 139 910 l 406 910 q 533 898 475 910 q 633 860 592 886 q 699 791 675 833 q 722 689 722 749 q 684 569 722 622 q 564 494 646 515 l 564 489 q 718 418 664 472 q 772 269 772 364 q 747 151 772 201 q 676 67 722 100 q 567 17 631 33 q 428 0 504 0 l 139 0 m 276 111 l 411 111 q 577 151 519 111 q 635 278 635 190 q 578 394 635 358 q 411 429 522 429 l 276 429 l 276 319 l 461 319 l 461 228 l 276 228 l 276 111 m 276 533 l 389 533 q 541 569 494 533 q 588 675 588 604 q 539 771 588 743 q 393 799 490 799 l 276 799 l 276 533 z "},"Ḇ":{"ha":833,"x_min":128,"x_max":765,"o":"m 128 0 l 128 910 l 399 910 q 526 898 468 910 q 627 860 585 886 q 693 791 669 833 q 717 688 717 749 q 678 565 717 621 q 558 489 639 510 l 558 483 q 712 414 658 468 q 765 267 765 360 q 740 149 765 199 q 669 65 715 99 q 560 16 624 32 q 421 0 497 0 l 128 0 m 267 532 l 382 532 q 534 567 488 532 q 581 672 581 601 q 532 768 581 740 q 386 796 483 796 l 267 796 l 267 532 m 267 114 l 404 114 q 571 152 513 114 q 629 275 629 190 q 572 388 629 354 q 404 421 515 421 l 267 421 l 267 114 m 238 -242 l 238 -149 l 618 -149 l 618 -242 l 238 -242 z "},"Ç":{"ha":833,"x_min":86,"x_max":775,"o":"m 489 -17 q 331 15 404 -17 q 203 106 257 46 q 117 253 149 167 q 86 453 86 340 q 117 651 86 564 q 203 800 149 739 q 334 894 258 861 q 500 926 410 926 q 649 892 583 926 q 756 814 714 858 l 678 726 q 600 784 643 763 q 500 806 557 806 q 389 781 439 806 q 303 712 339 757 q 249 602 268 667 q 229 457 229 538 q 249 310 229 375 q 304 199 268 244 q 390 128 340 153 q 503 104 440 104 q 610 129 563 104 q 697 200 657 154 l 775 115 q 651 17 721 51 q 489 -17 581 -17 m 357 -319 l 346 -256 q 463 -235 432 -250 q 494 -189 494 -219 q 472 -149 494 -164 q 388 -125 449 -133 l 446 13 l 532 13 l 496 -87 q 571 -122 544 -99 q 597 -187 597 -144 q 535 -283 597 -251 q 357 -319 474 -314 z "},"Ć":{"ha":833,"x_min":86,"x_max":775,"o":"m 489 -17 q 331 15 404 -17 q 203 106 257 46 q 117 253 149 167 q 86 453 86 340 q 117 651 86 564 q 203 800 149 739 q 334 894 258 861 q 500 926 410 926 q 649 892 583 926 q 756 814 714 858 l 678 726 q 600 784 643 763 q 500 806 557 806 q 389 781 439 806 q 303 712 339 757 q 249 602 268 667 q 229 457 229 538 q 249 310 229 375 q 304 199 268 244 q 390 128 340 153 q 503 104 440 104 q 610 129 563 104 q 697 200 657 154 l 775 115 q 651 17 721 51 q 489 -17 581 -17 m 440 963 l 379 1032 l 586 1214 l 663 1122 l 440 963 z "},"Ĉ":{"ha":833,"x_min":86,"x_max":775,"o":"m 489 -17 q 331 15 404 -17 q 203 106 257 46 q 117 253 149 167 q 86 453 86 340 q 117 651 86 564 q 203 800 149 739 q 334 894 258 861 q 500 926 410 926 q 649 892 583 926 q 756 814 714 858 l 678 726 q 600 784 643 763 q 500 806 557 806 q 389 781 439 806 q 303 712 339 757 q 249 602 268 667 q 229 457 229 538 q 249 310 229 375 q 304 199 268 244 q 390 128 340 153 q 503 104 440 104 q 610 129 563 104 q 697 200 657 154 l 775 115 q 651 17 721 51 q 489 -17 581 -17 m 331 965 l 271 1007 l 410 1163 l 557 1163 l 696 1007 l 636 965 l 486 1092 l 481 1092 l 331 965 z "},"Č":{"ha":833,"x_min":86,"x_max":775,"o":"m 489 -17 q 331 15 404 -17 q 203 106 257 46 q 117 253 149 167 q 86 453 86 340 q 117 651 86 564 q 203 800 149 739 q 334 894 258 861 q 500 926 410 926 q 649 892 583 926 q 756 814 714 858 l 678 726 q 600 784 643 763 q 500 806 557 806 q 389 781 439 806 q 303 712 339 757 q 249 602 268 667 q 229 457 229 538 q 249 310 229 375 q 304 199 268 244 q 390 128 340 153 q 503 104 440 104 q 610 129 563 104 q 697 200 657 154 l 775 115 q 651 17 721 51 q 489 -17 581 -17 m 410 979 l 271 1135 l 331 1176 l 481 1051 l 486 1051 l 636 1176 l 696 1135 l 557 979 l 410 979 z "},"Ċ":{"ha":833,"x_min":86,"x_max":775,"o":"m 489 -17 q 331 15 404 -17 q 203 106 257 46 q 117 253 149 167 q 86 453 86 340 q 117 651 86 564 q 203 800 149 739 q 334 894 258 861 q 500 926 410 926 q 649 892 583 926 q 756 814 714 858 l 678 726 q 600 784 643 763 q 500 806 557 806 q 389 781 439 806 q 303 712 339 757 q 249 602 268 667 q 229 457 229 538 q 249 310 229 375 q 304 199 268 244 q 390 128 340 153 q 503 104 440 104 q 610 129 563 104 q 697 200 657 154 l 775 115 q 651 17 721 51 q 489 -17 581 -17 m 483 986 q 417 1011 443 986 q 390 1076 390 1036 q 417 1140 390 1115 q 483 1164 443 1164 q 550 1140 524 1164 q 576 1076 576 1115 q 550 1011 576 1036 q 483 986 524 986 z "},"Ď":{"ha":833,"x_min":115,"x_max":772,"o":"m 115 0 l 115 910 l 346 910 q 662 796 551 910 q 772 458 772 682 q 663 118 772 236 q 353 0 553 0 l 115 0 m 254 113 l 338 113 q 555 200 481 113 q 629 458 629 288 q 555 713 629 629 q 338 797 481 797 l 254 797 l 254 113 m 343 979 l 204 1135 l 264 1176 l 414 1051 l 419 1051 l 569 1176 l 629 1135 l 490 979 l 343 979 z "},"Ḍ":{"ha":833,"x_min":115,"x_max":772,"o":"m 115 0 l 115 910 l 346 910 q 662 796 551 910 q 772 458 772 682 q 663 118 772 236 q 353 0 553 0 l 115 0 m 254 113 l 338 113 q 555 200 481 113 q 629 458 629 288 q 555 713 629 629 q 338 797 481 797 l 254 797 l 254 113 m 411 -308 q 338 -281 367 -308 q 308 -210 308 -254 q 338 -138 308 -165 q 411 -111 367 -111 q 485 -138 456 -111 q 514 -210 514 -165 q 485 -281 514 -254 q 411 -308 456 -308 z "},"Ḏ":{"ha":833,"x_min":115,"x_max":772,"o":"m 115 0 l 115 910 l 346 910 q 662 796 551 910 q 772 458 772 682 q 663 118 772 236 q 353 0 553 0 l 115 0 m 254 113 l 338 113 q 555 200 481 113 q 629 458 629 288 q 555 713 629 629 q 338 797 481 797 l 254 797 l 254 113 m 221 -242 l 221 -149 l 601 -149 l 601 -242 l 221 -242 z "},"Ḑ":{"ha":833,"x_min":115,"x_max":772,"o":"m 115 0 l 115 910 l 346 910 q 662 796 551 910 q 772 458 772 682 q 663 118 772 236 q 353 0 553 0 l 115 0 m 254 113 l 338 113 q 555 200 481 113 q 629 458 629 288 q 555 713 629 629 q 338 797 481 797 l 254 797 l 254 113 m 271 -319 l 260 -256 q 377 -235 346 -250 q 408 -189 408 -219 q 385 -149 408 -164 q 301 -125 363 -133 l 360 13 l 446 13 l 410 -87 q 485 -122 458 -99 q 511 -187 511 -144 q 449 -283 511 -251 q 271 -319 388 -314 z "},"Đ":{"ha":833,"x_min":13,"x_max":772,"o":"m 115 0 l 115 431 l 13 431 l 13 513 l 115 521 l 115 910 l 347 910 q 661 796 550 910 q 772 458 772 682 q 663 118 772 236 q 354 0 553 0 l 115 0 m 253 113 l 338 113 q 554 200 481 113 q 628 458 628 288 q 554 713 628 629 q 338 797 481 797 l 253 797 l 253 521 l 440 521 l 440 431 l 253 431 l 253 113 z "},"Ɗ":{"ha":833,"x_min":22,"x_max":793,"o":"m 283 0 l 283 806 q 174 740 210 790 q 139 621 139 689 q 163 521 139 558 q 236 454 188 483 l 175 361 q 63 457 104 397 q 22 613 22 517 q 44 738 22 681 q 110 838 65 796 q 221 903 154 879 q 378 926 288 926 q 689 810 585 926 q 793 468 793 693 q 695 119 793 239 q 429 0 597 0 l 283 0 m 415 113 l 442 113 q 599 202 544 113 q 654 468 654 292 q 597 719 654 633 q 415 813 540 806 l 415 113 z "},"È":{"ha":833,"x_min":151,"x_max":738,"o":"m 151 0 l 151 910 l 724 910 l 724 793 l 290 793 l 290 533 l 657 533 l 657 417 l 290 417 l 290 117 l 738 117 l 738 0 l 151 0 m 500 963 l 278 1122 l 354 1214 l 561 1032 l 500 963 z "},"É":{"ha":833,"x_min":151,"x_max":738,"o":"m 151 0 l 151 910 l 724 910 l 724 793 l 290 793 l 290 533 l 657 533 l 657 417 l 290 417 l 290 117 l 738 117 l 738 0 l 151 0 m 414 963 l 353 1032 l 560 1214 l 636 1122 l 414 963 z "},"Ê":{"ha":833,"x_min":151,"x_max":738,"o":"m 151 0 l 151 910 l 724 910 l 724 793 l 290 793 l 290 533 l 657 533 l 657 417 l 290 417 l 290 117 l 738 117 l 738 0 l 151 0 m 304 965 l 244 1007 l 383 1163 l 531 1163 l 669 1007 l 610 965 l 460 1092 l 454 1092 l 304 965 z "},"Ě":{"ha":833,"x_min":151,"x_max":738,"o":"m 151 0 l 151 910 l 724 910 l 724 793 l 290 793 l 290 533 l 657 533 l 657 417 l 290 417 l 290 117 l 738 117 l 738 0 l 151 0 m 383 979 l 244 1135 l 304 1176 l 454 1051 l 460 1051 l 610 1176 l 669 1135 l 531 979 l 383 979 z "},"Ë":{"ha":833,"x_min":151,"x_max":738,"o":"m 151 0 l 151 910 l 724 910 l 724 793 l 290 793 l 290 533 l 657 533 l 657 417 l 290 417 l 290 117 l 738 117 l 738 0 l 151 0 m 324 988 q 267 1010 289 988 q 244 1067 244 1032 q 267 1123 244 1101 q 324 1144 289 1144 q 379 1123 357 1144 q 401 1067 401 1101 q 379 1010 401 1032 q 324 988 357 988 m 590 988 q 535 1010 557 988 q 513 1067 513 1032 q 535 1123 513 1101 q 590 1144 557 1144 q 647 1123 625 1144 q 669 1067 669 1101 q 647 1010 669 1032 q 590 988 625 988 z "},"Ē":{"ha":833,"x_min":151,"x_max":738,"o":"m 151 0 l 151 910 l 724 910 l 724 793 l 290 793 l 290 533 l 657 533 l 657 417 l 290 417 l 290 117 l 738 117 l 738 0 l 151 0 m 265 1015 l 265 1108 l 649 1108 l 649 1015 l 265 1015 z "},"Ĕ":{"ha":833,"x_min":151,"x_max":738,"o":"m 151 0 l 151 910 l 724 910 l 724 793 l 290 793 l 290 533 l 657 533 l 657 417 l 290 417 l 290 117 l 738 117 l 738 0 l 151 0 m 457 976 q 308 1028 358 976 q 249 1158 257 1081 l 329 1172 q 369 1092 338 1124 q 457 1061 400 1061 q 545 1092 514 1061 q 585 1172 576 1124 l 665 1158 q 606 1028 657 1081 q 457 976 554 976 z "},"Ė":{"ha":833,"x_min":151,"x_max":738,"o":"m 151 0 l 151 910 l 724 910 l 724 793 l 290 793 l 290 533 l 657 533 l 657 417 l 290 417 l 290 117 l 738 117 l 738 0 l 151 0 m 457 986 q 390 1011 417 986 q 364 1076 364 1036 q 390 1140 364 1115 q 457 1164 417 1164 q 524 1140 497 1164 q 550 1076 550 1115 q 524 1011 550 1036 q 457 986 497 986 z "},"Ę":{"ha":833,"x_min":153,"x_max":769,"o":"m 636 -314 q 531 -281 574 -314 q 489 -185 489 -249 q 499 -126 489 -154 q 526 -74 510 -97 q 564 -31 543 -50 q 607 0 585 -12 l 153 0 l 153 910 l 724 910 l 724 793 l 292 793 l 292 533 l 657 533 l 657 417 l 292 417 l 292 117 l 738 117 l 738 0 l 732 0 q 681 -17 706 -3 q 636 -53 656 -32 q 605 -100 617 -74 q 593 -153 593 -126 q 616 -203 593 -187 q 667 -219 639 -219 q 703 -211 686 -219 q 731 -192 719 -203 l 769 -262 q 710 -299 744 -285 q 636 -314 676 -314 z "},"Ẹ":{"ha":833,"x_min":151,"x_max":738,"o":"m 151 0 l 151 910 l 724 910 l 724 793 l 290 793 l 290 533 l 657 533 l 657 417 l 290 417 l 290 117 l 738 117 l 738 0 l 151 0 m 460 -308 q 386 -281 415 -308 q 357 -210 357 -254 q 386 -138 357 -165 q 460 -111 415 -111 q 533 -138 504 -111 q 563 -210 563 -165 q 533 -281 563 -254 q 460 -308 504 -308 z "},"Ẻ":{"ha":833,"x_min":151,"x_max":738,"o":"m 151 0 l 151 910 l 724 910 l 724 793 l 290 793 l 290 533 l 657 533 l 657 417 l 290 417 l 290 117 l 738 117 l 738 0 l 151 0 m 408 967 l 394 1028 q 448 1048 426 1035 q 469 1085 469 1061 q 356 1140 469 1135 l 369 1217 q 572 1100 572 1210 q 559 1045 572 1068 q 523 1006 546 1022 q 471 981 500 990 q 408 967 442 971 z "},"Ẽ":{"ha":833,"x_min":151,"x_max":738,"o":"m 151 0 l 151 910 l 724 910 l 724 793 l 290 793 l 290 533 l 657 533 l 657 417 l 290 417 l 290 117 l 738 117 l 738 0 l 151 0 m 560 979 q 493 994 521 979 q 443 1026 465 1008 q 401 1058 421 1043 q 358 1072 381 1072 q 316 1051 333 1072 q 294 986 299 1031 l 204 993 q 249 1126 208 1081 q 354 1172 289 1172 q 421 1158 393 1172 q 471 1125 449 1143 q 513 1092 493 1107 q 556 1078 533 1078 q 619 1164 608 1078 l 710 1157 q 665 1024 706 1069 q 560 979 625 979 z "},"Ế":{"ha":833,"x_min":151,"x_max":779,"o":"m 151 0 l 151 910 l 724 910 l 724 793 l 290 793 l 290 533 l 657 533 l 657 417 l 290 417 l 290 117 l 738 117 l 738 0 l 151 0 m 325 965 l 269 1007 l 397 1136 l 517 1136 l 644 1007 l 589 965 l 460 1063 l 454 1063 l 325 965 m 636 1058 l 589 1110 l 725 1236 l 779 1174 l 636 1058 z "},"Ề":{"ha":833,"x_min":149,"x_max":738,"o":"m 151 0 l 151 910 l 724 910 l 724 793 l 290 793 l 290 533 l 657 533 l 657 417 l 290 417 l 290 117 l 738 117 l 738 0 l 151 0 m 325 965 l 269 1007 l 397 1136 l 517 1136 l 644 1007 l 589 965 l 460 1063 l 454 1063 l 325 965 m 278 1058 l 149 1176 l 203 1236 l 325 1107 l 278 1058 z "},"Ể":{"ha":833,"x_min":151,"x_max":761,"o":"m 151 0 l 151 910 l 724 910 l 724 793 l 290 793 l 290 533 l 657 533 l 657 417 l 290 417 l 290 117 l 738 117 l 738 0 l 151 0 m 325 965 l 269 1007 l 397 1136 l 517 1136 l 644 1007 l 589 965 l 460 1063 l 454 1063 l 325 965 m 625 1046 l 610 1099 q 650 1115 633 1104 q 667 1146 667 1125 q 645 1183 667 1171 q 571 1197 624 1194 l 585 1263 q 761 1158 761 1257 q 750 1111 761 1131 q 720 1078 739 1092 q 676 1058 701 1065 q 625 1046 651 1050 z "},"Ễ":{"ha":833,"x_min":151,"x_max":738,"o":"m 151 0 l 151 910 l 724 910 l 724 793 l 290 793 l 290 533 l 657 533 l 657 417 l 290 417 l 290 117 l 738 117 l 738 0 l 151 0 m 325 965 l 269 1007 l 397 1129 l 517 1129 l 644 1007 l 589 965 l 460 1057 l 454 1057 l 325 965 m 546 1165 q 490 1176 514 1165 q 448 1199 467 1186 q 412 1222 429 1211 q 375 1232 394 1232 q 340 1217 351 1232 q 324 1171 328 1201 l 253 1179 q 283 1276 256 1240 q 368 1313 310 1313 q 424 1302 400 1313 q 466 1279 447 1292 q 502 1256 485 1267 q 539 1246 519 1246 q 574 1262 563 1246 q 590 1307 586 1278 l 661 1299 q 631 1202 658 1239 q 546 1165 604 1165 z "},"Ệ":{"ha":833,"x_min":151,"x_max":738,"o":"m 151 0 l 151 910 l 724 910 l 724 793 l 290 793 l 290 533 l 657 533 l 657 417 l 290 417 l 290 117 l 738 117 l 738 0 l 151 0 m 304 965 l 244 1007 l 383 1163 l 531 1163 l 669 1007 l 610 965 l 460 1092 l 454 1092 l 304 965 m 460 -308 q 386 -281 415 -308 q 357 -210 357 -254 q 386 -138 357 -165 q 460 -111 415 -111 q 533 -138 504 -111 q 563 -210 563 -165 q 533 -281 563 -254 q 460 -308 504 -308 z "},"Ḗ":{"ha":833,"x_min":151,"x_max":738,"o":"m 151 0 l 151 910 l 724 910 l 724 793 l 290 793 l 290 533 l 657 533 l 657 417 l 290 417 l 290 117 l 738 117 l 738 0 l 151 0 m 265 1015 l 265 1108 l 649 1108 l 649 1015 l 265 1015 m 426 1151 l 378 1214 l 558 1358 l 619 1281 l 426 1151 z "},"Ǵ":{"ha":833,"x_min":71,"x_max":746,"o":"m 471 -17 q 311 15 385 -17 q 184 106 238 46 q 101 253 131 167 q 71 453 71 340 q 101 652 71 564 q 186 801 132 740 q 315 894 240 863 q 478 926 390 926 q 631 891 568 926 q 733 814 693 856 l 656 726 q 582 783 624 761 q 478 806 540 806 q 371 781 419 806 q 288 712 322 757 q 233 602 253 667 q 214 457 214 538 q 282 199 214 293 q 479 104 350 104 q 558 117 521 104 q 618 151 594 129 l 618 368 l 450 368 l 450 482 l 746 482 l 746 90 q 630 15 701 46 q 471 -17 558 -17 m 415 963 l 354 1032 l 561 1214 l 638 1122 l 415 963 z "},"Ĝ":{"ha":833,"x_min":71,"x_max":746,"o":"m 471 -17 q 311 15 385 -17 q 184 106 238 46 q 101 253 131 167 q 71 453 71 340 q 101 652 71 564 q 186 801 132 740 q 315 894 240 863 q 478 926 390 926 q 631 891 568 926 q 733 814 693 856 l 656 726 q 582 783 624 761 q 478 806 540 806 q 371 781 419 806 q 288 712 322 757 q 233 602 253 667 q 214 457 214 538 q 282 199 214 293 q 479 104 350 104 q 558 117 521 104 q 618 151 594 129 l 618 368 l 450 368 l 450 482 l 746 482 l 746 90 q 630 15 701 46 q 471 -17 558 -17 m 306 965 l 246 1007 l 385 1163 l 532 1163 l 671 1007 l 611 965 l 461 1092 l 456 1092 l 306 965 z "},"Ğ":{"ha":833,"x_min":71,"x_max":746,"o":"m 471 -17 q 311 15 385 -17 q 184 106 238 46 q 101 253 131 167 q 71 453 71 340 q 101 652 71 564 q 186 801 132 740 q 315 894 240 863 q 478 926 390 926 q 631 891 568 926 q 733 814 693 856 l 656 726 q 582 783 624 761 q 478 806 540 806 q 371 781 419 806 q 288 712 322 757 q 233 602 253 667 q 214 457 214 538 q 282 199 214 293 q 479 104 350 104 q 558 117 521 104 q 618 151 594 129 l 618 368 l 450 368 l 450 482 l 746 482 l 746 90 q 630 15 701 46 q 471 -17 558 -17 m 458 976 q 309 1028 360 976 q 250 1158 258 1081 l 331 1172 q 370 1092 339 1124 q 458 1061 401 1061 q 547 1092 515 1061 q 586 1172 578 1124 l 667 1158 q 607 1028 658 1081 q 458 976 556 976 z "},"Ġ":{"ha":833,"x_min":71,"x_max":746,"o":"m 471 -17 q 311 15 385 -17 q 184 106 238 46 q 101 253 131 167 q 71 453 71 340 q 101 652 71 564 q 186 801 132 740 q 315 894 240 863 q 478 926 390 926 q 631 891 568 926 q 733 814 693 856 l 656 726 q 582 783 624 761 q 478 806 540 806 q 371 781 419 806 q 288 712 322 757 q 233 602 253 667 q 214 457 214 538 q 282 199 214 293 q 479 104 350 104 q 558 117 521 104 q 618 151 594 129 l 618 368 l 450 368 l 450 482 l 746 482 l 746 90 q 630 15 701 46 q 471 -17 558 -17 m 458 986 q 392 1011 418 986 q 365 1076 365 1036 q 392 1140 365 1115 q 458 1164 418 1164 q 525 1140 499 1164 q 551 1076 551 1115 q 525 1011 551 1036 q 458 986 499 986 z "},"Ģ":{"ha":833,"x_min":71,"x_max":746,"o":"m 471 -17 q 311 15 385 -17 q 184 106 238 46 q 101 253 131 167 q 71 453 71 340 q 101 652 71 564 q 186 801 132 740 q 315 894 240 863 q 478 926 390 926 q 631 891 568 926 q 733 814 693 856 l 656 726 q 582 783 624 761 q 478 806 540 806 q 371 781 419 806 q 288 712 322 757 q 233 602 253 667 q 214 457 214 538 q 282 199 214 293 q 479 104 350 104 q 558 117 521 104 q 618 151 594 129 l 618 368 l 450 368 l 450 482 l 746 482 l 746 90 q 630 15 701 46 q 471 -17 558 -17 m 329 -319 l 318 -256 q 435 -235 404 -250 q 467 -193 467 -221 q 371 -137 467 -146 l 399 -78 q 533 -114 496 -89 q 569 -187 569 -139 q 508 -283 569 -251 q 329 -319 446 -314 z "},"Ǧ":{"ha":833,"x_min":71,"x_max":746,"o":"m 471 -17 q 311 15 385 -17 q 184 106 238 46 q 101 253 131 167 q 71 453 71 340 q 101 652 71 564 q 186 801 132 740 q 315 894 240 863 q 478 926 390 926 q 631 891 568 926 q 733 814 693 856 l 656 726 q 582 783 624 761 q 478 806 540 806 q 371 781 419 806 q 288 712 322 757 q 233 602 253 667 q 214 457 214 538 q 282 199 214 293 q 479 104 350 104 q 558 117 521 104 q 618 151 594 129 l 618 368 l 450 368 l 450 482 l 746 482 l 746 90 q 630 15 701 46 q 471 -17 558 -17 m 385 979 l 246 1135 l 306 1176 l 456 1051 l 461 1051 l 611 1176 l 671 1135 l 532 979 l 385 979 z "},"Ḡ":{"ha":833,"x_min":71,"x_max":746,"o":"m 471 -17 q 311 15 385 -17 q 184 106 238 46 q 101 253 131 167 q 71 453 71 340 q 101 652 71 564 q 186 801 132 740 q 315 894 240 863 q 478 926 390 926 q 631 891 568 926 q 733 814 693 856 l 656 726 q 582 783 624 761 q 478 806 540 806 q 371 781 419 806 q 288 712 322 757 q 233 602 253 667 q 214 457 214 538 q 282 199 214 293 q 479 104 350 104 q 558 117 521 104 q 618 151 594 129 l 618 368 l 450 368 l 450 482 l 746 482 l 746 90 q 630 15 701 46 q 471 -17 558 -17 m 267 1015 l 267 1108 l 650 1108 l 650 1015 l 267 1015 z "},"Ɠ":{"ha":833,"x_min":71,"x_max":825,"o":"m 733 814 l 656 726 q 582 783 624 761 q 478 806 540 806 q 371 781 419 806 q 288 712 322 757 q 233 602 253 667 q 214 457 214 538 q 282 199 214 293 q 479 104 350 104 q 558 117 521 104 q 618 151 594 129 l 618 368 l 450 368 l 450 482 l 746 482 l 746 90 q 630 15 701 46 q 471 -17 558 -17 q 311 15 385 -17 q 184 106 238 46 q 101 253 131 167 q 71 453 71 340 q 101 652 71 564 q 186 801 132 740 q 315 894 240 863 q 478 926 390 926 q 571 914 529 926 q 564 965 564 942 q 610 1078 564 1033 q 731 1122 656 1122 q 785 1117 763 1122 q 825 1104 807 1111 l 799 1000 q 778 1008 788 1004 q 754 1011 768 1011 q 700 991 719 1011 q 681 939 681 971 q 694 876 681 903 q 733 814 708 850 z "},"Ĥ":{"ha":833,"x_min":104,"x_max":729,"o":"m 104 0 l 104 910 l 244 910 l 244 536 l 589 536 l 589 910 l 729 910 l 729 0 l 589 0 l 589 415 l 244 415 l 244 0 l 104 0 m 264 965 l 204 1007 l 343 1163 l 490 1163 l 629 1007 l 569 965 l 419 1092 l 414 1092 l 264 965 z "},"Ḧ":{"ha":833,"x_min":104,"x_max":729,"o":"m 104 0 l 104 910 l 244 910 l 244 536 l 589 536 l 589 910 l 729 910 l 729 0 l 589 0 l 589 415 l 244 415 l 244 0 l 104 0 m 283 988 q 226 1010 249 988 q 204 1067 204 1032 q 226 1123 204 1101 q 283 1144 249 1144 q 339 1123 317 1144 q 361 1067 361 1101 q 339 1010 361 1032 q 283 988 317 988 m 550 988 q 494 1010 517 988 q 472 1067 472 1032 q 494 1123 472 1101 q 550 1144 517 1144 q 607 1123 585 1144 q 629 1067 629 1101 q 607 1010 629 1032 q 550 988 585 988 z "},"Ḥ":{"ha":833,"x_min":104,"x_max":729,"o":"m 104 0 l 104 910 l 244 910 l 244 536 l 589 536 l 589 910 l 729 910 l 729 0 l 589 0 l 589 415 l 244 415 l 244 0 l 104 0 m 417 -308 q 343 -281 372 -308 q 314 -210 314 -254 q 343 -138 314 -165 q 417 -111 372 -111 q 490 -138 461 -111 q 519 -210 519 -165 q 490 -281 519 -254 q 417 -308 461 -308 z "},"Ḩ":{"ha":833,"x_min":39,"x_max":729,"o":"m 104 0 l 104 910 l 244 910 l 244 536 l 589 536 l 589 910 l 729 910 l 729 0 l 589 0 l 589 415 l 244 415 l 244 0 l 104 0 m 50 -319 l 39 -256 q 156 -235 125 -250 q 188 -189 188 -219 q 165 -149 188 -164 q 81 -125 142 -133 l 139 13 l 225 13 l 189 -87 q 264 -122 238 -99 q 290 -187 290 -144 q 228 -283 290 -251 q 50 -319 167 -314 z "},"Ḫ":{"ha":833,"x_min":104,"x_max":729,"o":"m 104 0 l 104 910 l 244 910 l 244 536 l 589 536 l 589 910 l 729 910 l 729 0 l 589 0 l 589 415 l 244 415 l 244 0 l 104 0 m 417 -321 q 319 -303 360 -321 q 251 -255 278 -285 q 211 -187 225 -225 q 194 -108 197 -149 l 278 -94 q 292 -145 282 -121 q 319 -188 301 -169 q 360 -219 336 -207 q 417 -231 385 -231 q 473 -219 449 -231 q 515 -188 497 -207 q 542 -145 532 -169 q 556 -94 551 -121 l 639 -108 q 622 -187 636 -149 q 582 -255 608 -225 q 515 -303 556 -285 q 417 -321 474 -321 z "},"Ħ":{"ha":833,"x_min":11,"x_max":822,"o":"m 11 672 l 11 754 l 104 763 l 104 910 l 244 910 l 244 763 l 589 763 l 589 910 l 729 910 l 729 763 l 822 763 l 822 672 l 729 672 l 729 0 l 589 0 l 589 415 l 244 415 l 244 0 l 104 0 l 104 672 l 11 672 m 244 536 l 589 536 l 589 672 l 244 672 l 244 536 z "},"Ì":{"ha":833,"x_min":125,"x_max":708,"o":"m 125 0 l 125 117 l 347 117 l 347 793 l 125 793 l 125 910 l 708 910 l 708 793 l 486 793 l 486 117 l 708 117 l 708 0 l 125 0 m 460 963 l 238 1122 l 314 1214 l 521 1032 l 460 963 z "},"Í":{"ha":833,"x_min":125,"x_max":708,"o":"m 125 0 l 125 117 l 347 117 l 347 793 l 125 793 l 125 910 l 708 910 l 708 793 l 486 793 l 486 117 l 708 117 l 708 0 l 125 0 m 374 963 l 313 1032 l 519 1214 l 596 1122 l 374 963 z "},"Î":{"ha":833,"x_min":125,"x_max":708,"o":"m 125 0 l 125 117 l 347 117 l 347 793 l 125 793 l 125 910 l 708 910 l 708 793 l 486 793 l 486 117 l 708 117 l 708 0 l 125 0 m 264 965 l 204 1007 l 343 1163 l 490 1163 l 629 1007 l 569 965 l 419 1092 l 414 1092 l 264 965 z "},"Ĩ":{"ha":833,"x_min":125,"x_max":708,"o":"m 125 0 l 125 117 l 347 117 l 347 793 l 125 793 l 125 910 l 708 910 l 708 793 l 486 793 l 486 117 l 708 117 l 708 0 l 125 0 m 519 979 q 453 994 481 979 q 403 1026 425 1008 q 360 1058 381 1043 q 318 1072 340 1072 q 276 1051 293 1072 q 254 986 258 1031 l 164 993 q 208 1126 168 1081 q 314 1172 249 1172 q 381 1158 353 1172 q 431 1125 408 1143 q 473 1092 453 1107 q 515 1078 493 1078 q 579 1164 568 1078 l 669 1157 q 625 1024 665 1069 q 519 979 585 979 z "},"Ï":{"ha":833,"x_min":125,"x_max":708,"o":"m 125 0 l 125 117 l 347 117 l 347 793 l 125 793 l 125 910 l 708 910 l 708 793 l 486 793 l 486 117 l 708 117 l 708 0 l 125 0 m 283 988 q 226 1010 249 988 q 204 1067 204 1032 q 226 1123 204 1101 q 283 1144 249 1144 q 339 1123 317 1144 q 361 1067 361 1101 q 339 1010 361 1032 q 283 988 317 988 m 550 988 q 494 1010 517 988 q 472 1067 472 1032 q 494 1123 472 1101 q 550 1144 517 1144 q 607 1123 585 1144 q 629 1067 629 1101 q 607 1010 629 1032 q 550 988 585 988 z "},"Ī":{"ha":833,"x_min":125,"x_max":708,"o":"m 125 0 l 125 117 l 347 117 l 347 793 l 125 793 l 125 910 l 708 910 l 708 793 l 486 793 l 486 117 l 708 117 l 708 0 l 125 0 m 225 1015 l 225 1108 l 608 1108 l 608 1015 l 225 1015 z "},"İ":{"ha":833,"x_min":125,"x_max":708,"o":"m 125 0 l 125 117 l 347 117 l 347 793 l 125 793 l 125 910 l 708 910 l 708 793 l 486 793 l 486 117 l 708 117 l 708 0 l 125 0 m 417 986 q 350 1011 376 986 q 324 1076 324 1036 q 350 1140 324 1115 q 417 1164 376 1164 q 483 1140 457 1164 q 510 1076 510 1115 q 483 1011 510 1036 q 417 986 457 986 z "},"Ǐ":{"ha":833,"x_min":125,"x_max":708,"o":"m 125 0 l 125 117 l 347 117 l 347 793 l 125 793 l 125 910 l 708 910 l 708 793 l 486 793 l 486 117 l 708 117 l 708 0 l 125 0 m 343 979 l 204 1135 l 264 1176 l 414 1051 l 419 1051 l 569 1176 l 629 1135 l 490 979 l 343 979 z "},"Į":{"ha":833,"x_min":125,"x_max":708,"o":"m 431 -314 q 326 -281 368 -314 q 283 -185 283 -249 q 292 -127 283 -154 q 316 -77 301 -100 q 349 -35 331 -54 q 383 0 367 -15 l 125 0 l 125 117 l 347 117 l 347 793 l 125 793 l 125 910 l 708 910 l 708 793 l 486 793 l 486 117 l 708 117 l 708 0 l 492 0 q 413 -76 438 -36 q 388 -153 388 -115 q 410 -203 388 -187 q 460 -219 432 -219 q 497 -211 481 -219 q 525 -192 514 -203 l 564 -262 q 505 -299 539 -285 q 431 -314 471 -314 z "},"Ỉ":{"ha":833,"x_min":125,"x_max":708,"o":"m 125 0 l 125 117 l 347 117 l 347 793 l 125 793 l 125 910 l 708 910 l 708 793 l 486 793 l 486 117 l 708 117 l 708 0 l 125 0 m 368 967 l 354 1028 q 408 1048 386 1035 q 429 1085 429 1061 q 315 1140 429 1135 l 329 1217 q 532 1100 532 1210 q 519 1045 532 1068 q 483 1006 506 1022 q 431 981 460 990 q 368 967 401 971 z "},"Ị":{"ha":833,"x_min":125,"x_max":708,"o":"m 125 0 l 125 117 l 347 117 l 347 793 l 125 793 l 125 910 l 708 910 l 708 793 l 486 793 l 486 117 l 708 117 l 708 0 l 125 0 m 417 -308 q 343 -281 372 -308 q 314 -210 314 -254 q 343 -138 314 -165 q 417 -111 372 -111 q 490 -138 461 -111 q 519 -210 519 -165 q 490 -281 519 -254 q 417 -308 461 -308 z "},"Ĭ":{"ha":833,"x_min":125,"x_max":708,"o":"m 125 0 l 125 117 l 347 117 l 347 793 l 125 793 l 125 910 l 708 910 l 708 793 l 486 793 l 486 117 l 708 117 l 708 0 l 125 0 m 417 976 q 267 1028 318 976 q 208 1158 217 1081 l 289 1172 q 328 1092 297 1124 q 417 1061 360 1061 q 505 1092 474 1061 q 544 1172 536 1124 l 625 1158 q 565 1028 617 1081 q 417 976 514 976 z "},"Ĵ":{"ha":833,"x_min":104,"x_max":693,"o":"m 382 -17 q 230 19 306 -17 q 104 135 154 54 l 189 219 q 278 133 228 161 q 378 104 328 104 q 512 151 469 104 q 554 307 554 199 l 554 794 l 181 794 l 181 911 l 693 911 l 693 296 q 677 174 693 231 q 625 75 661 118 q 529 8 589 32 q 382 -17 469 -17 m 299 965 l 239 1007 l 378 1163 l 525 1163 l 664 1007 l 604 965 l 454 1092 l 449 1092 l 299 965 z "},"Ķ":{"ha":833,"x_min":125,"x_max":811,"o":"m 125 0 l 125 910 l 265 910 l 265 475 l 269 475 l 622 910 l 779 910 l 494 560 l 811 0 l 656 0 l 408 456 l 265 279 l 265 0 l 125 0 m 339 -319 l 328 -256 q 445 -235 414 -250 q 476 -193 476 -221 q 381 -137 476 -146 l 408 -78 q 542 -114 506 -89 q 579 -187 579 -139 q 517 -283 579 -251 q 339 -319 456 -314 z "},"Ḳ":{"ha":833,"x_min":125,"x_max":811,"o":"m 125 0 l 125 910 l 265 910 l 265 475 l 269 475 l 622 910 l 779 910 l 494 560 l 811 0 l 656 0 l 408 456 l 265 279 l 265 0 l 125 0 m 465 -308 q 392 -281 421 -308 q 363 -210 363 -254 q 392 -138 363 -165 q 465 -111 421 -111 q 539 -138 510 -111 q 568 -210 568 -165 q 539 -281 568 -254 q 465 -308 510 -308 z "},"Ḵ":{"ha":833,"x_min":125,"x_max":811,"o":"m 125 0 l 125 910 l 265 910 l 265 475 l 269 475 l 622 910 l 779 910 l 494 560 l 811 0 l 656 0 l 408 456 l 265 279 l 265 0 l 125 0 m 275 -242 l 275 -149 l 656 -149 l 656 -242 l 275 -242 z "},"Ĺ":{"ha":833,"x_min":161,"x_max":751,"o":"m 176 0 l 176 910 l 314 910 l 314 117 l 751 117 l 751 0 l 176 0 m 222 963 l 161 1032 l 368 1214 l 444 1122 l 222 963 z "},"Ľ":{"ha":833,"x_min":176,"x_max":751,"o":"m 176 0 l 176 910 l 314 910 l 314 117 l 751 117 l 751 0 l 176 0 m 526 714 l 521 1089 l 644 1089 l 643 969 l 619 714 l 526 714 z "},"Ļ":{"ha":833,"x_min":176,"x_max":751,"o":"m 176 0 l 176 910 l 314 910 l 314 117 l 751 117 l 751 0 l 176 0 m 353 -319 l 342 -256 q 459 -235 428 -250 q 490 -193 490 -221 q 394 -137 490 -146 l 422 -78 q 556 -114 519 -89 q 593 -187 593 -139 q 531 -283 593 -251 q 353 -319 469 -314 z "},"Ḷ":{"ha":833,"x_min":176,"x_max":751,"o":"m 176 0 l 176 910 l 314 910 l 314 117 l 751 117 l 751 0 l 176 0 m 479 -308 q 406 -281 435 -308 q 376 -210 376 -254 q 406 -138 376 -165 q 479 -111 435 -111 q 553 -138 524 -111 q 582 -210 582 -165 q 553 -281 582 -254 q 479 -308 524 -308 z "},"Ḹ":{"ha":833,"x_min":74,"x_max":751,"o":"m 176 0 l 176 910 l 314 910 l 314 117 l 751 117 l 751 0 l 176 0 m 74 1015 l 74 1108 l 457 1108 l 457 1015 l 74 1015 m 479 -308 q 406 -281 435 -308 q 376 -210 376 -254 q 406 -138 376 -165 q 479 -111 435 -111 q 553 -138 524 -111 q 582 -210 582 -165 q 553 -281 582 -254 q 479 -308 524 -308 z "},"Ḻ":{"ha":833,"x_min":176,"x_max":751,"o":"m 176 0 l 176 910 l 314 910 l 314 117 l 751 117 l 751 0 l 176 0 m 289 -242 l 289 -149 l 669 -149 l 669 -242 l 289 -242 z "},"Ł":{"ha":833,"x_min":8,"x_max":751,"o":"m 56 247 l 8 333 l 176 425 l 176 910 l 314 910 l 314 488 l 596 639 l 643 553 l 314 376 l 314 117 l 751 117 l 751 0 l 176 0 l 176 314 l 56 247 z "},"Ŀ":{"ha":833,"x_min":176,"x_max":754,"o":"m 176 0 l 176 910 l 314 910 l 314 117 l 751 117 l 751 0 l 176 0 m 651 392 q 578 419 607 392 q 549 490 549 446 q 578 562 549 535 q 651 589 607 589 q 725 562 696 589 q 754 490 754 535 q 725 419 754 446 q 651 392 696 392 z "},"Ḿ":{"ha":833,"x_min":94,"x_max":739,"o":"m 94 0 l 94 910 l 256 910 l 374 539 l 414 397 l 419 397 l 460 539 l 578 910 l 739 910 l 739 0 l 611 0 l 611 410 q 614 492 611 444 q 620 588 617 539 q 627 681 624 636 q 633 758 631 726 l 629 758 l 572 563 l 457 242 l 371 242 l 257 563 l 201 758 l 197 758 q 205 681 201 726 q 212 588 208 636 q 217 492 215 539 q 219 410 219 444 l 219 0 l 94 0 m 374 963 l 313 1032 l 519 1214 l 596 1122 l 374 963 z "},"Ṁ":{"ha":833,"x_min":94,"x_max":739,"o":"m 94 0 l 94 910 l 256 910 l 374 539 l 414 397 l 419 397 l 460 539 l 578 910 l 739 910 l 739 0 l 611 0 l 611 410 q 614 492 611 444 q 620 588 617 539 q 627 681 624 636 q 633 758 631 726 l 629 758 l 572 563 l 457 242 l 371 242 l 257 563 l 201 758 l 197 758 q 205 681 201 726 q 212 588 208 636 q 217 492 215 539 q 219 410 219 444 l 219 0 l 94 0 m 417 986 q 350 1011 376 986 q 324 1076 324 1036 q 350 1140 324 1115 q 417 1164 376 1164 q 483 1140 457 1164 q 510 1076 510 1115 q 483 1011 510 1036 q 417 986 457 986 z "},"Ṃ":{"ha":833,"x_min":94,"x_max":739,"o":"m 94 0 l 94 910 l 256 910 l 374 539 l 414 397 l 419 397 l 460 539 l 578 910 l 739 910 l 739 0 l 611 0 l 611 410 q 614 492 611 444 q 620 588 617 539 q 627 681 624 636 q 633 758 631 726 l 629 758 l 572 563 l 457 242 l 371 242 l 257 563 l 201 758 l 197 758 q 205 681 201 726 q 212 588 208 636 q 217 492 215 539 q 219 410 219 444 l 219 0 l 94 0 m 417 -308 q 343 -281 372 -308 q 314 -210 314 -254 q 343 -138 314 -165 q 417 -111 372 -111 q 490 -138 461 -111 q 519 -210 519 -165 q 490 -281 519 -254 q 417 -308 461 -308 z "},"Ń":{"ha":833,"x_min":108,"x_max":725,"o":"m 108 0 l 108 910 l 257 910 l 522 369 l 607 178 l 611 178 q 599 324 607 247 q 592 476 592 401 l 592 910 l 725 910 l 725 0 l 576 0 l 311 540 l 226 732 l 222 732 q 234 585 226 661 q 242 436 242 510 l 242 0 l 108 0 m 388 963 l 326 1032 l 533 1214 l 610 1122 l 388 963 z "},"Ǹ":{"ha":833,"x_min":108,"x_max":725,"o":"m 108 0 l 108 910 l 257 910 l 522 369 l 607 178 l 611 178 q 599 324 607 247 q 592 476 592 401 l 592 910 l 725 910 l 725 0 l 576 0 l 311 540 l 226 732 l 222 732 q 234 585 226 661 q 242 436 242 510 l 242 0 l 108 0 m 474 963 l 251 1122 l 328 1214 l 535 1032 l 474 963 z "},"Ň":{"ha":833,"x_min":108,"x_max":725,"o":"m 108 0 l 108 910 l 257 910 l 522 369 l 607 178 l 611 178 q 599 324 607 247 q 592 476 592 401 l 592 910 l 725 910 l 725 0 l 576 0 l 311 540 l 226 732 l 222 732 q 234 585 226 661 q 242 436 242 510 l 242 0 l 108 0 m 357 979 l 218 1135 l 278 1176 l 428 1051 l 433 1051 l 583 1176 l 643 1135 l 504 979 l 357 979 z "},"Ñ":{"ha":833,"x_min":108,"x_max":725,"o":"m 108 0 l 108 910 l 257 910 l 522 369 l 607 178 l 611 178 q 599 324 607 247 q 592 476 592 401 l 592 910 l 725 910 l 725 0 l 576 0 l 311 540 l 226 732 l 222 732 q 234 585 226 661 q 242 436 242 510 l 242 0 l 108 0 m 533 979 q 467 994 494 979 q 417 1026 439 1008 q 374 1058 394 1043 q 332 1072 354 1072 q 290 1051 307 1072 q 268 986 272 1031 l 178 993 q 222 1126 182 1081 q 328 1172 263 1172 q 394 1158 367 1172 q 444 1125 422 1143 q 487 1092 467 1107 q 529 1078 507 1078 q 593 1164 582 1078 l 683 1157 q 639 1024 679 1069 q 533 979 599 979 z "},"Ņ":{"ha":833,"x_min":108,"x_max":725,"o":"m 108 0 l 108 910 l 257 910 l 522 369 l 607 178 l 611 178 q 599 324 607 247 q 592 476 592 401 l 592 910 l 725 910 l 725 0 l 576 0 l 311 540 l 226 732 l 222 732 q 234 585 226 661 q 242 436 242 510 l 242 0 l 108 0 m 290 -319 l 279 -256 q 397 -235 365 -250 q 428 -193 428 -221 q 332 -137 428 -146 l 360 -78 q 494 -114 457 -89 q 531 -187 531 -139 q 469 -283 531 -251 q 290 -319 407 -314 z "},"Ṅ":{"ha":833,"x_min":108,"x_max":725,"o":"m 108 0 l 108 910 l 257 910 l 522 369 l 607 178 l 611 178 q 599 324 607 247 q 592 476 592 401 l 592 910 l 725 910 l 725 0 l 576 0 l 311 540 l 226 732 l 222 732 q 234 585 226 661 q 242 436 242 510 l 242 0 l 108 0 m 431 986 q 364 1011 390 986 q 338 1076 338 1036 q 364 1140 338 1115 q 431 1164 390 1164 q 497 1140 471 1164 q 524 1076 524 1115 q 497 1011 524 1036 q 431 986 471 986 z "},"Ṇ":{"ha":833,"x_min":108,"x_max":725,"o":"m 108 0 l 108 910 l 257 910 l 522 369 l 607 178 l 611 178 q 599 324 607 247 q 592 476 592 401 l 592 910 l 725 910 l 725 0 l 576 0 l 311 540 l 226 732 l 222 732 q 234 585 226 661 q 242 436 242 510 l 242 0 l 108 0 m 417 -308 q 343 -281 372 -308 q 314 -210 314 -254 q 343 -138 314 -165 q 417 -111 372 -111 q 490 -138 461 -111 q 519 -210 519 -165 q 490 -281 519 -254 q 417 -308 461 -308 z "},"Ṉ":{"ha":833,"x_min":108,"x_max":725,"o":"m 108 0 l 108 910 l 257 910 l 522 369 l 607 178 l 611 178 q 599 324 607 247 q 592 476 592 401 l 592 910 l 725 910 l 725 0 l 576 0 l 311 540 l 226 732 l 222 732 q 234 585 226 661 q 242 436 242 510 l 242 0 l 108 0 m 226 -242 l 226 -149 l 607 -149 l 607 -242 l 226 -242 z "},"Ò":{"ha":833,"x_min":63,"x_max":771,"o":"m 417 -17 q 274 15 339 -17 q 161 108 208 47 q 88 257 114 168 q 63 458 63 346 q 88 657 63 569 q 161 804 114 744 q 274 895 208 864 q 417 926 339 926 q 560 895 494 926 q 672 804 625 864 q 744 657 718 744 q 771 458 771 569 q 744 257 771 346 q 672 108 718 168 q 560 15 625 47 q 417 -17 494 -17 m 417 104 q 570 197 513 104 q 628 458 628 290 q 570 715 628 624 q 417 806 513 806 q 263 715 321 806 q 206 458 206 624 q 263 197 206 290 q 417 104 321 104 m 460 963 l 238 1122 l 314 1214 l 521 1032 l 460 963 z "},"Ó":{"ha":833,"x_min":63,"x_max":771,"o":"m 417 -17 q 274 15 339 -17 q 161 108 208 47 q 88 257 114 168 q 63 458 63 346 q 88 657 63 569 q 161 804 114 744 q 274 895 208 864 q 417 926 339 926 q 560 895 494 926 q 672 804 625 864 q 744 657 718 744 q 771 458 771 569 q 744 257 771 346 q 672 108 718 168 q 560 15 625 47 q 417 -17 494 -17 m 417 104 q 570 197 513 104 q 628 458 628 290 q 570 715 628 624 q 417 806 513 806 q 263 715 321 806 q 206 458 206 624 q 263 197 206 290 q 417 104 321 104 m 374 963 l 313 1032 l 519 1214 l 596 1122 l 374 963 z "},"Ô":{"ha":833,"x_min":63,"x_max":771,"o":"m 417 -17 q 274 15 339 -17 q 161 108 208 47 q 88 257 114 168 q 63 458 63 346 q 88 657 63 569 q 161 804 114 744 q 274 895 208 864 q 417 926 339 926 q 560 895 494 926 q 672 804 625 864 q 744 657 718 744 q 771 458 771 569 q 744 257 771 346 q 672 108 718 168 q 560 15 625 47 q 417 -17 494 -17 m 417 104 q 570 197 513 104 q 628 458 628 290 q 570 715 628 624 q 417 806 513 806 q 263 715 321 806 q 206 458 206 624 q 263 197 206 290 q 417 104 321 104 m 264 965 l 204 1007 l 343 1163 l 490 1163 l 629 1007 l 569 965 l 419 1092 l 414 1092 l 264 965 z "},"Õ":{"ha":833,"x_min":63,"x_max":771,"o":"m 417 -17 q 274 15 339 -17 q 161 108 208 47 q 88 257 114 168 q 63 458 63 346 q 88 657 63 569 q 161 804 114 744 q 274 895 208 864 q 417 926 339 926 q 560 895 494 926 q 672 804 625 864 q 744 657 718 744 q 771 458 771 569 q 744 257 771 346 q 672 108 718 168 q 560 15 625 47 q 417 -17 494 -17 m 417 104 q 570 197 513 104 q 628 458 628 290 q 570 715 628 624 q 417 806 513 806 q 263 715 321 806 q 206 458 206 624 q 263 197 206 290 q 417 104 321 104 m 519 979 q 453 994 481 979 q 403 1026 425 1008 q 360 1058 381 1043 q 318 1072 340 1072 q 276 1051 293 1072 q 254 986 258 1031 l 164 993 q 208 1126 168 1081 q 314 1172 249 1172 q 381 1158 353 1172 q 431 1125 408 1143 q 473 1092 453 1107 q 515 1078 493 1078 q 579 1164 568 1078 l 669 1157 q 625 1024 665 1069 q 519 979 585 979 z "},"Ö":{"ha":833,"x_min":63,"x_max":771,"o":"m 417 -17 q 274 15 339 -17 q 161 108 208 47 q 88 257 114 168 q 63 458 63 346 q 88 657 63 569 q 161 804 114 744 q 274 895 208 864 q 417 926 339 926 q 560 895 494 926 q 672 804 625 864 q 744 657 718 744 q 771 458 771 569 q 744 257 771 346 q 672 108 718 168 q 560 15 625 47 q 417 -17 494 -17 m 417 104 q 570 197 513 104 q 628 458 628 290 q 570 715 628 624 q 417 806 513 806 q 263 715 321 806 q 206 458 206 624 q 263 197 206 290 q 417 104 321 104 m 283 988 q 226 1010 249 988 q 204 1067 204 1032 q 226 1123 204 1101 q 283 1144 249 1144 q 339 1123 317 1144 q 361 1067 361 1101 q 339 1010 361 1032 q 283 988 317 988 m 550 988 q 494 1010 517 988 q 472 1067 472 1032 q 494 1123 472 1101 q 550 1144 517 1144 q 607 1123 585 1144 q 629 1067 629 1101 q 607 1010 629 1032 q 550 988 585 988 z "},"Ō":{"ha":833,"x_min":63,"x_max":771,"o":"m 417 -17 q 274 15 339 -17 q 161 108 208 47 q 88 257 114 168 q 63 458 63 346 q 88 657 63 569 q 161 804 114 744 q 274 895 208 864 q 417 926 339 926 q 560 895 494 926 q 672 804 625 864 q 744 657 718 744 q 771 458 771 569 q 744 257 771 346 q 672 108 718 168 q 560 15 625 47 q 417 -17 494 -17 m 417 104 q 570 197 513 104 q 628 458 628 290 q 570 715 628 624 q 417 806 513 806 q 263 715 321 806 q 206 458 206 624 q 263 197 206 290 q 417 104 321 104 m 225 1015 l 225 1108 l 608 1108 l 608 1015 l 225 1015 z "},"Ő":{"ha":833,"x_min":63,"x_max":771,"o":"m 417 -17 q 274 15 339 -17 q 161 108 208 47 q 88 257 114 168 q 63 458 63 346 q 88 657 63 569 q 161 804 114 744 q 274 895 208 864 q 417 926 339 926 q 560 895 494 926 q 672 804 625 864 q 744 657 718 744 q 771 458 771 569 q 744 257 771 346 q 672 108 718 168 q 560 15 625 47 q 417 -17 494 -17 m 417 104 q 570 197 513 104 q 628 458 628 290 q 570 715 628 624 q 417 806 513 806 q 263 715 321 806 q 206 458 206 624 q 263 197 206 290 q 417 104 321 104 m 319 972 l 249 1007 l 379 1222 l 471 1169 l 319 972 m 551 972 l 481 1007 l 613 1222 l 703 1169 l 551 972 z "},"Ŏ":{"ha":833,"x_min":63,"x_max":771,"o":"m 417 -17 q 274 15 339 -17 q 161 108 208 47 q 88 257 114 168 q 63 458 63 346 q 88 657 63 569 q 161 804 114 744 q 274 895 208 864 q 417 926 339 926 q 560 895 494 926 q 672 804 625 864 q 744 657 718 744 q 771 458 771 569 q 744 257 771 346 q 672 108 718 168 q 560 15 625 47 q 417 -17 494 -17 m 417 104 q 570 197 513 104 q 628 458 628 290 q 570 715 628 624 q 417 806 513 806 q 263 715 321 806 q 206 458 206 624 q 263 197 206 290 q 417 104 321 104 m 417 976 q 267 1028 318 976 q 208 1158 217 1081 l 289 1172 q 328 1092 297 1124 q 417 1061 360 1061 q 505 1092 474 1061 q 544 1172 536 1124 l 625 1158 q 565 1028 617 1081 q 417 976 514 976 z "},"Ǒ":{"ha":833,"x_min":63,"x_max":771,"o":"m 417 -17 q 274 15 339 -17 q 161 108 208 47 q 88 257 114 168 q 63 458 63 346 q 88 657 63 569 q 161 804 114 744 q 274 895 208 864 q 417 926 339 926 q 560 895 494 926 q 672 804 625 864 q 744 657 718 744 q 771 458 771 569 q 744 257 771 346 q 672 108 718 168 q 560 15 625 47 q 417 -17 494 -17 m 417 104 q 570 197 513 104 q 628 458 628 290 q 570 715 628 624 q 417 806 513 806 q 263 715 321 806 q 206 458 206 624 q 263 197 206 290 q 417 104 321 104 m 343 979 l 204 1135 l 264 1176 l 414 1051 l 419 1051 l 569 1176 l 629 1135 l 490 979 l 343 979 z "},"Ǫ":{"ha":833,"x_min":63,"x_max":771,"o":"m 443 -314 q 338 -281 381 -314 q 294 -185 294 -249 q 325 -87 294 -129 q 392 -15 356 -46 q 249 31 311 -8 q 146 133 188 69 q 83 279 104 196 q 63 458 63 363 q 88 655 63 568 q 161 802 114 742 q 274 894 208 863 q 417 926 339 926 q 560 894 494 926 q 672 802 625 863 q 744 655 718 742 q 771 458 771 568 q 705 163 771 275 q 521 -1 639 50 q 429 -70 458 -28 q 400 -153 400 -112 q 422 -203 400 -187 q 472 -219 444 -219 q 508 -211 492 -219 q 538 -192 525 -203 l 575 -262 q 517 -299 550 -285 q 443 -314 483 -314 m 417 101 q 570 193 513 101 q 628 458 628 285 q 570 715 628 624 q 417 806 513 806 q 263 715 321 806 q 206 458 206 624 q 263 193 206 285 q 417 101 321 101 z "},"Ọ":{"ha":833,"x_min":63,"x_max":771,"o":"m 417 -17 q 274 15 339 -17 q 161 108 208 47 q 88 257 114 168 q 63 458 63 346 q 88 657 63 569 q 161 804 114 744 q 274 895 208 864 q 417 926 339 926 q 560 895 494 926 q 672 804 625 864 q 744 657 718 744 q 771 458 771 569 q 744 257 771 346 q 672 108 718 168 q 560 15 625 47 q 417 -17 494 -17 m 417 104 q 570 197 513 104 q 628 458 628 290 q 570 715 628 624 q 417 806 513 806 q 263 715 321 806 q 206 458 206 624 q 263 197 206 290 q 417 104 321 104 m 417 -308 q 343 -281 372 -308 q 314 -210 314 -254 q 343 -138 314 -165 q 417 -111 372 -111 q 490 -138 461 -111 q 519 -210 519 -165 q 490 -281 519 -254 q 417 -308 461 -308 z "},"Ỏ":{"ha":833,"x_min":63,"x_max":771,"o":"m 417 -17 q 274 15 339 -17 q 161 108 208 47 q 88 257 114 168 q 63 458 63 346 q 88 657 63 569 q 161 804 114 744 q 274 895 208 864 q 417 926 339 926 q 560 895 494 926 q 672 804 625 864 q 744 657 718 744 q 771 458 771 569 q 744 257 771 346 q 672 108 718 168 q 560 15 625 47 q 417 -17 494 -17 m 417 104 q 570 197 513 104 q 628 458 628 290 q 570 715 628 624 q 417 806 513 806 q 263 715 321 806 q 206 458 206 624 q 263 197 206 290 q 417 104 321 104 m 368 967 l 354 1028 q 408 1048 386 1035 q 429 1085 429 1061 q 315 1140 429 1135 l 329 1217 q 532 1100 532 1210 q 519 1045 532 1068 q 483 1006 506 1022 q 431 981 460 990 q 368 967 401 971 z "},"Ố":{"ha":833,"x_min":63,"x_max":771,"o":"m 417 -17 q 274 15 339 -17 q 161 108 208 47 q 88 257 114 168 q 63 458 63 346 q 88 657 63 569 q 161 804 114 744 q 274 895 208 864 q 417 926 339 926 q 560 895 494 926 q 672 804 625 864 q 744 657 718 744 q 771 458 771 569 q 744 257 771 346 q 672 108 718 168 q 560 15 625 47 q 417 -17 494 -17 m 417 104 q 570 197 513 104 q 628 458 628 290 q 570 715 628 624 q 417 806 513 806 q 263 715 321 806 q 206 458 206 624 q 263 197 206 290 q 417 104 321 104 m 285 965 l 229 1007 l 357 1136 l 476 1136 l 604 1007 l 549 965 l 419 1063 l 414 1063 l 285 965 m 596 1058 l 549 1110 l 685 1236 l 739 1174 l 596 1058 z "},"Ồ":{"ha":833,"x_min":63,"x_max":771,"o":"m 417 -17 q 274 15 339 -17 q 161 108 208 47 q 88 257 114 168 q 63 458 63 346 q 88 657 63 569 q 161 804 114 744 q 274 895 208 864 q 417 926 339 926 q 560 895 494 926 q 672 804 625 864 q 744 657 718 744 q 771 458 771 569 q 744 257 771 346 q 672 108 718 168 q 560 15 625 47 q 417 -17 494 -17 m 417 104 q 570 197 513 104 q 628 458 628 290 q 570 715 628 624 q 417 806 513 806 q 263 715 321 806 q 206 458 206 624 q 263 197 206 290 q 417 104 321 104 m 285 965 l 229 1007 l 357 1136 l 476 1136 l 604 1007 l 549 965 l 419 1063 l 414 1063 l 285 965 m 238 1058 l 108 1176 l 163 1236 l 285 1107 l 238 1058 z "},"Ổ":{"ha":833,"x_min":63,"x_max":771,"o":"m 417 -17 q 274 15 339 -17 q 161 108 208 47 q 88 257 114 168 q 63 458 63 346 q 88 657 63 569 q 161 804 114 744 q 274 895 208 864 q 417 926 339 926 q 560 895 494 926 q 672 804 625 864 q 744 657 718 744 q 771 458 771 569 q 744 257 771 346 q 672 108 718 168 q 560 15 625 47 q 417 -17 494 -17 m 417 104 q 570 197 513 104 q 628 458 628 290 q 570 715 628 624 q 417 806 513 806 q 263 715 321 806 q 206 458 206 624 q 263 197 206 290 q 417 104 321 104 m 285 965 l 229 1007 l 357 1136 l 476 1136 l 604 1007 l 549 965 l 419 1063 l 414 1063 l 285 965 m 585 1046 l 569 1099 q 610 1115 593 1104 q 626 1146 626 1125 q 605 1183 626 1171 q 531 1197 583 1194 l 544 1263 q 721 1158 721 1257 q 710 1111 721 1131 q 680 1078 699 1092 q 636 1058 661 1065 q 585 1046 611 1050 z "},"Ỗ":{"ha":833,"x_min":63,"x_max":771,"o":"m 417 -17 q 274 15 339 -17 q 161 108 208 47 q 88 257 114 168 q 63 458 63 346 q 88 657 63 569 q 161 804 114 744 q 274 895 208 864 q 417 926 339 926 q 560 895 494 926 q 672 804 625 864 q 744 657 718 744 q 771 458 771 569 q 744 257 771 346 q 672 108 718 168 q 560 15 625 47 q 417 -17 494 -17 m 417 104 q 570 197 513 104 q 628 458 628 290 q 570 715 628 624 q 417 806 513 806 q 263 715 321 806 q 206 458 206 624 q 263 197 206 290 q 417 104 321 104 m 285 965 l 229 1007 l 357 1129 l 476 1129 l 604 1007 l 549 965 l 419 1057 l 414 1057 l 285 965 m 506 1165 q 450 1176 474 1165 q 408 1199 426 1186 q 372 1222 389 1211 q 335 1232 354 1232 q 299 1217 311 1232 q 283 1171 288 1201 l 213 1179 q 242 1276 215 1240 q 328 1313 269 1313 q 383 1302 360 1313 q 426 1279 407 1292 q 462 1256 444 1267 q 499 1246 479 1246 q 534 1262 522 1246 q 550 1307 546 1278 l 621 1299 q 591 1202 618 1239 q 506 1165 564 1165 z "},"Ộ":{"ha":833,"x_min":63,"x_max":771,"o":"m 417 -17 q 274 15 339 -17 q 161 108 208 47 q 88 257 114 168 q 63 458 63 346 q 88 657 63 569 q 161 804 114 744 q 274 895 208 864 q 417 926 339 926 q 560 895 494 926 q 672 804 625 864 q 744 657 718 744 q 771 458 771 569 q 744 257 771 346 q 672 108 718 168 q 560 15 625 47 q 417 -17 494 -17 m 417 104 q 570 197 513 104 q 628 458 628 290 q 570 715 628 624 q 417 806 513 806 q 263 715 321 806 q 206 458 206 624 q 263 197 206 290 q 417 104 321 104 m 264 965 l 204 1007 l 343 1163 l 490 1163 l 629 1007 l 569 965 l 419 1092 l 414 1092 l 264 965 m 417 -308 q 343 -281 372 -308 q 314 -210 314 -254 q 343 -138 314 -165 q 417 -111 372 -111 q 490 -138 461 -111 q 519 -210 519 -165 q 490 -281 519 -254 q 417 -308 461 -308 z "},"Ơ":{"ha":833,"x_min":63,"x_max":793,"o":"m 417 -17 q 274 15 339 -17 q 161 108 208 47 q 88 257 114 168 q 63 458 63 346 q 88 657 63 569 q 161 804 114 744 q 274 895 208 864 q 417 926 339 926 q 574 889 503 926 q 674 1007 674 911 q 667 1051 674 1029 q 653 1090 661 1074 l 758 1135 q 783 1081 774 1111 q 793 1017 793 1051 q 754 899 793 943 q 644 835 715 854 q 738 681 704 775 q 771 458 771 586 q 744 257 771 346 q 672 108 718 168 q 560 15 625 47 q 417 -17 494 -17 m 417 104 q 570 197 513 104 q 628 458 628 290 q 570 715 628 624 q 417 806 513 806 q 263 715 321 806 q 206 458 206 624 q 263 197 206 290 q 417 104 321 104 z "},"Ớ":{"ha":833,"x_min":63,"x_max":793,"o":"m 417 -17 q 274 15 339 -17 q 161 108 208 47 q 88 257 114 168 q 63 458 63 346 q 88 657 63 569 q 161 804 114 744 q 274 895 208 864 q 417 926 339 926 q 574 889 503 926 q 674 1007 674 911 q 667 1051 674 1029 q 653 1090 661 1074 l 758 1135 q 783 1081 774 1111 q 793 1017 793 1051 q 754 899 793 943 q 644 835 715 854 q 738 681 704 775 q 771 458 771 586 q 744 257 771 346 q 672 108 718 168 q 560 15 625 47 q 417 -17 494 -17 m 417 104 q 570 197 513 104 q 628 458 628 290 q 570 715 628 624 q 417 806 513 806 q 263 715 321 806 q 206 458 206 624 q 263 197 206 290 q 417 104 321 104 m 374 963 l 313 1032 l 519 1214 l 596 1122 l 374 963 z "},"Ờ":{"ha":833,"x_min":63,"x_max":793,"o":"m 417 -17 q 274 15 339 -17 q 161 108 208 47 q 88 257 114 168 q 63 458 63 346 q 88 657 63 569 q 161 804 114 744 q 274 895 208 864 q 417 926 339 926 q 574 889 503 926 q 674 1007 674 911 q 667 1051 674 1029 q 653 1090 661 1074 l 758 1135 q 783 1081 774 1111 q 793 1017 793 1051 q 754 899 793 943 q 644 835 715 854 q 738 681 704 775 q 771 458 771 586 q 744 257 771 346 q 672 108 718 168 q 560 15 625 47 q 417 -17 494 -17 m 417 104 q 570 197 513 104 q 628 458 628 290 q 570 715 628 624 q 417 806 513 806 q 263 715 321 806 q 206 458 206 624 q 263 197 206 290 q 417 104 321 104 m 460 963 l 238 1122 l 314 1214 l 521 1032 l 460 963 z "},"Ở":{"ha":833,"x_min":63,"x_max":793,"o":"m 417 -17 q 274 15 339 -17 q 161 108 208 47 q 88 257 114 168 q 63 458 63 346 q 88 657 63 569 q 161 804 114 744 q 274 895 208 864 q 417 926 339 926 q 574 889 503 926 q 674 1007 674 911 q 667 1051 674 1029 q 653 1090 661 1074 l 758 1135 q 783 1081 774 1111 q 793 1017 793 1051 q 754 899 793 943 q 644 835 715 854 q 738 681 704 775 q 771 458 771 586 q 744 257 771 346 q 672 108 718 168 q 560 15 625 47 q 417 -17 494 -17 m 417 104 q 570 197 513 104 q 628 458 628 290 q 570 715 628 624 q 417 806 513 806 q 263 715 321 806 q 206 458 206 624 q 263 197 206 290 q 417 104 321 104 m 368 967 l 354 1028 q 408 1048 386 1035 q 429 1085 429 1061 q 315 1140 429 1135 l 329 1217 q 532 1100 532 1210 q 519 1045 532 1068 q 483 1006 506 1022 q 431 981 460 990 q 368 967 401 971 z "},"Ỡ":{"ha":833,"x_min":63,"x_max":793,"o":"m 417 -17 q 274 15 339 -17 q 161 108 208 47 q 88 257 114 168 q 63 458 63 346 q 88 657 63 569 q 161 804 114 744 q 274 895 208 864 q 417 926 339 926 q 574 889 503 926 q 674 1007 674 911 q 667 1051 674 1029 q 653 1090 661 1074 l 758 1135 q 783 1081 774 1111 q 793 1017 793 1051 q 754 899 793 943 q 644 835 715 854 q 738 681 704 775 q 771 458 771 586 q 744 257 771 346 q 672 108 718 168 q 560 15 625 47 q 417 -17 494 -17 m 417 104 q 570 197 513 104 q 628 458 628 290 q 570 715 628 624 q 417 806 513 806 q 263 715 321 806 q 206 458 206 624 q 263 197 206 290 q 417 104 321 104 m 493 979 q 426 994 454 979 q 376 1026 399 1008 q 334 1058 354 1043 q 292 1072 314 1072 q 249 1051 267 1072 q 228 986 232 1031 l 138 993 q 182 1126 142 1081 q 288 1172 222 1172 q 354 1158 326 1172 q 404 1125 382 1143 q 447 1092 426 1107 q 489 1078 467 1078 q 553 1164 542 1078 l 643 1157 q 599 1024 639 1069 q 493 979 558 979 z "},"Ợ":{"ha":833,"x_min":63,"x_max":793,"o":"m 417 -17 q 274 15 339 -17 q 161 108 208 47 q 88 257 114 168 q 63 458 63 346 q 88 657 63 569 q 161 804 114 744 q 274 895 208 864 q 417 926 339 926 q 574 889 503 926 q 674 1007 674 911 q 667 1051 674 1029 q 653 1090 661 1074 l 758 1135 q 783 1081 774 1111 q 793 1017 793 1051 q 754 899 793 943 q 644 835 715 854 q 738 681 704 775 q 771 458 771 586 q 744 257 771 346 q 672 108 718 168 q 560 15 625 47 q 417 -17 494 -17 m 417 104 q 570 197 513 104 q 628 458 628 290 q 570 715 628 624 q 417 806 513 806 q 263 715 321 806 q 206 458 206 624 q 263 197 206 290 q 417 104 321 104 m 417 -308 q 343 -281 372 -308 q 314 -210 314 -254 q 343 -138 314 -165 q 417 -111 372 -111 q 490 -138 461 -111 q 519 -210 519 -165 q 490 -281 519 -254 q 417 -308 461 -308 z "},"Ṓ":{"ha":833,"x_min":63,"x_max":771,"o":"m 417 -17 q 274 15 339 -17 q 161 108 208 47 q 88 257 114 168 q 63 458 63 346 q 88 657 63 569 q 161 804 114 744 q 274 895 208 864 q 417 926 339 926 q 560 895 494 926 q 672 804 625 864 q 744 657 718 744 q 771 458 771 569 q 744 257 771 346 q 672 108 718 168 q 560 15 625 47 q 417 -17 494 -17 m 417 104 q 570 197 513 104 q 628 458 628 290 q 570 715 628 624 q 417 806 513 806 q 263 715 321 806 q 206 458 206 624 q 263 197 206 290 q 417 104 321 104 m 225 1015 l 225 1108 l 608 1108 l 608 1015 l 225 1015 m 386 1151 l 338 1214 l 518 1358 l 579 1281 l 386 1151 z "},"Ø":{"ha":833,"x_min":44,"x_max":785,"o":"m 417 -17 q 206 61 292 -17 l 131 -49 l 44 7 l 138 143 q 82 281 101 201 q 63 458 63 360 q 88 657 63 569 q 161 804 114 744 q 274 895 208 864 q 417 926 339 926 q 626 851 539 926 l 699 957 l 785 901 l 694 771 q 751 634 731 713 q 771 458 771 556 q 744 257 771 346 q 672 108 718 168 q 560 15 625 47 q 417 -17 494 -17 m 206 458 q 229 276 206 354 l 550 742 q 417 806 497 806 q 263 715 321 806 q 206 458 206 624 m 417 104 q 570 197 513 104 q 628 458 628 290 q 604 639 628 561 l 282 171 q 417 104 336 104 z "},"Ǿ":{"ha":833,"x_min":44,"x_max":785,"o":"m 417 -17 q 206 61 292 -17 l 131 -49 l 44 7 l 138 143 q 82 281 101 201 q 63 458 63 360 q 88 657 63 569 q 161 804 114 744 q 274 895 208 864 q 417 926 339 926 q 626 851 539 926 l 699 957 l 785 901 l 694 771 q 751 634 731 713 q 771 458 771 556 q 744 257 771 346 q 672 108 718 168 q 560 15 625 47 q 417 -17 494 -17 m 206 458 q 229 276 206 354 l 550 742 q 417 806 497 806 q 263 715 321 806 q 206 458 206 624 m 417 104 q 570 197 513 104 q 628 458 628 290 q 604 639 628 561 l 282 171 q 417 104 336 104 m 374 963 l 313 1032 l 519 1214 l 596 1122 l 374 963 z "},"Œ":{"ha":833,"x_min":40,"x_max":822,"o":"m 408 0 q 256 30 324 0 q 140 118 188 60 q 66 262 92 176 q 40 458 40 347 q 67 654 40 569 q 142 796 93 739 q 259 882 190 853 q 414 911 328 911 l 808 911 l 808 794 l 551 794 l 551 533 l 747 533 l 747 417 l 551 417 l 551 117 l 822 117 l 822 0 l 408 0 m 397 113 l 426 113 l 426 797 l 397 797 q 183 458 183 797 q 237 199 183 286 q 397 113 290 113 z "},"Ŕ":{"ha":833,"x_min":128,"x_max":779,"o":"m 128 0 l 128 910 l 421 910 q 551 897 492 910 q 655 852 611 883 q 723 771 699 821 q 747 647 747 721 q 695 478 747 542 q 556 388 643 414 l 779 0 l 622 0 l 415 369 l 267 369 l 267 0 l 128 0 m 267 482 l 404 482 q 557 523 504 482 q 610 647 610 564 q 557 765 610 731 q 404 799 504 799 l 267 799 l 267 482 m 378 963 l 317 1032 l 524 1214 l 600 1122 l 378 963 z "},"Ř":{"ha":833,"x_min":128,"x_max":779,"o":"m 128 0 l 128 910 l 421 910 q 551 897 492 910 q 655 852 611 883 q 723 771 699 821 q 747 647 747 721 q 695 478 747 542 q 556 388 643 414 l 779 0 l 622 0 l 415 369 l 267 369 l 267 0 l 128 0 m 267 482 l 404 482 q 557 523 504 482 q 610 647 610 564 q 557 765 610 731 q 404 799 504 799 l 267 799 l 267 482 m 347 979 l 208 1135 l 268 1176 l 418 1051 l 424 1051 l 574 1176 l 633 1135 l 494 979 l 347 979 z "},"Ṙ":{"ha":833,"x_min":128,"x_max":779,"o":"m 128 0 l 128 910 l 421 910 q 551 897 492 910 q 655 852 611 883 q 723 771 699 821 q 747 647 747 721 q 695 478 747 542 q 556 388 643 414 l 779 0 l 622 0 l 415 369 l 267 369 l 267 0 l 128 0 m 267 482 l 404 482 q 557 523 504 482 q 610 647 610 564 q 557 765 610 731 q 404 799 504 799 l 267 799 l 267 482 m 421 986 q 354 1011 381 986 q 328 1076 328 1036 q 354 1140 328 1115 q 421 1164 381 1164 q 488 1140 461 1164 q 514 1076 514 1115 q 488 1011 514 1036 q 421 986 461 986 z "},"Ŗ":{"ha":833,"x_min":128,"x_max":779,"o":"m 128 0 l 128 910 l 421 910 q 551 897 492 910 q 655 852 611 883 q 723 771 699 821 q 747 647 747 721 q 695 478 747 542 q 556 388 643 414 l 779 0 l 622 0 l 415 369 l 267 369 l 267 0 l 128 0 m 267 482 l 404 482 q 557 523 504 482 q 610 647 610 564 q 557 765 610 731 q 404 799 504 799 l 267 799 l 267 482 m 318 -319 l 307 -256 q 424 -235 393 -250 q 456 -193 456 -221 q 360 -137 456 -146 l 388 -78 q 522 -114 485 -89 q 558 -187 558 -139 q 497 -283 558 -251 q 318 -319 435 -314 z "},"Ṛ":{"ha":833,"x_min":128,"x_max":779,"o":"m 128 0 l 128 910 l 421 910 q 551 897 492 910 q 655 852 611 883 q 723 771 699 821 q 747 647 747 721 q 695 478 747 542 q 556 388 643 414 l 779 0 l 622 0 l 415 369 l 267 369 l 267 0 l 128 0 m 267 482 l 404 482 q 557 523 504 482 q 610 647 610 564 q 557 765 610 731 q 404 799 504 799 l 267 799 l 267 482 m 444 -308 q 371 -281 400 -308 q 342 -210 342 -254 q 371 -138 342 -165 q 444 -111 400 -111 q 518 -138 489 -111 q 547 -210 547 -165 q 518 -281 547 -254 q 444 -308 489 -308 z "},"Ṝ":{"ha":833,"x_min":128,"x_max":779,"o":"m 128 0 l 128 910 l 421 910 q 551 897 492 910 q 655 852 611 883 q 723 771 699 821 q 747 647 747 721 q 695 478 747 542 q 556 388 643 414 l 779 0 l 622 0 l 415 369 l 267 369 l 267 0 l 128 0 m 267 482 l 404 482 q 557 523 504 482 q 610 647 610 564 q 557 765 610 731 q 404 799 504 799 l 267 799 l 267 482 m 229 1015 l 229 1108 l 613 1108 l 613 1015 l 229 1015 m 444 -308 q 371 -281 400 -308 q 342 -210 342 -254 q 371 -138 342 -165 q 444 -111 400 -111 q 518 -138 489 -111 q 547 -210 547 -165 q 518 -281 547 -254 q 444 -308 489 -308 z "},"Ṟ":{"ha":833,"x_min":128,"x_max":779,"o":"m 128 0 l 128 910 l 421 910 q 551 897 492 910 q 655 852 611 883 q 723 771 699 821 q 747 647 747 721 q 695 478 747 542 q 556 388 643 414 l 779 0 l 622 0 l 415 369 l 267 369 l 267 0 l 128 0 m 267 482 l 404 482 q 557 523 504 482 q 610 647 610 564 q 557 765 610 731 q 404 799 504 799 l 267 799 l 267 482 m 254 -242 l 254 -149 l 635 -149 l 635 -242 l 254 -242 z "},"Ś":{"ha":833,"x_min":88,"x_max":751,"o":"m 421 -17 q 238 19 322 -17 q 88 118 153 54 l 168 213 q 288 134 221 164 q 429 104 354 104 q 563 140 517 104 q 610 232 610 175 q 598 288 610 265 q 565 326 586 310 q 515 356 544 343 q 451 383 486 369 l 324 440 q 254 474 289 454 q 192 523 219 494 q 147 590 164 551 q 129 678 129 628 q 151 776 129 731 q 215 856 174 822 q 312 908 256 889 q 436 926 368 926 q 594 896 521 926 q 721 813 668 865 l 649 724 q 552 784 604 763 q 429 806 500 806 q 313 774 357 806 q 269 686 269 742 q 283 635 269 657 q 318 598 296 614 q 369 570 340 582 q 428 546 397 558 l 551 492 q 631 453 594 475 q 694 403 667 432 q 736 337 721 375 q 751 249 751 299 q 729 146 751 194 q 664 61 707 97 q 560 4 621 25 q 421 -17 499 -17 m 397 963 l 336 1032 l 543 1214 l 619 1122 l 397 963 z "},"Ŝ":{"ha":833,"x_min":88,"x_max":751,"o":"m 421 -17 q 238 19 322 -17 q 88 118 153 54 l 168 213 q 288 134 221 164 q 429 104 354 104 q 563 140 517 104 q 610 232 610 175 q 598 288 610 265 q 565 326 586 310 q 515 356 544 343 q 451 383 486 369 l 324 440 q 254 474 289 454 q 192 523 219 494 q 147 590 164 551 q 129 678 129 628 q 151 776 129 731 q 215 856 174 822 q 312 908 256 889 q 436 926 368 926 q 594 896 521 926 q 721 813 668 865 l 649 724 q 552 784 604 763 q 429 806 500 806 q 313 774 357 806 q 269 686 269 742 q 283 635 269 657 q 318 598 296 614 q 369 570 340 582 q 428 546 397 558 l 551 492 q 631 453 594 475 q 694 403 667 432 q 736 337 721 375 q 751 249 751 299 q 729 146 751 194 q 664 61 707 97 q 560 4 621 25 q 421 -17 499 -17 m 288 965 l 228 1007 l 367 1163 l 514 1163 l 653 1007 l 593 965 l 443 1092 l 438 1092 l 288 965 z "},"Š":{"ha":833,"x_min":88,"x_max":751,"o":"m 421 -17 q 238 19 322 -17 q 88 118 153 54 l 168 213 q 288 134 221 164 q 429 104 354 104 q 563 140 517 104 q 610 232 610 175 q 598 288 610 265 q 565 326 586 310 q 515 356 544 343 q 451 383 486 369 l 324 440 q 254 474 289 454 q 192 523 219 494 q 147 590 164 551 q 129 678 129 628 q 151 776 129 731 q 215 856 174 822 q 312 908 256 889 q 436 926 368 926 q 594 896 521 926 q 721 813 668 865 l 649 724 q 552 784 604 763 q 429 806 500 806 q 313 774 357 806 q 269 686 269 742 q 283 635 269 657 q 318 598 296 614 q 369 570 340 582 q 428 546 397 558 l 551 492 q 631 453 594 475 q 694 403 667 432 q 736 337 721 375 q 751 249 751 299 q 729 146 751 194 q 664 61 707 97 q 560 4 621 25 q 421 -17 499 -17 m 367 979 l 228 1135 l 288 1176 l 438 1051 l 443 1051 l 593 1176 l 653 1135 l 514 979 l 367 979 z "},"Ş":{"ha":833,"x_min":88,"x_max":751,"o":"m 421 -17 q 238 19 322 -17 q 88 118 153 54 l 168 213 q 288 134 221 164 q 429 104 354 104 q 563 140 517 104 q 610 232 610 175 q 598 288 610 265 q 565 326 586 310 q 515 356 544 343 q 451 383 486 369 l 324 440 q 254 474 289 454 q 192 523 219 494 q 147 590 164 551 q 129 678 129 628 q 151 776 129 731 q 215 856 174 822 q 312 908 256 889 q 436 926 368 926 q 594 896 521 926 q 721 813 668 865 l 649 724 q 552 784 604 763 q 429 806 500 806 q 313 774 357 806 q 269 686 269 742 q 283 635 269 657 q 318 598 296 614 q 369 570 340 582 q 428 546 397 558 l 551 492 q 631 453 594 475 q 694 403 667 432 q 736 337 721 375 q 751 249 751 299 q 729 146 751 194 q 664 61 707 97 q 560 4 621 25 q 421 -17 499 -17 m 311 -319 l 300 -256 q 417 -235 386 -250 q 449 -189 449 -219 q 426 -149 449 -164 q 342 -125 403 -133 l 400 13 l 486 13 l 450 -87 q 525 -122 499 -99 q 551 -187 551 -144 q 490 -283 551 -251 q 311 -319 428 -314 z "},"Ș":{"ha":833,"x_min":88,"x_max":751,"o":"m 421 -17 q 238 19 322 -17 q 88 118 153 54 l 168 213 q 288 134 221 164 q 429 104 354 104 q 563 140 517 104 q 610 232 610 175 q 598 288 610 265 q 565 326 586 310 q 515 356 544 343 q 451 383 486 369 l 324 440 q 254 474 289 454 q 192 523 219 494 q 147 590 164 551 q 129 678 129 628 q 151 776 129 731 q 215 856 174 822 q 312 908 256 889 q 436 926 368 926 q 594 896 521 926 q 721 813 668 865 l 649 724 q 552 784 604 763 q 429 806 500 806 q 313 774 357 806 q 269 686 269 742 q 283 635 269 657 q 318 598 296 614 q 369 570 340 582 q 428 546 397 558 l 551 492 q 631 453 594 475 q 694 403 667 432 q 736 337 721 375 q 751 249 751 299 q 729 146 751 194 q 664 61 707 97 q 560 4 621 25 q 421 -17 499 -17 m 306 -319 l 294 -256 q 412 -235 381 -250 q 443 -193 443 -221 q 347 -137 443 -146 l 375 -78 q 509 -114 472 -89 q 546 -187 546 -139 q 484 -283 546 -251 q 306 -319 422 -314 z "},"Ṡ":{"ha":833,"x_min":88,"x_max":751,"o":"m 421 -17 q 238 19 322 -17 q 88 118 153 54 l 168 213 q 288 134 221 164 q 429 104 354 104 q 563 140 517 104 q 610 232 610 175 q 598 288 610 265 q 565 326 586 310 q 515 356 544 343 q 451 383 486 369 l 324 440 q 254 474 289 454 q 192 523 219 494 q 147 590 164 551 q 129 678 129 628 q 151 776 129 731 q 215 856 174 822 q 312 908 256 889 q 436 926 368 926 q 594 896 521 926 q 721 813 668 865 l 649 724 q 552 784 604 763 q 429 806 500 806 q 313 774 357 806 q 269 686 269 742 q 283 635 269 657 q 318 598 296 614 q 369 570 340 582 q 428 546 397 558 l 551 492 q 631 453 594 475 q 694 403 667 432 q 736 337 721 375 q 751 249 751 299 q 729 146 751 194 q 664 61 707 97 q 560 4 621 25 q 421 -17 499 -17 m 440 986 q 374 1011 400 986 q 347 1076 347 1036 q 374 1140 347 1115 q 440 1164 400 1164 q 507 1140 481 1164 q 533 1076 533 1115 q 507 1011 533 1036 q 440 986 481 986 z "},"Ṣ":{"ha":833,"x_min":88,"x_max":751,"o":"m 421 -17 q 238 19 322 -17 q 88 118 153 54 l 168 213 q 288 134 221 164 q 429 104 354 104 q 563 140 517 104 q 610 232 610 175 q 598 288 610 265 q 565 326 586 310 q 515 356 544 343 q 451 383 486 369 l 324 440 q 254 474 289 454 q 192 523 219 494 q 147 590 164 551 q 129 678 129 628 q 151 776 129 731 q 215 856 174 822 q 312 908 256 889 q 436 926 368 926 q 594 896 521 926 q 721 813 668 865 l 649 724 q 552 784 604 763 q 429 806 500 806 q 313 774 357 806 q 269 686 269 742 q 283 635 269 657 q 318 598 296 614 q 369 570 340 582 q 428 546 397 558 l 551 492 q 631 453 594 475 q 694 403 667 432 q 736 337 721 375 q 751 249 751 299 q 729 146 751 194 q 664 61 707 97 q 560 4 621 25 q 421 -17 499 -17 m 432 -308 q 358 -281 388 -308 q 329 -210 329 -254 q 358 -138 329 -165 q 432 -111 388 -111 q 506 -138 476 -111 q 535 -210 535 -165 q 506 -281 535 -254 q 432 -308 476 -308 z "},"ẞ":{"ha":833,"x_min":103,"x_max":794,"o":"m 543 -17 q 416 10 474 -17 q 322 81 358 36 l 385 168 q 450 115 417 132 q 528 97 483 97 q 617 135 585 97 q 650 233 650 174 q 640 292 650 264 q 604 343 629 319 q 537 386 579 367 q 431 418 494 406 l 421 504 l 578 708 q 517 788 557 763 q 422 813 478 813 q 291 754 339 813 q 243 574 243 696 l 243 0 l 103 0 l 103 597 q 124 733 103 672 q 187 836 146 793 q 287 903 228 879 q 422 926 346 926 q 615 865 542 926 q 721 701 689 804 l 567 504 q 744 392 693 458 q 794 233 794 326 q 778 135 794 181 q 729 56 761 89 q 650 3 697 22 q 543 -17 603 -17 z "},"Ť":{"ha":833,"x_min":54,"x_max":779,"o":"m 347 0 l 347 793 l 54 793 l 54 910 l 779 910 l 779 793 l 486 793 l 486 0 l 347 0 m 343 979 l 204 1135 l 264 1176 l 414 1051 l 419 1051 l 569 1176 l 629 1135 l 490 979 l 343 979 z "},"Ţ":{"ha":833,"x_min":54,"x_max":779,"o":"m 347 0 l 347 793 l 54 793 l 54 910 l 779 910 l 779 793 l 486 793 l 486 0 l 347 0 m 290 -319 l 279 -256 q 397 -235 365 -250 q 428 -189 428 -219 q 405 -149 428 -164 q 321 -125 382 -133 l 379 13 l 465 13 l 429 -87 q 504 -122 478 -99 q 531 -187 531 -144 q 469 -283 531 -251 q 290 -319 407 -314 z "},"Ț":{"ha":833,"x_min":54,"x_max":779,"o":"m 347 0 l 347 793 l 54 793 l 54 910 l 779 910 l 779 793 l 486 793 l 486 0 l 347 0 m 290 -319 l 279 -256 q 397 -235 365 -250 q 428 -193 428 -221 q 332 -137 428 -146 l 360 -78 q 494 -114 457 -89 q 531 -187 531 -139 q 469 -283 531 -251 q 290 -319 407 -314 z "},"Ṭ":{"ha":833,"x_min":54,"x_max":779,"o":"m 347 0 l 347 793 l 54 793 l 54 910 l 779 910 l 779 793 l 486 793 l 486 0 l 347 0 m 417 -308 q 343 -281 372 -308 q 314 -210 314 -254 q 343 -138 314 -165 q 417 -111 372 -111 q 490 -138 461 -111 q 519 -210 519 -165 q 490 -281 519 -254 q 417 -308 461 -308 z "},"Ṯ":{"ha":833,"x_min":54,"x_max":779,"o":"m 347 0 l 347 793 l 54 793 l 54 910 l 779 910 l 779 793 l 486 793 l 486 0 l 347 0 m 226 -242 l 226 -149 l 607 -149 l 607 -242 l 226 -242 z "},"Ŧ":{"ha":833,"x_min":54,"x_max":779,"o":"m 153 417 l 153 501 l 279 507 l 347 507 l 347 793 l 54 793 l 54 910 l 779 910 l 779 793 l 486 793 l 486 507 l 681 507 l 681 417 l 486 417 l 486 0 l 347 0 l 347 417 l 153 417 z "},"Ù":{"ha":833,"x_min":104,"x_max":729,"o":"m 418 -17 q 290 4 347 -17 q 190 69 232 25 q 126 181 149 113 q 104 346 104 250 l 104 910 l 244 910 l 244 338 q 292 158 244 213 q 418 104 340 104 q 545 158 496 104 q 594 338 594 213 l 594 910 l 729 910 l 729 346 q 707 181 729 250 q 644 69 685 113 q 547 4 604 25 q 418 -17 489 -17 m 460 963 l 238 1122 l 314 1214 l 521 1032 l 460 963 z "},"Ú":{"ha":833,"x_min":104,"x_max":729,"o":"m 418 -17 q 290 4 347 -17 q 190 69 232 25 q 126 181 149 113 q 104 346 104 250 l 104 910 l 244 910 l 244 338 q 292 158 244 213 q 418 104 340 104 q 545 158 496 104 q 594 338 594 213 l 594 910 l 729 910 l 729 346 q 707 181 729 250 q 644 69 685 113 q 547 4 604 25 q 418 -17 489 -17 m 374 963 l 313 1032 l 519 1214 l 596 1122 l 374 963 z "},"Û":{"ha":833,"x_min":104,"x_max":729,"o":"m 418 -17 q 290 4 347 -17 q 190 69 232 25 q 126 181 149 113 q 104 346 104 250 l 104 910 l 244 910 l 244 338 q 292 158 244 213 q 418 104 340 104 q 545 158 496 104 q 594 338 594 213 l 594 910 l 729 910 l 729 346 q 707 181 729 250 q 644 69 685 113 q 547 4 604 25 q 418 -17 489 -17 m 264 965 l 204 1007 l 343 1163 l 490 1163 l 629 1007 l 569 965 l 419 1092 l 414 1092 l 264 965 z "},"Ũ":{"ha":833,"x_min":104,"x_max":729,"o":"m 418 -17 q 290 4 347 -17 q 190 69 232 25 q 126 181 149 113 q 104 346 104 250 l 104 910 l 244 910 l 244 338 q 292 158 244 213 q 418 104 340 104 q 545 158 496 104 q 594 338 594 213 l 594 910 l 729 910 l 729 346 q 707 181 729 250 q 644 69 685 113 q 547 4 604 25 q 418 -17 489 -17 m 519 979 q 453 994 481 979 q 403 1026 425 1008 q 360 1058 381 1043 q 318 1072 340 1072 q 276 1051 293 1072 q 254 986 258 1031 l 164 993 q 208 1126 168 1081 q 314 1172 249 1172 q 381 1158 353 1172 q 431 1125 408 1143 q 473 1092 453 1107 q 515 1078 493 1078 q 579 1164 568 1078 l 669 1157 q 625 1024 665 1069 q 519 979 585 979 z "},"Ü":{"ha":833,"x_min":104,"x_max":729,"o":"m 418 -17 q 290 4 347 -17 q 190 69 232 25 q 126 181 149 113 q 104 346 104 250 l 104 910 l 244 910 l 244 338 q 292 158 244 213 q 418 104 340 104 q 545 158 496 104 q 594 338 594 213 l 594 910 l 729 910 l 729 346 q 707 181 729 250 q 644 69 685 113 q 547 4 604 25 q 418 -17 489 -17 m 283 988 q 226 1010 249 988 q 204 1067 204 1032 q 226 1123 204 1101 q 283 1144 249 1144 q 339 1123 317 1144 q 361 1067 361 1101 q 339 1010 361 1032 q 283 988 317 988 m 550 988 q 494 1010 517 988 q 472 1067 472 1032 q 494 1123 472 1101 q 550 1144 517 1144 q 607 1123 585 1144 q 629 1067 629 1101 q 607 1010 629 1032 q 550 988 585 988 z "},"Ū":{"ha":833,"x_min":104,"x_max":729,"o":"m 418 -17 q 290 4 347 -17 q 190 69 232 25 q 126 181 149 113 q 104 346 104 250 l 104 910 l 244 910 l 244 338 q 292 158 244 213 q 418 104 340 104 q 545 158 496 104 q 594 338 594 213 l 594 910 l 729 910 l 729 346 q 707 181 729 250 q 644 69 685 113 q 547 4 604 25 q 418 -17 489 -17 m 225 1015 l 225 1108 l 608 1108 l 608 1015 l 225 1015 z "},"Ŭ":{"ha":833,"x_min":104,"x_max":729,"o":"m 418 -17 q 290 4 347 -17 q 190 69 232 25 q 126 181 149 113 q 104 346 104 250 l 104 910 l 244 910 l 244 338 q 292 158 244 213 q 418 104 340 104 q 545 158 496 104 q 594 338 594 213 l 594 910 l 729 910 l 729 346 q 707 181 729 250 q 644 69 685 113 q 547 4 604 25 q 418 -17 489 -17 m 417 976 q 267 1028 318 976 q 208 1158 217 1081 l 289 1172 q 328 1092 297 1124 q 417 1061 360 1061 q 505 1092 474 1061 q 544 1172 536 1124 l 625 1158 q 565 1028 617 1081 q 417 976 514 976 z "},"Ů":{"ha":833,"x_min":104,"x_max":729,"o":"m 418 -17 q 290 4 347 -17 q 190 69 232 25 q 126 181 149 113 q 104 346 104 250 l 104 910 l 244 910 l 244 338 q 292 158 244 213 q 418 104 340 104 q 545 158 496 104 q 594 338 594 213 l 594 910 l 729 910 l 729 346 q 707 181 729 250 q 644 69 685 113 q 547 4 604 25 q 418 -17 489 -17 m 417 969 q 315 1005 354 969 q 276 1099 276 1040 q 315 1192 276 1157 q 417 1228 354 1228 q 517 1192 478 1228 q 557 1099 557 1157 q 517 1005 557 1040 q 417 969 478 969 m 417 1026 q 464 1045 444 1026 q 483 1099 483 1064 q 464 1151 483 1132 q 417 1169 444 1169 q 369 1151 389 1169 q 349 1099 349 1132 q 369 1045 349 1064 q 417 1026 389 1026 z "},"Ű":{"ha":833,"x_min":104,"x_max":729,"o":"m 418 -17 q 290 4 347 -17 q 190 69 232 25 q 126 181 149 113 q 104 346 104 250 l 104 910 l 244 910 l 244 338 q 292 158 244 213 q 418 104 340 104 q 545 158 496 104 q 594 338 594 213 l 594 910 l 729 910 l 729 346 q 707 181 729 250 q 644 69 685 113 q 547 4 604 25 q 418 -17 489 -17 m 319 972 l 249 1007 l 379 1222 l 471 1169 l 319 972 m 551 972 l 481 1007 l 613 1222 l 703 1169 l 551 972 z "},"Ǔ":{"ha":833,"x_min":104,"x_max":729,"o":"m 418 -17 q 290 4 347 -17 q 190 69 232 25 q 126 181 149 113 q 104 346 104 250 l 104 910 l 244 910 l 244 338 q 292 158 244 213 q 418 104 340 104 q 545 158 496 104 q 594 338 594 213 l 594 910 l 729 910 l 729 346 q 707 181 729 250 q 644 69 685 113 q 547 4 604 25 q 418 -17 489 -17 m 343 979 l 204 1135 l 264 1176 l 414 1051 l 419 1051 l 569 1176 l 629 1135 l 490 979 l 343 979 z "},"Ų":{"ha":833,"x_min":104,"x_max":729,"o":"m 443 -314 q 338 -281 381 -314 q 294 -185 294 -249 q 304 -128 294 -154 q 328 -81 314 -103 q 358 -43 342 -60 q 388 -15 375 -26 q 180 82 256 -7 q 104 346 104 171 l 104 910 l 244 910 l 244 338 q 292 158 244 213 q 417 104 339 104 q 544 158 494 104 q 594 338 594 213 l 594 910 l 729 910 l 729 346 q 682 122 729 203 q 540 3 635 42 q 429 -74 458 -33 q 400 -153 400 -114 q 422 -203 400 -187 q 472 -219 444 -219 q 508 -211 492 -219 q 538 -192 525 -203 l 575 -262 q 517 -299 550 -285 q 443 -314 483 -314 z "},"Ǖ":{"ha":833,"x_min":104,"x_max":729,"o":"m 418 -17 q 290 4 347 -17 q 190 69 232 25 q 126 181 149 113 q 104 346 104 250 l 104 910 l 244 910 l 244 338 q 292 158 244 213 q 418 104 340 104 q 545 158 496 104 q 594 338 594 213 l 594 910 l 729 910 l 729 346 q 707 181 729 250 q 644 69 685 113 q 547 4 604 25 q 418 -17 489 -17 m 271 988 q 222 1007 242 988 q 203 1057 203 1026 q 222 1106 203 1088 q 271 1125 242 1125 q 321 1106 301 1125 q 340 1057 340 1088 q 321 1007 340 1026 q 271 988 301 988 m 563 988 q 513 1007 532 988 q 493 1057 493 1026 q 513 1106 493 1088 q 563 1125 532 1125 q 611 1106 592 1125 q 631 1057 631 1088 q 611 1007 631 1026 q 563 988 592 988 m 225 1200 l 225 1272 l 608 1272 l 608 1200 l 225 1200 z "},"Ǘ":{"ha":833,"x_min":104,"x_max":729,"o":"m 418 -17 q 290 4 347 -17 q 190 69 232 25 q 126 181 149 113 q 104 346 104 250 l 104 910 l 244 910 l 244 338 q 292 158 244 213 q 418 104 340 104 q 545 158 496 104 q 594 338 594 213 l 594 910 l 729 910 l 729 346 q 707 181 729 250 q 644 69 685 113 q 547 4 604 25 q 418 -17 489 -17 m 271 988 q 222 1007 242 988 q 203 1057 203 1026 q 222 1106 203 1088 q 271 1125 242 1125 q 321 1106 301 1125 q 340 1057 340 1088 q 321 1007 340 1026 q 271 988 301 988 m 563 988 q 513 1007 532 988 q 493 1057 493 1026 q 513 1106 493 1088 q 563 1125 532 1125 q 611 1106 592 1125 q 631 1057 631 1088 q 611 1007 631 1026 q 563 988 592 988 m 419 1144 l 358 1185 l 490 1360 l 576 1301 l 419 1144 z "},"Ǚ":{"ha":833,"x_min":104,"x_max":729,"o":"m 418 -17 q 290 4 347 -17 q 190 69 232 25 q 126 181 149 113 q 104 346 104 250 l 104 910 l 244 910 l 244 338 q 292 158 244 213 q 418 104 340 104 q 545 158 496 104 q 594 338 594 213 l 594 910 l 729 910 l 729 346 q 707 181 729 250 q 644 69 685 113 q 547 4 604 25 q 418 -17 489 -17 m 271 988 q 222 1007 242 988 q 203 1057 203 1026 q 222 1106 203 1088 q 271 1125 242 1125 q 321 1106 301 1125 q 340 1057 340 1088 q 321 1007 340 1026 q 271 988 301 988 m 563 988 q 513 1007 532 988 q 493 1057 493 1026 q 513 1106 493 1088 q 563 1125 532 1125 q 611 1106 592 1125 q 631 1057 631 1088 q 611 1007 631 1026 q 563 988 592 988 m 357 1171 l 222 1306 l 278 1349 l 414 1244 l 419 1244 l 556 1349 l 611 1306 l 476 1171 l 357 1171 z "},"Ǜ":{"ha":833,"x_min":104,"x_max":729,"o":"m 418 -17 q 290 4 347 -17 q 190 69 232 25 q 126 181 149 113 q 104 346 104 250 l 104 910 l 244 910 l 244 338 q 292 158 244 213 q 418 104 340 104 q 545 158 496 104 q 594 338 594 213 l 594 910 l 729 910 l 729 346 q 707 181 729 250 q 644 69 685 113 q 547 4 604 25 q 418 -17 489 -17 m 271 988 q 222 1007 242 988 q 203 1057 203 1026 q 222 1106 203 1088 q 271 1125 242 1125 q 321 1106 301 1125 q 340 1057 340 1088 q 321 1007 340 1026 q 271 988 301 988 m 563 988 q 513 1007 532 988 q 493 1057 493 1026 q 513 1106 493 1088 q 563 1125 532 1125 q 611 1106 592 1125 q 631 1057 631 1088 q 611 1007 631 1026 q 563 988 592 988 m 414 1144 l 257 1301 l 343 1360 l 475 1185 l 414 1144 z "},"Ụ":{"ha":833,"x_min":104,"x_max":729,"o":"m 418 -17 q 290 4 347 -17 q 190 69 232 25 q 126 181 149 113 q 104 346 104 250 l 104 910 l 244 910 l 244 338 q 292 158 244 213 q 418 104 340 104 q 545 158 496 104 q 594 338 594 213 l 594 910 l 729 910 l 729 346 q 707 181 729 250 q 644 69 685 113 q 547 4 604 25 q 418 -17 489 -17 m 417 -308 q 343 -281 372 -308 q 314 -210 314 -254 q 343 -138 314 -165 q 417 -111 372 -111 q 490 -138 461 -111 q 519 -210 519 -165 q 490 -281 519 -254 q 417 -308 461 -308 z "},"Ủ":{"ha":833,"x_min":104,"x_max":729,"o":"m 418 -17 q 290 4 347 -17 q 190 69 232 25 q 126 181 149 113 q 104 346 104 250 l 104 910 l 244 910 l 244 338 q 292 158 244 213 q 418 104 340 104 q 545 158 496 104 q 594 338 594 213 l 594 910 l 729 910 l 729 346 q 707 181 729 250 q 644 69 685 113 q 547 4 604 25 q 418 -17 489 -17 m 368 967 l 354 1028 q 408 1048 386 1035 q 429 1085 429 1061 q 315 1140 429 1135 l 329 1217 q 532 1100 532 1210 q 519 1045 532 1068 q 483 1006 506 1022 q 431 981 460 990 q 368 967 401 971 z "},"Ư":{"ha":833,"x_min":104,"x_max":886,"o":"m 418 -17 q 290 4 347 -17 q 190 69 232 25 q 126 181 149 113 q 104 346 104 250 l 104 910 l 244 910 l 244 338 q 292 158 244 213 q 418 104 340 104 q 545 158 496 104 q 594 338 594 213 l 594 910 l 653 910 q 736 938 706 915 q 767 1021 767 961 q 760 1066 767 1044 q 746 1104 754 1088 l 851 1150 q 876 1096 867 1126 q 886 1031 886 1065 q 874 960 886 990 q 842 909 863 931 q 792 874 821 888 q 729 853 763 861 l 729 346 q 707 181 729 250 q 644 69 685 113 q 547 4 604 25 q 418 -17 489 -17 z "},"Ứ":{"ha":833,"x_min":104,"x_max":886,"o":"m 418 -17 q 290 4 347 -17 q 190 69 232 25 q 126 181 149 113 q 104 346 104 250 l 104 910 l 244 910 l 244 338 q 292 158 244 213 q 418 104 340 104 q 545 158 496 104 q 594 338 594 213 l 594 910 l 653 910 q 736 938 706 915 q 767 1021 767 961 q 760 1066 767 1044 q 746 1104 754 1088 l 851 1150 q 876 1096 867 1126 q 886 1031 886 1065 q 874 960 886 990 q 842 909 863 931 q 792 874 821 888 q 729 853 763 861 l 729 346 q 707 181 729 250 q 644 69 685 113 q 547 4 604 25 q 418 -17 489 -17 m 374 963 l 313 1032 l 519 1214 l 596 1122 l 374 963 z "},"Ừ":{"ha":833,"x_min":104,"x_max":886,"o":"m 418 -17 q 290 4 347 -17 q 190 69 232 25 q 126 181 149 113 q 104 346 104 250 l 104 910 l 244 910 l 244 338 q 292 158 244 213 q 418 104 340 104 q 545 158 496 104 q 594 338 594 213 l 594 910 l 653 910 q 736 938 706 915 q 767 1021 767 961 q 760 1066 767 1044 q 746 1104 754 1088 l 851 1150 q 876 1096 867 1126 q 886 1031 886 1065 q 874 960 886 990 q 842 909 863 931 q 792 874 821 888 q 729 853 763 861 l 729 346 q 707 181 729 250 q 644 69 685 113 q 547 4 604 25 q 418 -17 489 -17 m 460 963 l 238 1122 l 314 1214 l 521 1032 l 460 963 z "},"Ử":{"ha":833,"x_min":104,"x_max":886,"o":"m 418 -17 q 290 4 347 -17 q 190 69 232 25 q 126 181 149 113 q 104 346 104 250 l 104 910 l 244 910 l 244 338 q 292 158 244 213 q 418 104 340 104 q 545 158 496 104 q 594 338 594 213 l 594 910 l 653 910 q 736 938 706 915 q 767 1021 767 961 q 760 1066 767 1044 q 746 1104 754 1088 l 851 1150 q 876 1096 867 1126 q 886 1031 886 1065 q 874 960 886 990 q 842 909 863 931 q 792 874 821 888 q 729 853 763 861 l 729 346 q 707 181 729 250 q 644 69 685 113 q 547 4 604 25 q 418 -17 489 -17 m 368 967 l 354 1028 q 408 1048 386 1035 q 429 1085 429 1061 q 315 1140 429 1135 l 329 1217 q 532 1100 532 1210 q 519 1045 532 1068 q 483 1006 506 1022 q 431 981 460 990 q 368 967 401 971 z "},"Ữ":{"ha":833,"x_min":104,"x_max":886,"o":"m 418 -17 q 290 4 347 -17 q 190 69 232 25 q 126 181 149 113 q 104 346 104 250 l 104 910 l 244 910 l 244 338 q 292 158 244 213 q 418 104 340 104 q 545 158 496 104 q 594 338 594 213 l 594 910 l 653 910 q 736 938 706 915 q 767 1021 767 961 q 760 1066 767 1044 q 746 1104 754 1088 l 851 1150 q 876 1096 867 1126 q 886 1031 886 1065 q 874 960 886 990 q 842 909 863 931 q 792 874 821 888 q 729 853 763 861 l 729 346 q 707 181 729 250 q 644 69 685 113 q 547 4 604 25 q 418 -17 489 -17 m 519 979 q 453 994 481 979 q 403 1026 425 1008 q 360 1058 381 1043 q 318 1072 340 1072 q 276 1051 293 1072 q 254 986 258 1031 l 164 993 q 208 1126 168 1081 q 314 1172 249 1172 q 381 1158 353 1172 q 431 1125 408 1143 q 473 1092 453 1107 q 515 1078 493 1078 q 579 1164 568 1078 l 669 1157 q 625 1024 665 1069 q 519 979 585 979 z "},"Ự":{"ha":833,"x_min":104,"x_max":886,"o":"m 418 -17 q 290 4 347 -17 q 190 69 232 25 q 126 181 149 113 q 104 346 104 250 l 104 910 l 244 910 l 244 338 q 292 158 244 213 q 418 104 340 104 q 545 158 496 104 q 594 338 594 213 l 594 910 l 653 910 q 736 938 706 915 q 767 1021 767 961 q 760 1066 767 1044 q 746 1104 754 1088 l 851 1150 q 876 1096 867 1126 q 886 1031 886 1065 q 874 960 886 990 q 842 909 863 931 q 792 874 821 888 q 729 853 763 861 l 729 346 q 707 181 729 250 q 644 69 685 113 q 547 4 604 25 q 418 -17 489 -17 m 417 -308 q 343 -281 372 -308 q 314 -210 314 -254 q 343 -138 314 -165 q 417 -111 372 -111 q 490 -138 461 -111 q 519 -210 519 -165 q 490 -281 519 -254 q 417 -308 461 -308 z "},"Ṿ":{"ha":833,"x_min":49,"x_max":785,"o":"m 336 0 l 49 910 l 196 910 l 333 436 q 375 287 357 357 q 417 138 393 217 l 422 138 q 465 287 447 217 q 507 436 483 357 l 643 910 l 785 910 l 499 0 l 336 0 m 419 -308 q 346 -281 375 -308 q 317 -210 317 -254 q 346 -138 317 -165 q 419 -111 375 -111 q 493 -138 464 -111 q 522 -210 522 -165 q 493 -281 522 -254 q 419 -308 464 -308 z "},"Ẁ":{"ha":833,"x_min":13,"x_max":822,"o":"m 146 0 l 13 911 l 164 911 l 219 361 q 228 258 225 304 q 235 147 232 213 l 239 147 q 260 258 250 213 q 283 361 271 304 l 365 678 l 482 678 l 560 361 q 572 308 567 333 q 583 258 578 283 q 593 207 588 233 q 604 147 599 181 l 610 147 q 613 207 611 181 q 615 258 614 233 q 619 308 617 283 q 624 361 621 333 l 678 911 l 822 911 l 694 0 l 531 0 l 450 344 q 433 428 440 386 q 419 511 425 469 l 415 511 q 402 428 408 469 q 385 344 396 386 l 306 0 l 146 0 m 460 963 l 238 1122 l 314 1214 l 521 1032 l 460 963 z "},"Ẃ":{"ha":833,"x_min":13,"x_max":822,"o":"m 146 0 l 13 911 l 164 911 l 219 361 q 228 258 225 304 q 235 147 232 213 l 239 147 q 260 258 250 213 q 283 361 271 304 l 365 678 l 482 678 l 560 361 q 572 308 567 333 q 583 258 578 283 q 593 207 588 233 q 604 147 599 181 l 610 147 q 613 207 611 181 q 615 258 614 233 q 619 308 617 283 q 624 361 621 333 l 678 911 l 822 911 l 694 0 l 531 0 l 450 344 q 433 428 440 386 q 419 511 425 469 l 415 511 q 402 428 408 469 q 385 344 396 386 l 306 0 l 146 0 m 374 963 l 313 1032 l 519 1214 l 596 1122 l 374 963 z "},"Ŵ":{"ha":833,"x_min":13,"x_max":822,"o":"m 146 0 l 13 911 l 164 911 l 219 361 q 228 258 225 304 q 235 147 232 213 l 239 147 q 260 258 250 213 q 283 361 271 304 l 365 678 l 482 678 l 560 361 q 572 308 567 333 q 583 258 578 283 q 593 207 588 233 q 604 147 599 181 l 610 147 q 613 207 611 181 q 615 258 614 233 q 619 308 617 283 q 624 361 621 333 l 678 911 l 822 911 l 694 0 l 531 0 l 450 344 q 433 428 440 386 q 419 511 425 469 l 415 511 q 402 428 408 469 q 385 344 396 386 l 306 0 l 146 0 m 264 965 l 204 1007 l 343 1163 l 490 1163 l 629 1007 l 569 965 l 419 1092 l 414 1092 l 264 965 z "},"Ẅ":{"ha":833,"x_min":13,"x_max":822,"o":"m 146 0 l 13 911 l 164 911 l 219 361 q 228 258 225 304 q 235 147 232 213 l 239 147 q 260 258 250 213 q 283 361 271 304 l 365 678 l 482 678 l 560 361 q 572 308 567 333 q 583 258 578 283 q 593 207 588 233 q 604 147 599 181 l 610 147 q 613 207 611 181 q 615 258 614 233 q 619 308 617 283 q 624 361 621 333 l 678 911 l 822 911 l 694 0 l 531 0 l 450 344 q 433 428 440 386 q 419 511 425 469 l 415 511 q 402 428 408 469 q 385 344 396 386 l 306 0 l 146 0 m 283 988 q 226 1010 249 988 q 204 1067 204 1032 q 226 1123 204 1101 q 283 1144 249 1144 q 339 1123 317 1144 q 361 1067 361 1101 q 339 1010 361 1032 q 283 988 317 988 m 550 988 q 494 1010 517 988 q 472 1067 472 1032 q 494 1123 472 1101 q 550 1144 517 1144 q 607 1123 585 1144 q 629 1067 629 1101 q 607 1010 629 1032 q 550 988 585 988 z "},"Ỳ":{"ha":833,"x_min":46,"x_max":788,"o":"m 347 0 l 347 319 l 46 910 l 193 910 l 318 653 q 367 548 343 600 q 417 442 390 496 l 422 442 q 474 548 449 496 q 524 653 499 600 l 644 910 l 788 910 l 486 319 l 486 0 l 347 0 m 460 963 l 238 1122 l 314 1214 l 521 1032 l 460 963 z "},"Ý":{"ha":833,"x_min":46,"x_max":788,"o":"m 347 0 l 347 319 l 46 910 l 193 910 l 318 653 q 367 548 343 600 q 417 442 390 496 l 422 442 q 474 548 449 496 q 524 653 499 600 l 644 910 l 788 910 l 486 319 l 486 0 l 347 0 m 374 963 l 313 1032 l 519 1214 l 596 1122 l 374 963 z "},"Ŷ":{"ha":833,"x_min":46,"x_max":788,"o":"m 347 0 l 347 319 l 46 910 l 193 910 l 318 653 q 367 548 343 600 q 417 442 390 496 l 422 442 q 474 548 449 496 q 524 653 499 600 l 644 910 l 788 910 l 486 319 l 486 0 l 347 0 m 264 965 l 204 1007 l 343 1163 l 490 1163 l 629 1007 l 569 965 l 419 1092 l 414 1092 l 264 965 z "},"Ÿ":{"ha":833,"x_min":46,"x_max":788,"o":"m 347 0 l 347 319 l 46 910 l 193 910 l 318 653 q 367 548 343 600 q 417 442 390 496 l 422 442 q 474 548 449 496 q 524 653 499 600 l 644 910 l 788 910 l 486 319 l 486 0 l 347 0 m 283 988 q 226 1010 249 988 q 204 1067 204 1032 q 226 1123 204 1101 q 283 1144 249 1144 q 339 1123 317 1144 q 361 1067 361 1101 q 339 1010 361 1032 q 283 988 317 988 m 550 988 q 494 1010 517 988 q 472 1067 472 1032 q 494 1123 472 1101 q 550 1144 517 1144 q 607 1123 585 1144 q 629 1067 629 1101 q 607 1010 629 1032 q 550 988 585 988 z "},"Ẏ":{"ha":833,"x_min":46,"x_max":788,"o":"m 347 0 l 347 319 l 46 910 l 193 910 l 318 653 q 367 548 343 600 q 417 442 390 496 l 422 442 q 474 548 449 496 q 524 653 499 600 l 644 910 l 788 910 l 486 319 l 486 0 l 347 0 m 417 986 q 350 1011 376 986 q 324 1076 324 1036 q 350 1140 324 1115 q 417 1164 376 1164 q 483 1140 457 1164 q 510 1076 510 1115 q 483 1011 510 1036 q 417 986 457 986 z "},"Ỵ":{"ha":833,"x_min":46,"x_max":788,"o":"m 347 0 l 347 319 l 46 910 l 193 910 l 318 653 q 367 548 343 600 q 417 442 390 496 l 422 442 q 474 548 449 496 q 524 653 499 600 l 644 910 l 788 910 l 486 319 l 486 0 l 347 0 m 417 -308 q 343 -281 372 -308 q 314 -210 314 -254 q 343 -138 314 -165 q 417 -111 372 -111 q 490 -138 461 -111 q 519 -210 519 -165 q 490 -281 519 -254 q 417 -308 461 -308 z "},"Ỷ":{"ha":833,"x_min":46,"x_max":788,"o":"m 347 0 l 347 319 l 46 910 l 193 910 l 318 653 q 367 548 343 600 q 417 442 390 496 l 422 442 q 474 548 449 496 q 524 653 499 600 l 644 910 l 788 910 l 486 319 l 486 0 l 347 0 m 368 967 l 354 1028 q 408 1048 386 1035 q 429 1085 429 1061 q 315 1140 429 1135 l 329 1217 q 532 1100 532 1210 q 519 1045 532 1068 q 483 1006 506 1022 q 431 981 460 990 q 368 967 401 971 z "},"Ỹ":{"ha":833,"x_min":46,"x_max":788,"o":"m 347 0 l 347 319 l 46 910 l 193 910 l 318 653 q 367 548 343 600 q 417 442 390 496 l 422 442 q 474 548 449 496 q 524 653 499 600 l 644 910 l 788 910 l 486 319 l 486 0 l 347 0 m 519 979 q 453 994 481 979 q 403 1026 425 1008 q 360 1058 381 1043 q 318 1072 340 1072 q 276 1051 293 1072 q 254 986 258 1031 l 164 993 q 208 1126 168 1081 q 314 1172 249 1172 q 381 1158 353 1172 q 431 1125 408 1143 q 473 1092 453 1107 q 515 1078 493 1078 q 579 1164 568 1078 l 669 1157 q 625 1024 665 1069 q 519 979 585 979 z "},"Ź":{"ha":833,"x_min":88,"x_max":751,"o":"m 88 0 l 88 83 l 574 794 l 131 794 l 131 911 l 744 911 l 744 826 l 257 117 l 751 117 l 751 0 l 88 0 m 399 963 l 338 1032 l 544 1214 l 621 1122 l 399 963 z "},"Ž":{"ha":833,"x_min":88,"x_max":751,"o":"m 88 0 l 88 83 l 574 794 l 131 794 l 131 911 l 744 911 l 744 826 l 257 117 l 751 117 l 751 0 l 88 0 m 368 979 l 229 1135 l 289 1176 l 439 1051 l 444 1051 l 594 1176 l 654 1135 l 515 979 l 368 979 z "},"Ż":{"ha":833,"x_min":88,"x_max":751,"o":"m 88 0 l 88 83 l 574 794 l 131 794 l 131 911 l 744 911 l 744 826 l 257 117 l 751 117 l 751 0 l 88 0 m 442 986 q 375 1011 401 986 q 349 1076 349 1036 q 375 1140 349 1115 q 442 1164 401 1164 q 508 1140 482 1164 q 535 1076 535 1115 q 508 1011 535 1036 q 442 986 482 986 z "},"Ẑ":{"ha":833,"x_min":88,"x_max":751,"o":"m 88 0 l 88 83 l 574 794 l 131 794 l 131 911 l 744 911 l 744 826 l 257 117 l 751 117 l 751 0 l 88 0 m 289 965 l 229 1007 l 368 1163 l 515 1163 l 654 1007 l 594 965 l 444 1092 l 439 1092 l 289 965 z "},"Ẓ":{"ha":833,"x_min":88,"x_max":751,"o":"m 88 0 l 88 83 l 574 794 l 131 794 l 131 911 l 744 911 l 744 826 l 257 117 l 751 117 l 751 0 l 88 0 m 431 -308 q 357 -281 386 -308 q 328 -210 328 -254 q 357 -138 328 -165 q 431 -111 386 -111 q 504 -138 475 -111 q 533 -210 533 -165 q 504 -281 533 -254 q 431 -308 475 -308 z "},"Ẕ":{"ha":833,"x_min":88,"x_max":751,"o":"m 88 0 l 88 83 l 574 794 l 131 794 l 131 911 l 744 911 l 744 826 l 257 117 l 751 117 l 751 0 l 88 0 m 240 -242 l 240 -149 l 621 -149 l 621 -242 l 240 -242 z "},"Ð":{"ha":833,"x_min":13,"x_max":772,"o":"m 115 0 l 115 431 l 13 431 l 13 513 l 115 521 l 115 910 l 347 910 q 661 796 550 910 q 772 458 772 682 q 663 118 772 236 q 354 0 553 0 l 115 0 m 253 113 l 338 113 q 554 200 481 113 q 628 458 628 288 q 554 713 628 629 q 338 797 481 797 l 253 797 l 253 521 l 440 521 l 440 431 l 253 431 l 253 113 z "},"Þ":{"ha":833,"x_min":131,"x_max":764,"o":"m 131 0 l 131 910 l 269 910 l 269 761 l 424 761 q 561 747 499 761 q 669 701 624 733 q 739 615 714 668 q 764 486 764 563 q 738 358 764 413 q 667 269 713 304 q 560 216 622 233 q 424 199 497 199 l 269 199 l 269 0 l 131 0 m 269 310 l 410 310 q 574 352 521 310 q 626 486 626 394 q 572 613 626 578 q 410 649 518 649 l 269 649 l 269 310 z "},"Ə":{"ha":833,"x_min":78,"x_max":768,"o":"m 418 -17 q 279 17 342 -17 q 172 111 217 50 q 102 259 126 172 q 78 453 78 346 q 78 474 78 464 q 81 493 79 483 l 631 493 q 567 727 624 647 q 408 807 511 807 q 311 785 356 807 q 235 729 267 764 l 168 825 q 274 898 213 869 q 418 926 335 926 q 563 894 499 926 q 674 802 628 863 q 744 654 719 742 q 768 457 768 567 q 742 260 768 347 q 671 110 717 172 q 560 16 625 49 q 418 -17 496 -17 m 418 103 q 560 173 504 103 q 628 390 617 243 l 215 390 q 278 172 225 242 q 418 103 332 103 z "},"Ŋ":{"ha":833,"x_min":111,"x_max":765,"o":"m 519 -17 q 462 -12 492 -17 q 413 4 432 -7 l 444 126 q 471 117 457 121 q 504 114 485 114 q 552 130 531 114 q 589 185 574 146 q 613 293 604 225 q 622 464 622 361 q 609 626 622 560 q 572 731 596 692 q 513 788 547 771 q 438 806 479 806 q 338 771 390 806 q 250 682 286 736 l 250 0 l 111 0 l 111 910 l 246 910 l 246 808 q 347 893 290 860 q 469 926 403 926 q 588 902 533 926 q 681 822 642 878 q 743 678 721 767 q 765 464 765 590 q 749 244 765 335 q 703 95 733 153 q 626 10 672 38 q 519 -17 579 -17 z "},"Ĳ":{"ha":833,"x_min":142,"x_max":692,"o":"m 142 0 l 142 910 l 281 910 l 281 0 l 142 0 m 485 -235 q 422 -229 449 -235 q 375 -217 394 -224 l 401 -110 q 433 -118 417 -114 q 468 -122 450 -122 q 535 -90 518 -122 q 553 6 553 -57 l 553 910 l 692 910 l 692 3 q 681 -94 692 -50 q 645 -169 669 -137 q 581 -217 621 -200 q 485 -235 542 -235 z "},"à":{"ha":833,"x_min":106,"x_max":722,"o":"m 335 -17 q 244 -3 286 -17 q 171 37 201 11 q 123 99 140 63 q 106 179 106 135 q 133 279 106 236 q 217 353 160 322 q 366 403 275 383 q 585 432 457 422 q 544 539 582 494 q 415 583 506 583 q 294 560 353 583 q 185 507 235 536 l 133 600 q 196 634 161 617 q 270 665 231 651 q 352 688 310 679 q 439 696 394 696 q 651 619 581 696 q 722 408 722 543 l 722 0 l 610 0 l 599 88 l 594 88 q 473 15 540 46 q 335 -17 406 -17 m 374 93 q 480 117 428 93 q 585 183 532 140 l 585 344 q 418 323 485 336 q 312 290 351 310 q 256 244 272 269 q 239 189 239 219 q 278 115 239 138 q 374 93 318 93 m 468 786 l 242 1000 l 338 1093 l 539 854 l 468 786 z "},"á":{"ha":833,"x_min":106,"x_max":722,"o":"m 335 -17 q 244 -3 286 -17 q 171 37 201 11 q 123 99 140 63 q 106 179 106 135 q 133 279 106 236 q 217 353 160 322 q 366 403 275 383 q 585 432 457 422 q 544 539 582 494 q 415 583 506 583 q 294 560 353 583 q 185 507 235 536 l 133 600 q 196 634 161 617 q 270 665 231 651 q 352 688 310 679 q 439 696 394 696 q 651 619 581 696 q 722 408 722 543 l 722 0 l 610 0 l 599 88 l 594 88 q 473 15 540 46 q 335 -17 406 -17 m 374 93 q 480 117 428 93 q 585 183 532 140 l 585 344 q 418 323 485 336 q 312 290 351 310 q 256 244 272 269 q 239 189 239 219 q 278 115 239 138 q 374 93 318 93 m 421 786 l 350 854 l 551 1093 l 647 1000 l 421 786 z "},"â":{"ha":833,"x_min":106,"x_max":722,"o":"m 335 -17 q 244 -3 286 -17 q 171 37 201 11 q 123 99 140 63 q 106 179 106 135 q 133 279 106 236 q 217 353 160 322 q 366 403 275 383 q 585 432 457 422 q 544 539 582 494 q 415 583 506 583 q 294 560 353 583 q 185 507 235 536 l 133 600 q 196 634 161 617 q 270 665 231 651 q 352 688 310 679 q 439 696 394 696 q 651 619 581 696 q 722 408 722 543 l 722 0 l 610 0 l 599 88 l 594 88 q 473 15 540 46 q 335 -17 406 -17 m 374 93 q 480 117 428 93 q 585 183 532 140 l 585 344 q 418 323 485 336 q 312 290 351 310 q 256 244 272 269 q 239 189 239 219 q 278 115 239 138 q 374 93 318 93 m 275 786 l 219 839 l 375 1029 l 514 1029 l 669 839 l 614 786 l 447 936 l 442 936 l 275 786 z "},"ã":{"ha":833,"x_min":106,"x_max":722,"o":"m 335 -17 q 244 -3 286 -17 q 171 37 201 11 q 123 99 140 63 q 106 179 106 135 q 133 279 106 236 q 217 353 160 322 q 366 403 275 383 q 585 432 457 422 q 544 539 582 494 q 415 583 506 583 q 294 560 353 583 q 185 507 235 536 l 133 600 q 196 634 161 617 q 270 665 231 651 q 352 688 310 679 q 439 696 394 696 q 651 619 581 696 q 722 408 722 543 l 722 0 l 610 0 l 599 88 l 594 88 q 473 15 540 46 q 335 -17 406 -17 m 374 93 q 480 117 428 93 q 585 183 532 140 l 585 344 q 418 323 485 336 q 312 290 351 310 q 256 244 272 269 q 239 189 239 219 q 278 115 239 138 q 374 93 318 93 m 543 800 q 481 817 507 800 q 432 855 454 835 q 390 892 410 875 q 349 910 371 910 q 305 883 319 910 q 288 808 290 856 l 199 814 q 237 954 201 901 q 347 1007 272 1007 q 409 990 382 1007 q 458 953 436 974 q 499 915 479 932 q 542 899 519 899 q 584 926 569 899 q 601 1000 599 953 l 690 994 q 653 853 688 907 q 543 800 618 800 z "},"ä":{"ha":833,"x_min":106,"x_max":722,"o":"m 335 -17 q 244 -3 286 -17 q 171 37 201 11 q 123 99 140 63 q 106 179 106 135 q 133 279 106 236 q 217 353 160 322 q 366 403 275 383 q 585 432 457 422 q 544 539 582 494 q 415 583 506 583 q 294 560 353 583 q 185 507 235 536 l 133 600 q 196 634 161 617 q 270 665 231 651 q 352 688 310 679 q 439 696 394 696 q 651 619 581 696 q 722 408 722 543 l 722 0 l 610 0 l 599 88 l 594 88 q 473 15 540 46 q 335 -17 406 -17 m 374 93 q 480 117 428 93 q 585 183 532 140 l 585 344 q 418 323 485 336 q 312 290 351 310 q 256 244 272 269 q 239 189 239 219 q 278 115 239 138 q 374 93 318 93 m 304 811 q 243 836 267 811 q 219 897 219 861 q 243 958 219 933 q 304 983 267 983 q 366 958 342 983 q 390 897 390 933 q 366 836 390 861 q 304 811 342 811 m 585 811 q 523 836 547 811 q 499 897 499 861 q 523 958 499 933 q 585 983 547 983 q 646 958 622 983 q 669 897 669 933 q 646 836 669 861 q 585 811 622 811 z "},"ā":{"ha":833,"x_min":106,"x_max":722,"o":"m 335 -17 q 244 -3 286 -17 q 171 37 201 11 q 123 99 140 63 q 106 179 106 135 q 133 279 106 236 q 217 353 160 322 q 366 403 275 383 q 585 432 457 422 q 544 539 582 494 q 415 583 506 583 q 294 560 353 583 q 185 507 235 536 l 133 600 q 196 634 161 617 q 270 665 231 651 q 352 688 310 679 q 439 696 394 696 q 651 619 581 696 q 722 408 722 543 l 722 0 l 610 0 l 599 88 l 594 88 q 473 15 540 46 q 335 -17 406 -17 m 374 93 q 480 117 428 93 q 585 183 532 140 l 585 344 q 418 323 485 336 q 312 290 351 310 q 256 244 272 269 q 239 189 239 219 q 278 115 239 138 q 374 93 318 93 m 254 831 l 254 924 l 635 924 l 635 831 l 254 831 z "},"ă":{"ha":833,"x_min":106,"x_max":722,"o":"m 335 -17 q 244 -3 286 -17 q 171 37 201 11 q 123 99 140 63 q 106 179 106 135 q 133 279 106 236 q 217 353 160 322 q 366 403 275 383 q 585 432 457 422 q 544 539 582 494 q 415 583 506 583 q 294 560 353 583 q 185 507 235 536 l 133 600 q 196 634 161 617 q 270 665 231 651 q 352 688 310 679 q 439 696 394 696 q 651 619 581 696 q 722 408 722 543 l 722 0 l 610 0 l 599 88 l 594 88 q 473 15 540 46 q 335 -17 406 -17 m 374 93 q 480 117 428 93 q 585 183 532 140 l 585 344 q 418 323 485 336 q 312 290 351 310 q 256 244 272 269 q 239 189 239 219 q 278 115 239 138 q 374 93 318 93 m 444 793 q 347 811 388 793 q 279 859 306 829 q 239 927 253 889 q 222 1006 225 965 l 306 1019 q 319 969 310 993 q 347 926 329 944 q 388 895 364 907 q 444 883 413 883 q 501 895 476 883 q 542 926 525 907 q 569 969 560 944 q 583 1019 579 993 l 667 1006 q 650 927 664 965 q 610 859 636 889 q 542 811 583 829 q 444 793 501 793 z "},"å":{"ha":833,"x_min":106,"x_max":722,"o":"m 335 -17 q 244 -3 286 -17 q 171 37 201 11 q 123 99 140 63 q 106 179 106 135 q 133 279 106 236 q 217 353 160 322 q 366 403 275 383 q 585 432 457 422 q 544 539 582 494 q 415 583 506 583 q 294 560 353 583 q 185 507 235 536 l 133 600 q 196 634 161 617 q 270 665 231 651 q 352 688 310 679 q 439 696 394 696 q 651 619 581 696 q 722 408 722 543 l 722 0 l 610 0 l 599 88 l 594 88 q 473 15 540 46 q 335 -17 406 -17 m 374 93 q 480 117 428 93 q 585 183 532 140 l 585 344 q 418 323 485 336 q 312 290 351 310 q 256 244 272 269 q 239 189 239 219 q 278 115 239 138 q 374 93 318 93 m 444 790 q 326 829 368 790 q 285 926 285 868 q 326 1024 285 985 q 444 1063 368 1063 q 563 1024 521 1063 q 604 926 604 985 q 563 829 604 868 q 444 790 521 790 m 444 847 q 497 870 476 847 q 518 926 518 893 q 497 982 518 960 q 444 1004 476 1004 q 392 982 413 1004 q 371 926 371 960 q 392 870 371 893 q 444 847 413 847 z "},"ǻ":{"ha":833,"x_min":106,"x_max":722,"o":"m 335 -17 q 244 -3 286 -17 q 171 37 201 11 q 123 99 140 63 q 106 179 106 135 q 133 279 106 236 q 217 353 160 322 q 366 403 275 383 q 585 432 457 422 q 544 539 582 494 q 415 583 506 583 q 294 560 353 583 q 185 507 235 536 l 133 600 q 196 634 161 617 q 270 665 231 651 q 352 688 310 679 q 439 696 394 696 q 651 619 581 696 q 722 408 722 543 l 722 0 l 610 0 l 599 88 l 594 88 q 473 15 540 46 q 335 -17 406 -17 m 374 93 q 480 117 428 93 q 585 183 532 140 l 585 344 q 418 323 485 336 q 312 290 351 310 q 256 244 272 269 q 239 189 239 219 q 278 115 239 138 q 374 93 318 93 m 444 790 q 326 829 368 790 q 285 926 285 868 q 300 990 285 961 q 346 1038 315 1018 l 540 1183 l 597 1106 l 494 1057 q 576 1009 547 1044 q 604 926 604 974 q 563 829 604 868 q 444 790 521 790 m 444 847 q 497 870 476 847 q 518 926 518 893 q 497 982 518 960 q 444 1004 476 1004 q 392 982 413 1004 q 371 926 371 960 q 392 870 371 893 q 444 847 413 847 z "},"ǎ":{"ha":833,"x_min":106,"x_max":722,"o":"m 335 -17 q 244 -3 286 -17 q 171 37 201 11 q 123 99 140 63 q 106 179 106 135 q 133 279 106 236 q 217 353 160 322 q 366 403 275 383 q 585 432 457 422 q 544 539 582 494 q 415 583 506 583 q 294 560 353 583 q 185 507 235 536 l 133 600 q 196 634 161 617 q 270 665 231 651 q 352 688 310 679 q 439 696 394 696 q 651 619 581 696 q 722 408 722 543 l 722 0 l 610 0 l 599 88 l 594 88 q 473 15 540 46 q 335 -17 406 -17 m 374 93 q 480 117 428 93 q 585 183 532 140 l 585 344 q 418 323 485 336 q 312 290 351 310 q 256 244 272 269 q 239 189 239 219 q 278 115 239 138 q 374 93 318 93 m 375 799 l 219 989 l 275 1042 l 442 892 l 447 892 l 614 1042 l 669 989 l 514 799 l 375 799 z "},"ą":{"ha":833,"x_min":106,"x_max":767,"o":"m 629 -314 q 524 -281 567 -314 q 482 -182 482 -249 q 521 -72 482 -118 q 611 4 560 -26 l 599 88 l 594 88 q 473 15 540 46 q 335 -17 406 -17 q 244 -3 286 -17 q 171 37 201 11 q 123 99 140 63 q 106 179 106 135 q 133 279 106 236 q 217 353 160 322 q 366 403 275 383 q 585 432 457 422 q 544 539 582 494 q 415 583 506 583 q 294 560 353 583 q 185 507 235 536 l 133 600 q 196 634 161 617 q 270 665 231 651 q 352 688 310 679 q 439 696 394 696 q 651 619 581 696 q 722 408 722 543 l 722 0 q 613 -72 646 -31 q 581 -154 581 -112 q 605 -209 581 -192 q 660 -226 629 -226 q 700 -219 682 -226 q 731 -200 718 -211 l 767 -264 q 705 -300 740 -286 q 629 -314 669 -314 m 374 93 q 480 117 428 93 q 585 183 532 140 l 585 344 q 418 323 485 336 q 312 290 351 310 q 256 244 272 269 q 239 189 239 219 q 278 115 239 138 q 374 93 318 93 z "},"ạ":{"ha":833,"x_min":106,"x_max":722,"o":"m 335 -17 q 244 -3 286 -17 q 171 37 201 11 q 123 99 140 63 q 106 179 106 135 q 133 279 106 236 q 217 353 160 322 q 366 403 275 383 q 585 432 457 422 q 544 539 582 494 q 415 583 506 583 q 294 560 353 583 q 185 507 235 536 l 133 600 q 196 634 161 617 q 270 665 231 651 q 352 688 310 679 q 439 696 394 696 q 651 619 581 696 q 722 408 722 543 l 722 0 l 610 0 l 599 88 l 594 88 q 473 15 540 46 q 335 -17 406 -17 m 374 93 q 480 117 428 93 q 585 183 532 140 l 585 344 q 418 323 485 336 q 312 290 351 310 q 256 244 272 269 q 239 189 239 219 q 278 115 239 138 q 374 93 318 93 m 417 -308 q 343 -281 372 -308 q 314 -210 314 -254 q 343 -138 314 -165 q 417 -111 372 -111 q 490 -138 461 -111 q 519 -210 519 -165 q 490 -281 519 -254 q 417 -308 461 -308 z "},"ả":{"ha":833,"x_min":106,"x_max":722,"o":"m 335 -17 q 244 -3 286 -17 q 171 37 201 11 q 123 99 140 63 q 106 179 106 135 q 133 279 106 236 q 217 353 160 322 q 366 403 275 383 q 585 432 457 422 q 544 539 582 494 q 415 583 506 583 q 294 560 353 583 q 185 507 235 536 l 133 600 q 196 634 161 617 q 270 665 231 651 q 352 688 310 679 q 439 696 394 696 q 651 619 581 696 q 722 408 722 543 l 722 0 l 610 0 l 599 88 l 594 88 q 473 15 540 46 q 335 -17 406 -17 m 374 93 q 480 117 428 93 q 585 183 532 140 l 585 344 q 418 323 485 336 q 312 290 351 310 q 256 244 272 269 q 239 189 239 219 q 278 115 239 138 q 374 93 318 93 m 396 793 l 382 856 q 435 876 414 863 q 457 917 457 890 q 343 979 457 974 l 351 1068 q 508 1028 456 1065 q 561 928 561 992 q 548 873 561 896 q 512 833 535 850 q 459 807 489 817 q 396 793 429 797 z "},"ấ":{"ha":833,"x_min":106,"x_max":786,"o":"m 335 -17 q 244 -3 286 -17 q 171 37 201 11 q 123 99 140 63 q 106 179 106 135 q 133 279 106 236 q 217 353 160 322 q 366 403 275 383 q 585 432 457 422 q 544 539 582 494 q 415 583 506 583 q 294 560 353 583 q 185 507 235 536 l 133 600 q 196 634 161 617 q 270 665 231 651 q 352 688 310 679 q 439 696 394 696 q 651 619 581 696 q 722 408 722 543 l 722 0 l 610 0 l 599 88 l 594 88 q 473 15 540 46 q 335 -17 406 -17 m 374 93 q 480 117 428 93 q 585 183 532 140 l 585 344 q 418 323 485 336 q 312 290 351 310 q 256 244 272 269 q 239 189 239 219 q 278 115 239 138 q 374 93 318 93 m 299 790 l 253 844 l 389 972 l 500 972 l 636 844 l 590 790 l 447 888 l 442 888 l 299 790 m 646 885 l 589 929 l 708 1099 l 786 1046 l 646 885 z "},"ầ":{"ha":833,"x_min":89,"x_max":722,"o":"m 335 -17 q 244 -3 286 -17 q 171 37 201 11 q 123 99 140 63 q 106 179 106 135 q 133 279 106 236 q 217 353 160 322 q 366 403 275 383 q 585 432 457 422 q 544 539 582 494 q 415 583 506 583 q 294 560 353 583 q 185 507 235 536 l 133 600 q 196 634 161 617 q 270 665 231 651 q 352 688 310 679 q 439 696 394 696 q 651 619 581 696 q 722 408 722 543 l 722 0 l 610 0 l 599 88 l 594 88 q 473 15 540 46 q 335 -17 406 -17 m 374 93 q 480 117 428 93 q 585 183 532 140 l 585 344 q 418 323 485 336 q 312 290 351 310 q 256 244 272 269 q 239 189 239 219 q 278 115 239 138 q 374 93 318 93 m 299 790 l 253 844 l 389 972 l 500 972 l 636 844 l 590 790 l 447 888 l 442 888 l 299 790 m 243 885 l 89 1043 l 167 1099 l 300 933 l 243 885 z "},"ẩ":{"ha":833,"x_min":106,"x_max":751,"o":"m 335 -17 q 244 -3 286 -17 q 171 37 201 11 q 123 99 140 63 q 106 179 106 135 q 133 279 106 236 q 217 353 160 322 q 366 403 275 383 q 585 432 457 422 q 544 539 582 494 q 415 583 506 583 q 294 560 353 583 q 185 507 235 536 l 133 600 q 196 634 161 617 q 270 665 231 651 q 352 688 310 679 q 439 696 394 696 q 651 619 581 696 q 722 408 722 543 l 722 0 l 610 0 l 599 88 l 594 88 q 473 15 540 46 q 335 -17 406 -17 m 374 93 q 480 117 428 93 q 585 183 532 140 l 585 344 q 418 323 485 336 q 312 290 351 310 q 256 244 272 269 q 239 189 239 219 q 278 115 239 138 q 374 93 318 93 m 299 790 l 253 844 l 389 972 l 500 972 l 636 844 l 590 790 l 447 888 l 442 888 l 299 790 m 613 886 l 600 939 q 640 957 625 946 q 656 990 656 968 q 634 1028 656 1015 q 561 1044 613 1042 l 572 1108 q 751 1004 751 1101 q 740 955 751 975 q 709 921 728 935 q 665 899 690 907 q 613 886 639 892 z "},"ẫ":{"ha":833,"x_min":106,"x_max":722,"o":"m 335 -17 q 244 -3 286 -17 q 171 37 201 11 q 123 99 140 63 q 106 179 106 135 q 133 279 106 236 q 217 353 160 322 q 366 403 275 383 q 585 432 457 422 q 544 539 582 494 q 415 583 506 583 q 294 560 353 583 q 185 507 235 536 l 133 600 q 196 634 161 617 q 270 665 231 651 q 352 688 310 679 q 439 696 394 696 q 651 619 581 696 q 722 408 722 543 l 722 0 l 610 0 l 599 88 l 594 88 q 473 15 540 46 q 335 -17 406 -17 m 374 93 q 480 117 428 93 q 585 183 532 140 l 585 344 q 418 323 485 336 q 312 290 351 310 q 256 244 272 269 q 239 189 239 219 q 278 115 239 138 q 374 93 318 93 m 299 790 l 253 844 l 389 965 l 500 965 l 636 844 l 590 790 l 447 882 l 442 882 l 299 790 m 532 989 q 479 998 503 989 q 436 1018 456 1007 q 399 1038 417 1029 q 364 1047 382 1047 q 335 1033 344 1047 q 319 990 325 1019 l 250 997 q 282 1092 257 1057 q 357 1128 307 1128 q 409 1119 386 1128 q 451 1099 432 1110 q 488 1078 471 1088 q 525 1069 506 1069 q 554 1083 544 1069 q 569 1126 564 1097 l 639 1119 q 607 1024 632 1058 q 532 989 582 989 z "},"ậ":{"ha":833,"x_min":106,"x_max":722,"o":"m 335 -17 q 244 -3 286 -17 q 171 37 201 11 q 123 99 140 63 q 106 179 106 135 q 133 279 106 236 q 217 353 160 322 q 366 403 275 383 q 585 432 457 422 q 544 539 582 494 q 415 583 506 583 q 294 560 353 583 q 185 507 235 536 l 133 600 q 196 634 161 617 q 270 665 231 651 q 352 688 310 679 q 439 696 394 696 q 651 619 581 696 q 722 408 722 543 l 722 0 l 610 0 l 599 88 l 594 88 q 473 15 540 46 q 335 -17 406 -17 m 374 93 q 480 117 428 93 q 585 183 532 140 l 585 344 q 418 323 485 336 q 312 290 351 310 q 256 244 272 269 q 239 189 239 219 q 278 115 239 138 q 374 93 318 93 m 275 786 l 219 839 l 375 1029 l 514 1029 l 669 839 l 614 786 l 447 936 l 442 936 l 275 786 m 417 -308 q 343 -281 372 -308 q 314 -210 314 -254 q 343 -138 314 -165 q 417 -111 372 -111 q 490 -138 461 -111 q 519 -210 519 -165 q 490 -281 519 -254 q 417 -308 461 -308 z "},"ắ":{"ha":833,"x_min":106,"x_max":722,"o":"m 335 -17 q 244 -3 286 -17 q 171 37 201 11 q 123 99 140 63 q 106 179 106 135 q 133 279 106 236 q 217 353 160 322 q 366 403 275 383 q 585 432 457 422 q 544 539 582 494 q 415 583 506 583 q 294 560 353 583 q 185 507 235 536 l 133 600 q 196 634 161 617 q 270 665 231 651 q 352 688 310 679 q 439 696 394 696 q 651 619 581 696 q 722 408 722 543 l 722 0 l 610 0 l 599 88 l 594 88 q 473 15 540 46 q 335 -17 406 -17 m 374 93 q 480 117 428 93 q 585 183 532 140 l 585 344 q 418 323 485 336 q 312 290 351 310 q 256 244 272 269 q 239 189 239 219 q 278 115 239 138 q 374 93 318 93 m 444 793 q 347 811 388 793 q 279 859 306 829 q 239 927 253 889 q 222 1006 225 965 l 300 1019 q 314 966 304 992 q 342 920 324 940 q 385 888 360 900 q 444 876 411 876 q 503 888 478 876 q 547 920 529 900 q 574 966 564 940 q 589 1019 585 992 l 667 1006 q 650 927 664 965 q 610 859 636 889 q 542 811 583 829 q 444 793 501 793 m 443 950 l 379 996 l 503 1174 l 588 1110 l 443 950 z "},"ằ":{"ha":833,"x_min":106,"x_max":722,"o":"m 335 -17 q 244 -3 286 -17 q 171 37 201 11 q 123 99 140 63 q 106 179 106 135 q 133 279 106 236 q 217 353 160 322 q 366 403 275 383 q 585 432 457 422 q 544 539 582 494 q 415 583 506 583 q 294 560 353 583 q 185 507 235 536 l 133 600 q 196 634 161 617 q 270 665 231 651 q 352 688 310 679 q 439 696 394 696 q 651 619 581 696 q 722 408 722 543 l 722 0 l 610 0 l 599 88 l 594 88 q 473 15 540 46 q 335 -17 406 -17 m 374 93 q 480 117 428 93 q 585 183 532 140 l 585 344 q 418 323 485 336 q 312 290 351 310 q 256 244 272 269 q 239 189 239 219 q 278 115 239 138 q 374 93 318 93 m 444 793 q 347 811 388 793 q 279 859 306 829 q 239 927 253 889 q 222 1006 225 965 l 300 1019 q 314 966 304 992 q 342 920 324 940 q 385 888 360 900 q 444 876 411 876 q 503 888 478 876 q 547 920 529 900 q 574 966 564 940 q 589 1019 585 992 l 667 1006 q 650 927 664 965 q 610 859 636 889 q 542 811 583 829 q 444 793 501 793 m 446 950 l 301 1110 l 386 1174 l 510 996 l 446 950 z "},"ẳ":{"ha":833,"x_min":106,"x_max":722,"o":"m 335 -17 q 244 -3 286 -17 q 171 37 201 11 q 123 99 140 63 q 106 179 106 135 q 133 279 106 236 q 217 353 160 322 q 366 403 275 383 q 585 432 457 422 q 544 539 582 494 q 415 583 506 583 q 294 560 353 583 q 185 507 235 536 l 133 600 q 196 634 161 617 q 270 665 231 651 q 352 688 310 679 q 439 696 394 696 q 651 619 581 696 q 722 408 722 543 l 722 0 l 610 0 l 599 88 l 594 88 q 473 15 540 46 q 335 -17 406 -17 m 374 93 q 480 117 428 93 q 585 183 532 140 l 585 344 q 418 323 485 336 q 312 290 351 310 q 256 244 272 269 q 239 189 239 219 q 278 115 239 138 q 374 93 318 93 m 444 793 q 347 811 388 793 q 279 859 306 829 q 239 927 253 889 q 222 1006 225 965 l 300 1019 q 314 966 304 992 q 342 920 324 940 q 385 888 360 900 q 444 876 411 876 q 503 888 478 876 q 547 920 529 900 q 574 966 564 940 q 589 1019 585 992 l 667 1006 q 650 927 664 965 q 610 859 636 889 q 542 811 583 829 q 444 793 501 793 m 404 953 l 392 1008 q 437 1026 419 1014 q 454 1058 454 1038 q 431 1097 454 1083 q 351 1113 407 1110 l 363 1193 q 550 1074 550 1186 q 538 1023 550 1044 q 505 988 525 1001 q 458 965 485 974 q 404 953 432 957 z "},"ẵ":{"ha":833,"x_min":106,"x_max":722,"o":"m 335 -17 q 244 -3 286 -17 q 171 37 201 11 q 123 99 140 63 q 106 179 106 135 q 133 279 106 236 q 217 353 160 322 q 366 403 275 383 q 585 432 457 422 q 544 539 582 494 q 415 583 506 583 q 294 560 353 583 q 185 507 235 536 l 133 600 q 196 634 161 617 q 270 665 231 651 q 352 688 310 679 q 439 696 394 696 q 651 619 581 696 q 722 408 722 543 l 722 0 l 610 0 l 599 88 l 594 88 q 473 15 540 46 q 335 -17 406 -17 m 374 93 q 480 117 428 93 q 585 183 532 140 l 585 344 q 418 323 485 336 q 312 290 351 310 q 256 244 272 269 q 239 189 239 219 q 278 115 239 138 q 374 93 318 93 m 444 793 q 355 806 392 793 q 294 841 318 819 q 256 890 269 863 q 240 944 243 917 l 315 957 q 351 896 321 924 q 444 868 382 868 q 538 896 507 868 q 574 957 568 924 l 649 944 q 633 890 646 917 q 595 841 619 863 q 533 806 571 819 q 444 793 496 793 m 532 988 q 479 997 503 988 q 436 1017 456 1006 q 399 1037 417 1028 q 364 1046 382 1046 q 335 1032 344 1046 q 319 989 325 1018 l 243 996 q 277 1091 250 1056 q 357 1126 304 1126 q 409 1117 386 1126 q 451 1097 432 1108 q 488 1077 471 1086 q 525 1068 506 1068 q 554 1082 544 1068 q 569 1125 564 1096 l 646 1118 q 612 1022 639 1057 q 532 988 585 988 z "},"ặ":{"ha":833,"x_min":106,"x_max":722,"o":"m 335 -17 q 244 -3 286 -17 q 171 37 201 11 q 123 99 140 63 q 106 179 106 135 q 133 279 106 236 q 217 353 160 322 q 366 403 275 383 q 585 432 457 422 q 544 539 582 494 q 415 583 506 583 q 294 560 353 583 q 185 507 235 536 l 133 600 q 196 634 161 617 q 270 665 231 651 q 352 688 310 679 q 439 696 394 696 q 651 619 581 696 q 722 408 722 543 l 722 0 l 610 0 l 599 88 l 594 88 q 473 15 540 46 q 335 -17 406 -17 m 374 93 q 480 117 428 93 q 585 183 532 140 l 585 344 q 418 323 485 336 q 312 290 351 310 q 256 244 272 269 q 239 189 239 219 q 278 115 239 138 q 374 93 318 93 m 444 793 q 347 811 388 793 q 279 859 306 829 q 239 927 253 889 q 222 1006 225 965 l 306 1019 q 319 969 310 993 q 347 926 329 944 q 388 895 364 907 q 444 883 413 883 q 501 895 476 883 q 542 926 525 907 q 569 969 560 944 q 583 1019 579 993 l 667 1006 q 650 927 664 965 q 610 859 636 889 q 542 811 583 829 q 444 793 501 793 m 417 -308 q 343 -281 372 -308 q 314 -210 314 -254 q 343 -138 314 -165 q 417 -111 372 -111 q 490 -138 461 -111 q 519 -210 519 -165 q 490 -281 519 -254 q 417 -308 461 -308 z "},"æ":{"ha":833,"x_min":24,"x_max":828,"o":"m 203 -17 q 74 33 124 -17 q 24 171 24 83 q 103 338 24 275 q 361 424 183 400 q 327 549 358 514 q 249 583 296 583 q 168 567 208 583 q 94 529 128 551 l 44 622 q 145 674 90 651 q 260 696 200 696 q 360 666 318 696 q 428 565 403 636 q 514 666 464 636 q 618 696 564 696 q 710 670 671 696 q 776 601 750 644 q 815 501 801 558 q 828 381 828 444 q 826 338 828 358 q 821 300 824 317 l 468 300 q 518 149 475 203 q 632 94 561 94 q 699 106 668 94 q 758 136 731 117 l 807 44 q 724 0 771 17 q 628 -17 678 -17 q 505 14 557 -17 q 418 100 453 44 q 203 -17 317 -17 m 242 92 q 313 112 275 92 q 383 175 350 132 q 367 248 372 210 q 361 329 361 286 l 361 338 q 258 315 299 329 q 192 280 217 300 q 158 236 168 260 q 149 185 149 213 q 174 116 149 140 q 242 92 200 92 m 608 588 q 563 577 585 588 q 522 544 540 567 q 489 486 503 522 q 469 399 475 450 l 718 399 q 608 588 713 588 z "},"ǽ":{"ha":833,"x_min":24,"x_max":828,"o":"m 203 -17 q 74 33 124 -17 q 24 171 24 83 q 103 338 24 275 q 361 424 183 400 q 327 549 358 514 q 249 583 296 583 q 168 567 208 583 q 94 529 128 551 l 44 622 q 145 674 90 651 q 260 696 200 696 q 360 666 318 696 q 428 565 403 636 q 514 666 464 636 q 618 696 564 696 q 710 670 671 696 q 776 601 750 644 q 815 501 801 558 q 828 381 828 444 q 826 338 828 358 q 821 300 824 317 l 468 300 q 518 149 475 203 q 632 94 561 94 q 699 106 668 94 q 758 136 731 117 l 807 44 q 724 0 771 17 q 628 -17 678 -17 q 505 14 557 -17 q 418 100 453 44 q 203 -17 317 -17 m 242 92 q 313 112 275 92 q 383 175 350 132 q 367 248 372 210 q 361 329 361 286 l 361 338 q 258 315 299 329 q 192 280 217 300 q 158 236 168 260 q 149 185 149 213 q 174 116 149 140 q 242 92 200 92 m 608 588 q 563 577 585 588 q 522 544 540 567 q 489 486 503 522 q 469 399 475 450 l 718 399 q 608 588 713 588 m 414 786 l 343 854 l 544 1093 l 640 1000 l 414 786 z "},"ǣ":{"ha":833,"x_min":24,"x_max":828,"o":"m 203 -17 q 74 33 124 -17 q 24 171 24 83 q 103 338 24 275 q 361 424 183 400 q 327 549 358 514 q 249 583 296 583 q 168 567 208 583 q 94 529 128 551 l 44 622 q 145 674 90 651 q 260 696 200 696 q 360 666 318 696 q 428 565 403 636 q 514 666 464 636 q 618 696 564 696 q 710 670 671 696 q 776 601 750 644 q 815 501 801 558 q 828 381 828 444 q 826 338 828 358 q 821 300 824 317 l 468 300 q 518 149 475 203 q 632 94 561 94 q 699 106 668 94 q 758 136 731 117 l 807 44 q 724 0 771 17 q 628 -17 678 -17 q 505 14 557 -17 q 418 100 453 44 q 203 -17 317 -17 m 242 92 q 313 112 275 92 q 383 175 350 132 q 367 248 372 210 q 361 329 361 286 l 361 338 q 258 315 299 329 q 192 280 217 300 q 158 236 168 260 q 149 185 149 213 q 174 116 149 140 q 242 92 200 92 m 608 588 q 563 577 585 588 q 522 544 540 567 q 489 486 503 522 q 469 399 475 450 l 718 399 q 608 588 713 588 m 247 831 l 247 924 l 628 924 l 628 831 l 247 831 z "},"ƀ":{"ha":833,"x_min":22,"x_max":754,"o":"m 451 -17 q 348 7 403 -17 q 247 75 293 31 l 243 75 l 231 0 l 122 0 l 122 778 l 22 778 l 22 864 l 122 871 l 122 985 l 258 985 l 258 871 l 543 871 l 543 778 l 258 778 l 258 690 l 254 571 l 258 571 q 360 642 303 615 q 475 668 417 668 q 594 644 542 668 q 681 578 646 621 q 735 473 717 535 q 754 336 754 411 q 729 187 754 253 q 663 76 704 121 q 566 7 621 31 q 451 -17 511 -17 m 425 97 q 559 159 506 97 q 613 335 613 221 q 572 494 613 435 q 439 553 531 553 q 352 531 397 553 q 258 461 307 510 l 258 168 q 347 113 303 129 q 425 97 392 97 z "},"ḇ":{"ha":833,"x_min":122,"x_max":756,"o":"m 451 -17 q 348 7 403 -17 q 247 75 293 31 l 243 75 l 231 0 l 122 0 l 122 985 l 260 985 l 260 724 l 254 599 l 258 599 q 360 669 303 643 q 475 696 417 696 q 594 672 542 696 q 683 602 647 647 q 737 493 718 557 q 756 350 756 429 q 731 194 756 263 q 663 80 706 126 q 566 8 621 33 q 451 -17 511 -17 m 425 97 q 560 162 506 97 q 614 349 614 226 q 572 518 614 456 q 439 581 531 581 q 351 559 397 581 q 260 489 306 538 l 260 168 q 347 113 303 129 q 425 97 392 97 m 240 -242 l 240 -149 l 621 -149 l 621 -242 l 240 -242 z "},"ç":{"ha":833,"x_min":106,"x_max":751,"o":"m 479 -17 q 331 7 400 -17 q 213 76 263 31 q 134 188 163 122 q 106 339 106 254 q 136 490 106 424 q 219 603 167 557 q 341 672 272 649 q 488 696 410 696 q 633 667 571 696 q 738 599 696 639 l 671 511 q 588 563 631 544 q 494 582 544 582 q 394 565 440 582 q 316 515 349 547 q 265 438 283 483 q 247 339 247 393 q 265 240 247 285 q 315 163 282 194 q 392 113 347 131 q 490 96 436 96 q 602 119 553 96 q 692 176 651 143 l 751 88 q 624 10 693 38 q 479 -17 554 -17 m 353 -319 l 342 -256 q 459 -235 428 -250 q 490 -189 490 -219 q 467 -149 490 -164 q 383 -125 444 -133 l 442 13 l 528 13 l 492 -87 q 567 -122 540 -99 q 593 -187 593 -144 q 531 -283 593 -251 q 353 -319 469 -314 z "},"ć":{"ha":833,"x_min":106,"x_max":751,"o":"m 479 -17 q 331 7 400 -17 q 213 76 263 31 q 134 188 163 122 q 106 339 106 254 q 136 490 106 424 q 219 603 167 557 q 341 672 272 649 q 488 696 410 696 q 633 667 571 696 q 738 599 696 639 l 671 511 q 588 563 631 544 q 494 582 544 582 q 394 565 440 582 q 316 515 349 547 q 265 438 283 483 q 247 339 247 393 q 265 240 247 285 q 315 163 282 194 q 392 113 347 131 q 490 96 436 96 q 602 119 553 96 q 692 176 651 143 l 751 88 q 624 10 693 38 q 479 -17 554 -17 m 456 786 l 385 854 l 586 1093 l 682 1000 l 456 786 z "},"ĉ":{"ha":833,"x_min":106,"x_max":751,"o":"m 479 -17 q 331 7 400 -17 q 213 76 263 31 q 134 188 163 122 q 106 339 106 254 q 136 490 106 424 q 219 603 167 557 q 341 672 272 649 q 488 696 410 696 q 633 667 571 696 q 738 599 696 639 l 671 511 q 588 563 631 544 q 494 582 544 582 q 394 565 440 582 q 316 515 349 547 q 265 438 283 483 q 247 339 247 393 q 265 240 247 285 q 315 163 282 194 q 392 113 347 131 q 490 96 436 96 q 602 119 553 96 q 692 176 651 143 l 751 88 q 624 10 693 38 q 479 -17 554 -17 m 310 786 l 254 839 l 410 1029 l 549 1029 l 704 839 l 649 786 l 482 936 l 476 936 l 310 786 z "},"č":{"ha":833,"x_min":106,"x_max":751,"o":"m 479 -17 q 331 7 400 -17 q 213 76 263 31 q 134 188 163 122 q 106 339 106 254 q 136 490 106 424 q 219 603 167 557 q 341 672 272 649 q 488 696 410 696 q 633 667 571 696 q 738 599 696 639 l 671 511 q 588 563 631 544 q 494 582 544 582 q 394 565 440 582 q 316 515 349 547 q 265 438 283 483 q 247 339 247 393 q 265 240 247 285 q 315 163 282 194 q 392 113 347 131 q 490 96 436 96 q 602 119 553 96 q 692 176 651 143 l 751 88 q 624 10 693 38 q 479 -17 554 -17 m 410 799 l 254 989 l 310 1042 l 476 892 l 482 892 l 649 1042 l 704 989 l 549 799 l 410 799 z "},"ċ":{"ha":833,"x_min":106,"x_max":751,"o":"m 479 -17 q 331 7 400 -17 q 213 76 263 31 q 134 188 163 122 q 106 339 106 254 q 136 490 106 424 q 219 603 167 557 q 341 672 272 649 q 488 696 410 696 q 633 667 571 696 q 738 599 696 639 l 671 511 q 588 563 631 544 q 494 582 544 582 q 394 565 440 582 q 316 515 349 547 q 265 438 283 483 q 247 339 247 393 q 265 240 247 285 q 315 163 282 194 q 392 113 347 131 q 490 96 436 96 q 602 119 553 96 q 692 176 651 143 l 751 88 q 624 10 693 38 q 479 -17 554 -17 m 479 811 q 406 838 435 811 q 376 910 376 865 q 406 981 376 954 q 479 1008 435 1008 q 553 981 524 1008 q 582 910 582 954 q 553 838 582 865 q 479 811 524 811 z "},"ď":{"ha":833,"x_min":68,"x_max":867,"o":"m 340 -17 q 142 76 217 -17 q 68 339 68 169 q 92 488 68 422 q 155 600 115 554 q 245 671 194 646 q 351 696 296 696 q 449 674 407 696 q 532 611 492 651 l 536 611 l 529 732 l 529 985 l 660 985 l 660 0 l 554 0 l 543 83 l 539 83 q 448 13 499 43 q 340 -17 397 -17 m 371 97 q 452 121 414 97 q 529 189 490 144 l 529 511 q 453 564 489 547 q 382 581 418 581 q 312 564 344 581 q 255 516 279 547 q 217 440 231 485 q 203 340 203 396 q 247 160 203 222 q 371 97 292 97 m 749 761 l 743 1136 l 867 1136 l 865 1017 l 842 761 l 749 761 z "},"ḍ":{"ha":833,"x_min":78,"x_max":711,"o":"m 371 -17 q 251 7 304 -17 q 158 76 197 31 q 99 188 119 122 q 78 339 78 254 q 103 488 78 422 q 172 600 129 554 q 269 671 214 646 q 382 696 324 696 q 488 674 442 696 q 576 611 535 651 l 581 611 l 574 732 l 574 985 l 711 985 l 711 0 l 599 0 l 588 83 l 583 83 q 488 13 543 43 q 371 -17 432 -17 m 403 97 q 574 189 494 97 l 574 511 q 493 565 533 550 q 413 581 453 581 q 338 564 372 581 q 276 516 303 547 q 235 440 250 485 q 219 340 219 396 q 267 160 219 222 q 403 97 315 97 m 424 -308 q 350 -281 379 -308 q 321 -210 321 -254 q 350 -138 321 -165 q 424 -111 379 -111 q 497 -138 468 -111 q 526 -210 526 -165 q 497 -281 526 -254 q 424 -308 468 -308 z "},"ḏ":{"ha":833,"x_min":78,"x_max":711,"o":"m 371 -17 q 251 7 304 -17 q 158 76 197 31 q 99 188 119 122 q 78 339 78 254 q 103 488 78 422 q 172 600 129 554 q 269 671 214 646 q 382 696 324 696 q 488 674 442 696 q 576 611 535 651 l 581 611 l 574 732 l 574 985 l 711 985 l 711 0 l 599 0 l 588 83 l 583 83 q 488 13 543 43 q 371 -17 432 -17 m 403 97 q 574 189 494 97 l 574 511 q 493 565 533 550 q 413 581 453 581 q 338 564 372 581 q 276 516 303 547 q 235 440 250 485 q 219 340 219 396 q 267 160 219 222 q 403 97 315 97 m 233 -242 l 233 -149 l 614 -149 l 614 -242 l 233 -242 z "},"ḑ":{"ha":833,"x_min":78,"x_max":711,"o":"m 371 -17 q 251 7 304 -17 q 158 76 197 31 q 99 188 119 122 q 78 339 78 254 q 103 488 78 422 q 172 600 129 554 q 269 671 214 646 q 382 696 324 696 q 488 674 442 696 q 576 611 535 651 l 581 611 l 574 732 l 574 985 l 711 985 l 711 0 l 599 0 l 588 83 l 583 83 q 488 13 543 43 q 371 -17 432 -17 m 403 97 q 574 189 494 97 l 574 511 q 493 565 533 550 q 413 581 453 581 q 338 564 372 581 q 276 516 303 547 q 235 440 250 485 q 219 340 219 396 q 267 160 219 222 q 403 97 315 97 m 278 -319 l 267 -256 q 384 -235 353 -250 q 415 -189 415 -219 q 392 -149 415 -164 q 308 -125 369 -133 l 367 13 l 453 13 l 417 -87 q 492 -122 465 -99 q 518 -187 518 -144 q 456 -283 518 -251 q 278 -319 394 -314 z "},"đ":{"ha":833,"x_min":79,"x_max":811,"o":"m 371 -17 q 158 72 238 -17 q 79 324 79 160 q 104 468 79 404 q 172 576 129 532 q 269 644 214 621 q 382 668 324 668 q 490 645 443 668 q 576 583 536 622 l 581 583 l 575 704 l 575 778 l 339 778 l 339 871 l 575 871 l 575 985 l 711 985 l 711 871 l 811 871 l 811 786 l 711 778 l 711 0 l 599 0 l 588 85 l 583 85 q 487 13 543 43 q 371 -17 431 -17 m 401 97 q 575 189 493 97 l 575 483 q 494 537 533 521 q 415 553 454 553 q 340 537 375 553 q 278 491 304 521 q 236 419 251 461 q 221 326 221 378 q 268 157 221 217 q 401 97 315 97 z "},"è":{"ha":833,"x_min":90,"x_max":750,"o":"m 458 -17 q 314 7 381 -17 q 197 76 247 31 q 119 189 147 122 q 90 340 90 256 q 119 490 90 424 q 197 601 149 556 q 307 672 244 647 q 438 696 369 696 q 571 672 513 696 q 669 606 629 649 q 729 505 708 564 q 750 375 750 446 q 749 333 750 353 q 744 300 747 314 l 228 300 q 308 143 239 194 q 476 92 376 92 q 581 108 533 92 q 674 151 628 124 l 722 64 q 603 6 669 29 q 458 -17 538 -17 m 442 588 q 368 576 403 588 q 306 540 333 564 q 258 482 278 517 q 231 401 239 447 l 626 401 q 570 541 619 494 q 442 588 521 588 m 461 786 l 235 1000 l 331 1093 l 532 854 l 461 786 z "},"é":{"ha":833,"x_min":90,"x_max":750,"o":"m 458 -17 q 314 7 381 -17 q 197 76 247 31 q 119 189 147 122 q 90 340 90 256 q 119 490 90 424 q 197 601 149 556 q 307 672 244 647 q 438 696 369 696 q 571 672 513 696 q 669 606 629 649 q 729 505 708 564 q 750 375 750 446 q 749 333 750 353 q 744 300 747 314 l 228 300 q 308 143 239 194 q 476 92 376 92 q 581 108 533 92 q 674 151 628 124 l 722 64 q 603 6 669 29 q 458 -17 538 -17 m 442 588 q 368 576 403 588 q 306 540 333 564 q 258 482 278 517 q 231 401 239 447 l 626 401 q 570 541 619 494 q 442 588 521 588 m 414 786 l 343 854 l 544 1093 l 640 1000 l 414 786 z "},"ê":{"ha":833,"x_min":90,"x_max":750,"o":"m 458 -17 q 314 7 381 -17 q 197 76 247 31 q 119 189 147 122 q 90 340 90 256 q 119 490 90 424 q 197 601 149 556 q 307 672 244 647 q 438 696 369 696 q 571 672 513 696 q 669 606 629 649 q 729 505 708 564 q 750 375 750 446 q 749 333 750 353 q 744 300 747 314 l 228 300 q 308 143 239 194 q 476 92 376 92 q 581 108 533 92 q 674 151 628 124 l 722 64 q 603 6 669 29 q 458 -17 538 -17 m 442 588 q 368 576 403 588 q 306 540 333 564 q 258 482 278 517 q 231 401 239 447 l 626 401 q 570 541 619 494 q 442 588 521 588 m 268 786 l 213 839 l 368 1029 l 507 1029 l 663 839 l 607 786 l 440 936 l 435 936 l 268 786 z "},"ě":{"ha":833,"x_min":90,"x_max":750,"o":"m 458 -17 q 314 7 381 -17 q 197 76 247 31 q 119 189 147 122 q 90 340 90 256 q 119 490 90 424 q 197 601 149 556 q 307 672 244 647 q 438 696 369 696 q 571 672 513 696 q 669 606 629 649 q 729 505 708 564 q 750 375 750 446 q 749 333 750 353 q 744 300 747 314 l 228 300 q 308 143 239 194 q 476 92 376 92 q 581 108 533 92 q 674 151 628 124 l 722 64 q 603 6 669 29 q 458 -17 538 -17 m 442 588 q 368 576 403 588 q 306 540 333 564 q 258 482 278 517 q 231 401 239 447 l 626 401 q 570 541 619 494 q 442 588 521 588 m 368 799 l 213 989 l 268 1042 l 435 892 l 440 892 l 607 1042 l 663 989 l 507 799 l 368 799 z "},"ë":{"ha":833,"x_min":90,"x_max":750,"o":"m 458 -17 q 314 7 381 -17 q 197 76 247 31 q 119 189 147 122 q 90 340 90 256 q 119 490 90 424 q 197 601 149 556 q 307 672 244 647 q 438 696 369 696 q 571 672 513 696 q 669 606 629 649 q 729 505 708 564 q 750 375 750 446 q 749 333 750 353 q 744 300 747 314 l 228 300 q 308 143 239 194 q 476 92 376 92 q 581 108 533 92 q 674 151 628 124 l 722 64 q 603 6 669 29 q 458 -17 538 -17 m 442 588 q 368 576 403 588 q 306 540 333 564 q 258 482 278 517 q 231 401 239 447 l 626 401 q 570 541 619 494 q 442 588 521 588 m 297 811 q 236 836 260 811 q 213 897 213 861 q 236 958 213 933 q 297 983 260 983 q 359 958 335 983 q 383 897 383 933 q 359 836 383 861 q 297 811 335 811 m 578 811 q 516 836 540 811 q 492 897 492 861 q 516 958 492 933 q 578 983 540 983 q 639 958 615 983 q 663 897 663 933 q 639 836 663 861 q 578 811 615 811 z "},"ē":{"ha":833,"x_min":90,"x_max":750,"o":"m 458 -17 q 314 7 381 -17 q 197 76 247 31 q 119 189 147 122 q 90 340 90 256 q 119 490 90 424 q 197 601 149 556 q 307 672 244 647 q 438 696 369 696 q 571 672 513 696 q 669 606 629 649 q 729 505 708 564 q 750 375 750 446 q 749 333 750 353 q 744 300 747 314 l 228 300 q 308 143 239 194 q 476 92 376 92 q 581 108 533 92 q 674 151 628 124 l 722 64 q 603 6 669 29 q 458 -17 538 -17 m 442 588 q 368 576 403 588 q 306 540 333 564 q 258 482 278 517 q 231 401 239 447 l 626 401 q 570 541 619 494 q 442 588 521 588 m 247 831 l 247 924 l 628 924 l 628 831 l 247 831 z "},"ĕ":{"ha":833,"x_min":90,"x_max":750,"o":"m 458 -17 q 314 7 381 -17 q 197 76 247 31 q 119 189 147 122 q 90 340 90 256 q 119 490 90 424 q 197 601 149 556 q 307 672 244 647 q 438 696 369 696 q 571 672 513 696 q 669 606 629 649 q 729 505 708 564 q 750 375 750 446 q 749 333 750 353 q 744 300 747 314 l 228 300 q 308 143 239 194 q 476 92 376 92 q 581 108 533 92 q 674 151 628 124 l 722 64 q 603 6 669 29 q 458 -17 538 -17 m 442 588 q 368 576 403 588 q 306 540 333 564 q 258 482 278 517 q 231 401 239 447 l 626 401 q 570 541 619 494 q 442 588 521 588 m 438 793 q 340 811 381 793 q 272 859 299 829 q 232 927 246 889 q 215 1006 218 965 l 299 1019 q 313 969 303 993 q 340 926 322 944 q 381 895 357 907 q 438 883 406 883 q 494 895 469 883 q 535 926 518 907 q 563 969 553 944 q 576 1019 572 993 l 660 1006 q 643 927 657 965 q 603 859 629 889 q 535 811 576 829 q 438 793 494 793 z "},"ę":{"ha":833,"x_min":90,"x_max":750,"o":"m 583 -314 q 477 -281 518 -314 q 436 -182 436 -249 q 464 -87 436 -129 q 538 -4 492 -44 q 488 -16 507 -15 q 458 -17 468 -17 q 314 7 381 -17 q 197 76 247 31 q 119 188 147 122 q 90 338 90 254 q 119 488 90 421 q 197 601 149 554 q 307 672 244 647 q 438 696 369 696 q 571 672 513 696 q 669 606 629 649 q 729 505 708 564 q 750 375 750 446 q 749 333 750 353 q 744 300 747 314 l 228 300 q 308 143 239 194 q 476 92 376 92 q 581 108 533 92 q 674 151 628 124 l 722 64 q 633 -2 669 26 q 575 -56 597 -31 q 543 -104 553 -81 q 533 -153 533 -128 q 558 -208 533 -190 q 614 -226 582 -226 q 653 -219 636 -226 q 685 -200 671 -211 l 721 -264 q 659 -301 694 -287 q 583 -314 624 -314 m 442 588 q 368 576 403 588 q 306 540 333 564 q 258 482 278 517 q 231 401 239 447 l 626 401 q 570 541 619 494 q 442 588 521 588 z "},"ė":{"ha":833,"x_min":90,"x_max":750,"o":"m 458 -17 q 314 7 381 -17 q 197 76 247 31 q 119 189 147 122 q 90 340 90 256 q 119 490 90 424 q 197 601 149 556 q 307 672 244 647 q 438 696 369 696 q 571 672 513 696 q 669 606 629 649 q 729 505 708 564 q 750 375 750 446 q 749 333 750 353 q 744 300 747 314 l 228 300 q 308 143 239 194 q 476 92 376 92 q 581 108 533 92 q 674 151 628 124 l 722 64 q 603 6 669 29 q 458 -17 538 -17 m 442 588 q 368 576 403 588 q 306 540 333 564 q 258 482 278 517 q 231 401 239 447 l 626 401 q 570 541 619 494 q 442 588 521 588 m 438 811 q 364 838 393 811 q 335 910 335 865 q 364 981 335 954 q 438 1008 393 1008 q 511 981 482 1008 q 540 910 540 954 q 511 838 540 865 q 438 811 482 811 z "},"ẹ":{"ha":833,"x_min":90,"x_max":750,"o":"m 458 -17 q 314 7 381 -17 q 197 76 247 31 q 119 189 147 122 q 90 340 90 256 q 119 490 90 424 q 197 601 149 556 q 307 672 244 647 q 438 696 369 696 q 571 672 513 696 q 669 606 629 649 q 729 505 708 564 q 750 375 750 446 q 749 333 750 353 q 744 300 747 314 l 228 300 q 308 143 239 194 q 476 92 376 92 q 581 108 533 92 q 674 151 628 124 l 722 64 q 603 6 669 29 q 458 -17 538 -17 m 442 588 q 368 576 403 588 q 306 540 333 564 q 258 482 278 517 q 231 401 239 447 l 626 401 q 570 541 619 494 q 442 588 521 588 m 438 -308 q 364 -281 393 -308 q 335 -210 335 -254 q 364 -138 335 -165 q 438 -111 393 -111 q 511 -138 482 -111 q 540 -210 540 -165 q 511 -281 540 -254 q 438 -308 482 -308 z "},"ẻ":{"ha":833,"x_min":90,"x_max":750,"o":"m 458 -17 q 314 7 381 -17 q 197 76 247 31 q 119 189 147 122 q 90 340 90 256 q 119 490 90 424 q 197 601 149 556 q 307 672 244 647 q 438 696 369 696 q 571 672 513 696 q 669 606 629 649 q 729 505 708 564 q 750 375 750 446 q 749 333 750 353 q 744 300 747 314 l 228 300 q 308 143 239 194 q 476 92 376 92 q 581 108 533 92 q 674 151 628 124 l 722 64 q 603 6 669 29 q 458 -17 538 -17 m 442 588 q 368 576 403 588 q 306 540 333 564 q 258 482 278 517 q 231 401 239 447 l 626 401 q 570 541 619 494 q 442 588 521 588 m 389 793 l 375 856 q 428 876 407 863 q 450 917 450 890 q 336 979 450 974 l 344 1068 q 501 1028 449 1065 q 554 928 554 992 q 541 873 554 896 q 505 833 528 850 q 452 807 482 817 q 389 793 422 797 z "},"ẽ":{"ha":833,"x_min":90,"x_max":750,"o":"m 458 -17 q 314 7 381 -17 q 197 76 247 31 q 119 189 147 122 q 90 340 90 256 q 119 490 90 424 q 197 601 149 556 q 307 672 244 647 q 438 696 369 696 q 571 672 513 696 q 669 606 629 649 q 729 505 708 564 q 750 375 750 446 q 749 333 750 353 q 744 300 747 314 l 228 300 q 308 143 239 194 q 476 92 376 92 q 581 108 533 92 q 674 151 628 124 l 722 64 q 603 6 669 29 q 458 -17 538 -17 m 442 588 q 368 576 403 588 q 306 540 333 564 q 258 482 278 517 q 231 401 239 447 l 626 401 q 570 541 619 494 q 442 588 521 588 m 536 800 q 474 817 500 800 q 425 855 447 835 q 383 892 403 875 q 342 910 364 910 q 298 883 313 910 q 281 808 283 856 l 192 814 q 230 954 194 901 q 340 1007 265 1007 q 402 990 375 1007 q 451 953 429 974 q 492 915 472 932 q 535 899 513 899 q 577 926 563 899 q 594 1000 592 953 l 683 994 q 646 853 681 907 q 536 800 611 800 z "},"ế":{"ha":833,"x_min":90,"x_max":779,"o":"m 458 -17 q 314 7 381 -17 q 197 76 247 31 q 119 189 147 122 q 90 340 90 256 q 119 490 90 424 q 197 601 149 556 q 307 672 244 647 q 438 696 369 696 q 571 672 513 696 q 669 606 629 649 q 729 505 708 564 q 750 375 750 446 q 749 333 750 353 q 744 300 747 314 l 228 300 q 308 143 239 194 q 476 92 376 92 q 581 108 533 92 q 674 151 628 124 l 722 64 q 603 6 669 29 q 458 -17 538 -17 m 442 588 q 368 576 403 588 q 306 540 333 564 q 258 482 278 517 q 231 401 239 447 l 626 401 q 570 541 619 494 q 442 588 521 588 m 292 790 l 246 844 l 382 972 l 493 972 l 629 844 l 583 790 l 440 888 l 435 888 l 292 790 m 639 885 l 582 929 l 701 1099 l 779 1046 l 639 885 z "},"ề":{"ha":833,"x_min":82,"x_max":750,"o":"m 458 -17 q 314 7 381 -17 q 197 76 247 31 q 119 189 147 122 q 90 340 90 256 q 119 490 90 424 q 197 601 149 556 q 307 672 244 647 q 438 696 369 696 q 571 672 513 696 q 669 606 629 649 q 729 505 708 564 q 750 375 750 446 q 749 333 750 353 q 744 300 747 314 l 228 300 q 308 143 239 194 q 476 92 376 92 q 581 108 533 92 q 674 151 628 124 l 722 64 q 603 6 669 29 q 458 -17 538 -17 m 442 588 q 368 576 403 588 q 306 540 333 564 q 258 482 278 517 q 231 401 239 447 l 626 401 q 570 541 619 494 q 442 588 521 588 m 292 790 l 246 844 l 382 972 l 493 972 l 629 844 l 583 790 l 440 888 l 435 888 l 292 790 m 236 885 l 82 1043 l 160 1099 l 293 933 l 236 885 z "},"ể":{"ha":833,"x_min":90,"x_max":750,"o":"m 458 -17 q 314 7 381 -17 q 197 76 247 31 q 119 189 147 122 q 90 340 90 256 q 119 490 90 424 q 197 601 149 556 q 307 672 244 647 q 438 696 369 696 q 571 672 513 696 q 669 606 629 649 q 729 505 708 564 q 750 375 750 446 q 749 333 750 353 q 744 300 747 314 l 228 300 q 308 143 239 194 q 476 92 376 92 q 581 108 533 92 q 674 151 628 124 l 722 64 q 603 6 669 29 q 458 -17 538 -17 m 442 588 q 368 576 403 588 q 306 540 333 564 q 258 482 278 517 q 231 401 239 447 l 626 401 q 570 541 619 494 q 442 588 521 588 m 292 790 l 246 844 l 382 972 l 493 972 l 629 844 l 583 790 l 440 888 l 435 888 l 292 790 m 606 886 l 593 939 q 633 957 618 946 q 649 990 649 968 q 627 1028 649 1015 q 554 1044 606 1042 l 565 1108 q 744 1004 744 1101 q 733 955 744 975 q 702 921 721 935 q 658 899 683 907 q 606 886 632 892 z "},"ễ":{"ha":833,"x_min":90,"x_max":750,"o":"m 458 -17 q 314 7 381 -17 q 197 76 247 31 q 119 189 147 122 q 90 340 90 256 q 119 490 90 424 q 197 601 149 556 q 307 672 244 647 q 438 696 369 696 q 571 672 513 696 q 669 606 629 649 q 729 505 708 564 q 750 375 750 446 q 749 333 750 353 q 744 300 747 314 l 228 300 q 308 143 239 194 q 476 92 376 92 q 581 108 533 92 q 674 151 628 124 l 722 64 q 603 6 669 29 q 458 -17 538 -17 m 442 588 q 368 576 403 588 q 306 540 333 564 q 258 482 278 517 q 231 401 239 447 l 626 401 q 570 541 619 494 q 442 588 521 588 m 292 790 l 246 844 l 382 965 l 493 965 l 629 844 l 583 790 l 440 882 l 435 882 l 292 790 m 525 989 q 472 998 496 989 q 429 1018 449 1007 q 392 1038 410 1029 q 357 1047 375 1047 q 328 1033 338 1047 q 313 990 318 1019 l 243 997 q 275 1092 250 1057 q 350 1128 300 1128 q 402 1119 379 1128 q 444 1099 425 1110 q 481 1078 464 1088 q 518 1069 499 1069 q 547 1083 538 1069 q 563 1126 557 1097 l 632 1119 q 600 1024 625 1058 q 525 989 575 989 z "},"ệ":{"ha":833,"x_min":90,"x_max":750,"o":"m 458 -17 q 314 7 381 -17 q 197 76 247 31 q 119 189 147 122 q 90 340 90 256 q 119 490 90 424 q 197 601 149 556 q 307 672 244 647 q 438 696 369 696 q 571 672 513 696 q 669 606 629 649 q 729 505 708 564 q 750 375 750 446 q 749 333 750 353 q 744 300 747 314 l 228 300 q 308 143 239 194 q 476 92 376 92 q 581 108 533 92 q 674 151 628 124 l 722 64 q 603 6 669 29 q 458 -17 538 -17 m 442 588 q 368 576 403 588 q 306 540 333 564 q 258 482 278 517 q 231 401 239 447 l 626 401 q 570 541 619 494 q 442 588 521 588 m 268 786 l 213 839 l 368 1029 l 507 1029 l 663 839 l 607 786 l 440 936 l 435 936 l 268 786 m 438 -308 q 364 -281 393 -308 q 335 -210 335 -254 q 364 -138 335 -165 q 438 -111 393 -111 q 511 -138 482 -111 q 540 -210 540 -165 q 511 -281 540 -254 q 438 -308 482 -308 z "},"ḗ":{"ha":833,"x_min":90,"x_max":750,"o":"m 458 -17 q 314 7 381 -17 q 197 76 247 31 q 119 189 147 122 q 90 340 90 256 q 119 490 90 424 q 197 601 149 556 q 307 672 244 647 q 438 696 369 696 q 571 672 513 696 q 669 606 629 649 q 729 505 708 564 q 750 375 750 446 q 749 333 750 353 q 744 300 747 314 l 228 300 q 308 143 239 194 q 476 92 376 92 q 581 108 533 92 q 674 151 628 124 l 722 64 q 603 6 669 29 q 458 -17 538 -17 m 442 588 q 368 576 403 588 q 306 540 333 564 q 258 482 278 517 q 231 401 239 447 l 626 401 q 570 541 619 494 q 442 588 521 588 m 247 831 l 247 924 l 628 924 l 628 831 l 247 831 m 393 982 l 342 1043 l 532 1183 l 593 1107 l 393 982 z "},"ǵ":{"ha":833,"x_min":93,"x_max":789,"o":"m 404 -307 q 176 -260 258 -307 q 93 -122 93 -212 q 203 25 93 -36 l 203 31 q 154 73 175 46 q 133 143 133 100 q 155 210 133 176 q 214 271 176 244 l 214 276 q 153 347 178 303 q 129 451 129 390 q 151 553 129 508 q 211 631 174 599 q 298 679 249 663 q 403 696 347 696 q 506 679 460 696 l 785 679 l 785 571 l 619 571 q 654 516 639 549 q 669 447 669 483 q 649 349 669 392 q 592 276 628 306 q 507 231 556 246 q 403 215 458 215 q 349 221 378 215 q 293 238 321 226 q 246 167 246 207 q 381 96 246 96 l 525 96 q 724 58 658 96 q 789 -67 789 21 q 762 -160 789 -117 q 685 -237 735 -204 q 563 -288 635 -269 q 404 -307 492 -307 m 403 304 q 503 343 461 304 q 544 451 544 382 q 503 558 544 518 q 403 599 461 599 q 302 558 344 599 q 260 451 260 518 q 302 343 260 382 q 403 304 344 304 m 418 -211 q 516 -201 472 -211 q 590 -174 560 -190 q 638 -135 621 -157 q 654 -90 654 -114 q 618 -31 654 -46 q 510 -15 582 -15 l 389 -15 q 332 -13 357 -15 q 286 -4 307 -11 q 226 -53 243 -28 q 208 -106 208 -79 q 263 -183 208 -154 q 418 -211 317 -211 m 401 786 l 331 854 l 532 1093 l 628 1000 l 401 786 z "},"ĝ":{"ha":833,"x_min":93,"x_max":789,"o":"m 404 -307 q 176 -260 258 -307 q 93 -122 93 -212 q 203 25 93 -36 l 203 31 q 154 73 175 46 q 133 143 133 100 q 155 210 133 176 q 214 271 176 244 l 214 276 q 153 347 178 303 q 129 451 129 390 q 151 553 129 508 q 211 631 174 599 q 298 679 249 663 q 403 696 347 696 q 506 679 460 696 l 785 679 l 785 571 l 619 571 q 654 516 639 549 q 669 447 669 483 q 649 349 669 392 q 592 276 628 306 q 507 231 556 246 q 403 215 458 215 q 349 221 378 215 q 293 238 321 226 q 246 167 246 207 q 381 96 246 96 l 525 96 q 724 58 658 96 q 789 -67 789 21 q 762 -160 789 -117 q 685 -237 735 -204 q 563 -288 635 -269 q 404 -307 492 -307 m 403 304 q 503 343 461 304 q 544 451 544 382 q 503 558 544 518 q 403 599 461 599 q 302 558 344 599 q 260 451 260 518 q 302 343 260 382 q 403 304 344 304 m 418 -211 q 516 -201 472 -211 q 590 -174 560 -190 q 638 -135 621 -157 q 654 -90 654 -114 q 618 -31 654 -46 q 510 -15 582 -15 l 389 -15 q 332 -13 357 -15 q 286 -4 307 -11 q 226 -53 243 -28 q 208 -106 208 -79 q 263 -183 208 -154 q 418 -211 317 -211 m 256 786 l 200 839 l 356 1029 l 494 1029 l 650 839 l 594 786 l 428 936 l 422 936 l 256 786 z "},"ğ":{"ha":833,"x_min":93,"x_max":789,"o":"m 404 -307 q 176 -260 258 -307 q 93 -122 93 -212 q 203 25 93 -36 l 203 31 q 154 73 175 46 q 133 143 133 100 q 155 210 133 176 q 214 271 176 244 l 214 276 q 153 347 178 303 q 129 451 129 390 q 151 553 129 508 q 211 631 174 599 q 298 679 249 663 q 403 696 347 696 q 506 679 460 696 l 785 679 l 785 571 l 619 571 q 654 516 639 549 q 669 447 669 483 q 649 349 669 392 q 592 276 628 306 q 507 231 556 246 q 403 215 458 215 q 349 221 378 215 q 293 238 321 226 q 246 167 246 207 q 381 96 246 96 l 525 96 q 724 58 658 96 q 789 -67 789 21 q 762 -160 789 -117 q 685 -237 735 -204 q 563 -288 635 -269 q 404 -307 492 -307 m 403 304 q 503 343 461 304 q 544 451 544 382 q 503 558 544 518 q 403 599 461 599 q 302 558 344 599 q 260 451 260 518 q 302 343 260 382 q 403 304 344 304 m 418 -211 q 516 -201 472 -211 q 590 -174 560 -190 q 638 -135 621 -157 q 654 -90 654 -114 q 618 -31 654 -46 q 510 -15 582 -15 l 389 -15 q 332 -13 357 -15 q 286 -4 307 -11 q 226 -53 243 -28 q 208 -106 208 -79 q 263 -183 208 -154 q 418 -211 317 -211 m 425 793 q 327 811 368 793 q 260 859 286 829 q 219 927 233 889 q 203 1006 206 965 l 286 1019 q 300 969 290 993 q 327 926 310 944 q 369 895 344 907 q 425 883 393 883 q 481 895 457 883 q 523 926 506 907 q 550 969 540 944 q 564 1019 560 993 l 647 1006 q 631 927 644 965 q 590 859 617 889 q 523 811 564 829 q 425 793 482 793 z "},"ġ":{"ha":833,"x_min":93,"x_max":789,"o":"m 404 -307 q 176 -260 258 -307 q 93 -122 93 -212 q 203 25 93 -36 l 203 31 q 154 73 175 46 q 133 143 133 100 q 155 210 133 176 q 214 271 176 244 l 214 276 q 153 347 178 303 q 129 451 129 390 q 151 553 129 508 q 211 631 174 599 q 298 679 249 663 q 403 696 347 696 q 506 679 460 696 l 785 679 l 785 571 l 619 571 q 654 516 639 549 q 669 447 669 483 q 649 349 669 392 q 592 276 628 306 q 507 231 556 246 q 403 215 458 215 q 349 221 378 215 q 293 238 321 226 q 246 167 246 207 q 381 96 246 96 l 525 96 q 724 58 658 96 q 789 -67 789 21 q 762 -160 789 -117 q 685 -237 735 -204 q 563 -288 635 -269 q 404 -307 492 -307 m 403 304 q 503 343 461 304 q 544 451 544 382 q 503 558 544 518 q 403 599 461 599 q 302 558 344 599 q 260 451 260 518 q 302 343 260 382 q 403 304 344 304 m 418 -211 q 516 -201 472 -211 q 590 -174 560 -190 q 638 -135 621 -157 q 654 -90 654 -114 q 618 -31 654 -46 q 510 -15 582 -15 l 389 -15 q 332 -13 357 -15 q 286 -4 307 -11 q 226 -53 243 -28 q 208 -106 208 -79 q 263 -183 208 -154 q 418 -211 317 -211 m 425 811 q 351 838 381 811 q 322 910 322 865 q 351 981 322 954 q 425 1008 381 1008 q 499 981 469 1008 q 528 910 528 954 q 499 838 528 865 q 425 811 469 811 z "},"ģ":{"ha":833,"x_min":93,"x_max":789,"o":"m 404 -307 q 176 -260 258 -307 q 93 -122 93 -212 q 203 25 93 -36 l 203 31 q 154 73 175 46 q 133 143 133 100 q 155 210 133 176 q 214 271 176 244 l 214 276 q 153 347 178 303 q 129 451 129 390 q 151 553 129 508 q 211 631 174 599 q 298 679 249 663 q 403 696 347 696 q 506 679 460 696 l 785 679 l 785 571 l 619 571 q 654 516 639 549 q 669 447 669 483 q 649 349 669 392 q 592 276 628 306 q 507 231 556 246 q 403 215 458 215 q 349 221 378 215 q 293 238 321 226 q 246 167 246 207 q 381 96 246 96 l 525 96 q 724 58 658 96 q 789 -67 789 21 q 762 -160 789 -117 q 685 -237 735 -204 q 563 -288 635 -269 q 404 -307 492 -307 m 403 304 q 503 343 461 304 q 544 451 544 382 q 503 558 544 518 q 403 599 461 599 q 302 558 344 599 q 260 451 260 518 q 302 343 260 382 q 403 304 344 304 m 418 -211 q 516 -201 472 -211 q 590 -174 560 -190 q 638 -135 621 -157 q 654 -90 654 -114 q 618 -31 654 -46 q 510 -15 582 -15 l 389 -15 q 332 -13 357 -15 q 286 -4 307 -11 q 226 -53 243 -28 q 208 -106 208 -79 q 263 -183 208 -154 q 418 -211 317 -211 m 482 796 q 348 832 385 807 q 311 906 311 857 q 373 1001 311 969 q 551 1038 435 1032 l 563 974 q 445 953 476 968 q 414 911 414 939 q 510 856 414 864 l 482 796 z "},"ǧ":{"ha":833,"x_min":93,"x_max":789,"o":"m 404 -307 q 176 -260 258 -307 q 93 -122 93 -212 q 203 25 93 -36 l 203 31 q 154 73 175 46 q 133 143 133 100 q 155 210 133 176 q 214 271 176 244 l 214 276 q 153 347 178 303 q 129 451 129 390 q 151 553 129 508 q 211 631 174 599 q 298 679 249 663 q 403 696 347 696 q 506 679 460 696 l 785 679 l 785 571 l 619 571 q 654 516 639 549 q 669 447 669 483 q 649 349 669 392 q 592 276 628 306 q 507 231 556 246 q 403 215 458 215 q 349 221 378 215 q 293 238 321 226 q 246 167 246 207 q 381 96 246 96 l 525 96 q 724 58 658 96 q 789 -67 789 21 q 762 -160 789 -117 q 685 -237 735 -204 q 563 -288 635 -269 q 404 -307 492 -307 m 403 304 q 503 343 461 304 q 544 451 544 382 q 503 558 544 518 q 403 599 461 599 q 302 558 344 599 q 260 451 260 518 q 302 343 260 382 q 403 304 344 304 m 418 -211 q 516 -201 472 -211 q 590 -174 560 -190 q 638 -135 621 -157 q 654 -90 654 -114 q 618 -31 654 -46 q 510 -15 582 -15 l 389 -15 q 332 -13 357 -15 q 286 -4 307 -11 q 226 -53 243 -28 q 208 -106 208 -79 q 263 -183 208 -154 q 418 -211 317 -211 m 356 799 l 200 989 l 256 1042 l 422 892 l 428 892 l 594 1042 l 650 989 l 494 799 l 356 799 z "},"ḡ":{"ha":833,"x_min":93,"x_max":789,"o":"m 404 -307 q 176 -260 258 -307 q 93 -122 93 -212 q 203 25 93 -36 l 203 31 q 154 73 175 46 q 133 143 133 100 q 155 210 133 176 q 214 271 176 244 l 214 276 q 153 347 178 303 q 129 451 129 390 q 151 553 129 508 q 211 631 174 599 q 298 679 249 663 q 403 696 347 696 q 506 679 460 696 l 785 679 l 785 571 l 619 571 q 654 516 639 549 q 669 447 669 483 q 649 349 669 392 q 592 276 628 306 q 507 231 556 246 q 403 215 458 215 q 349 221 378 215 q 293 238 321 226 q 246 167 246 207 q 381 96 246 96 l 525 96 q 724 58 658 96 q 789 -67 789 21 q 762 -160 789 -117 q 685 -237 735 -204 q 563 -288 635 -269 q 404 -307 492 -307 m 403 304 q 503 343 461 304 q 544 451 544 382 q 503 558 544 518 q 403 599 461 599 q 302 558 344 599 q 260 451 260 518 q 302 343 260 382 q 403 304 344 304 m 418 -211 q 516 -201 472 -211 q 590 -174 560 -190 q 638 -135 621 -157 q 654 -90 654 -114 q 618 -31 654 -46 q 510 -15 582 -15 l 389 -15 q 332 -13 357 -15 q 286 -4 307 -11 q 226 -53 243 -28 q 208 -106 208 -79 q 263 -183 208 -154 q 418 -211 317 -211 m 235 831 l 235 924 l 615 924 l 615 831 l 235 831 z "},"ĥ":{"ha":833,"x_min":-24,"x_max":732,"o":"m 122 0 l 122 985 l 260 985 l 260 724 l 251 571 l 256 571 q 363 660 304 624 q 501 696 422 696 q 676 625 621 696 q 732 421 732 554 l 732 0 l 594 0 l 594 403 q 563 534 594 492 q 453 576 531 576 q 356 549 399 576 q 260 468 313 522 l 260 0 l 122 0 m 36 1049 l -24 1090 l 115 1246 l 263 1246 l 401 1090 l 342 1049 l 192 1175 l 186 1175 l 36 1049 z "},"ḧ":{"ha":833,"x_min":-24,"x_max":732,"o":"m 122 0 l 122 985 l 260 985 l 260 724 l 251 571 l 256 571 q 363 660 304 624 q 501 696 422 696 q 676 625 621 696 q 732 421 732 554 l 732 0 l 594 0 l 594 403 q 563 534 594 492 q 453 576 531 576 q 356 549 399 576 q 260 468 313 522 l 260 0 l 122 0 m 56 1071 q -1 1093 21 1071 q -24 1150 -24 1115 q -1 1206 -24 1185 q 56 1228 21 1228 q 111 1206 89 1228 q 133 1150 133 1185 q 111 1093 133 1115 q 56 1071 89 1071 m 322 1071 q 267 1093 289 1071 q 244 1150 244 1115 q 267 1206 244 1185 q 322 1228 289 1228 q 379 1206 357 1228 q 401 1150 401 1185 q 379 1093 401 1115 q 322 1071 357 1071 z "},"ḥ":{"ha":833,"x_min":122,"x_max":732,"o":"m 122 0 l 122 985 l 260 985 l 260 724 l 251 571 l 256 571 q 363 660 304 624 q 501 696 422 696 q 676 625 621 696 q 732 421 732 554 l 732 0 l 594 0 l 594 403 q 563 534 594 492 q 453 576 531 576 q 356 549 399 576 q 260 468 313 522 l 260 0 l 122 0 m 433 -308 q 360 -281 389 -308 q 331 -210 331 -254 q 360 -138 331 -165 q 433 -111 389 -111 q 507 -138 478 -111 q 536 -210 536 -165 q 507 -281 536 -254 q 433 -308 478 -308 z "},"ẖ":{"ha":833,"x_min":122,"x_max":732,"o":"m 122 0 l 122 985 l 260 985 l 260 724 l 251 571 l 256 571 q 363 660 304 624 q 501 696 422 696 q 676 625 621 696 q 732 421 732 554 l 732 0 l 594 0 l 594 403 q 563 534 594 492 q 453 576 531 576 q 356 549 399 576 q 260 468 313 522 l 260 0 l 122 0 m 243 -242 l 243 -149 l 624 -149 l 624 -242 l 243 -242 z "},"ḩ":{"ha":833,"x_min":54,"x_max":732,"o":"m 122 0 l 122 985 l 260 985 l 260 724 l 251 571 l 256 571 q 363 660 304 624 q 501 696 422 696 q 676 625 621 696 q 732 421 732 554 l 732 0 l 594 0 l 594 403 q 563 534 594 492 q 453 576 531 576 q 356 549 399 576 q 260 468 313 522 l 260 0 l 122 0 m 65 -319 l 54 -256 q 172 -235 140 -250 q 203 -189 203 -219 q 180 -149 203 -164 q 96 -125 157 -133 l 154 13 l 240 13 l 204 -87 q 279 -122 253 -99 q 306 -187 306 -144 q 244 -283 306 -251 q 65 -319 182 -314 z "},"ḫ":{"ha":833,"x_min":122,"x_max":732,"o":"m 122 0 l 122 985 l 260 985 l 260 724 l 251 571 l 256 571 q 363 660 304 624 q 501 696 422 696 q 676 625 621 696 q 732 421 732 554 l 732 0 l 594 0 l 594 403 q 563 534 594 492 q 453 576 531 576 q 356 549 399 576 q 260 468 313 522 l 260 0 l 122 0 m 433 -321 q 335 -303 376 -321 q 268 -255 294 -285 q 228 -187 242 -225 q 211 -108 214 -149 l 294 -94 q 308 -145 299 -121 q 335 -188 318 -169 q 377 -219 353 -207 q 433 -231 401 -231 q 490 -219 465 -231 q 531 -188 514 -207 q 558 -145 549 -169 q 572 -94 568 -121 l 656 -108 q 639 -187 653 -149 q 599 -255 625 -225 q 531 -303 572 -285 q 433 -321 490 -321 z "},"ħ":{"ha":833,"x_min":22,"x_max":732,"o":"m 122 0 l 122 778 l 22 778 l 22 863 l 122 871 l 122 985 l 258 985 l 258 871 l 543 871 l 543 778 l 258 778 l 258 696 l 250 543 l 256 543 q 363 632 304 596 q 501 668 422 668 q 676 597 621 668 q 732 393 732 526 l 732 0 l 594 0 l 594 375 q 563 507 594 464 q 454 550 531 550 q 402 543 426 550 q 355 522 378 536 q 308 488 332 508 q 258 440 285 467 l 258 0 l 122 0 z "},"ì":{"ha":833,"x_min":121,"x_max":576,"o":"m 425 0 l 425 568 l 121 568 l 121 679 l 563 679 l 563 0 l 425 0 m 506 786 l 279 1000 l 375 1093 l 576 854 l 506 786 z "},"í":{"ha":833,"x_min":121,"x_max":685,"o":"m 425 0 l 425 568 l 121 568 l 121 679 l 563 679 l 563 0 l 425 0 m 458 786 l 388 854 l 589 1093 l 685 1000 l 458 786 z "},"î":{"ha":833,"x_min":121,"x_max":707,"o":"m 425 0 l 425 568 l 121 568 l 121 679 l 563 679 l 563 0 l 425 0 m 313 786 l 257 839 l 413 1029 l 551 1029 l 707 839 l 651 786 l 485 936 l 479 936 l 313 786 z "},"ĩ":{"ha":833,"x_min":121,"x_max":728,"o":"m 425 0 l 425 568 l 121 568 l 121 679 l 563 679 l 563 0 l 425 0 m 581 800 q 518 817 544 800 q 469 855 492 835 q 428 892 447 875 q 386 910 408 910 q 342 883 357 910 q 325 808 328 856 l 236 814 q 274 954 239 901 q 385 1007 310 1007 q 447 990 419 1007 q 495 953 474 974 q 537 915 517 932 q 579 899 557 899 q 622 926 607 899 q 639 1000 636 953 l 728 994 q 690 853 725 907 q 581 800 656 800 z "},"ï":{"ha":833,"x_min":121,"x_max":707,"o":"m 425 0 l 425 568 l 121 568 l 121 679 l 563 679 l 563 0 l 425 0 m 342 811 q 281 836 304 811 q 257 897 257 861 q 281 958 257 933 q 342 983 304 983 q 403 958 379 983 q 428 897 428 933 q 403 836 428 861 q 342 811 379 811 m 622 811 q 560 836 585 811 q 536 897 536 861 q 560 958 536 933 q 622 983 585 983 q 683 958 660 983 q 707 897 707 933 q 683 836 707 861 q 622 811 660 811 z "},"ī":{"ha":833,"x_min":121,"x_max":672,"o":"m 425 0 l 425 568 l 121 568 l 121 679 l 563 679 l 563 0 l 425 0 m 292 831 l 292 924 l 672 924 l 672 831 l 292 831 z "},"ǐ":{"ha":833,"x_min":121,"x_max":707,"o":"m 425 0 l 425 568 l 121 568 l 121 679 l 563 679 l 563 0 l 425 0 m 413 799 l 257 989 l 313 1042 l 479 892 l 485 892 l 651 1042 l 707 989 l 551 799 l 413 799 z "},"į":{"ha":833,"x_min":121,"x_max":625,"o":"m 489 -314 q 383 -281 426 -314 q 340 -182 340 -249 q 376 -77 340 -122 q 460 0 411 -32 l 425 0 l 425 568 l 121 568 l 121 679 l 563 679 l 563 -6 q 469 -74 499 -33 q 439 -154 439 -114 q 463 -208 439 -190 q 519 -226 488 -226 q 558 -219 540 -226 q 590 -200 575 -211 l 625 -264 q 565 -300 600 -286 q 489 -314 529 -314 m 482 811 q 408 838 438 811 q 379 910 379 865 q 408 981 379 954 q 482 1008 438 1008 q 556 981 526 1008 q 585 910 585 954 q 556 838 585 865 q 482 811 526 811 z "},"ỉ":{"ha":833,"x_min":121,"x_max":599,"o":"m 425 0 l 425 568 l 121 568 l 121 679 l 563 679 l 563 0 l 425 0 m 433 793 l 419 856 q 473 876 451 863 q 494 917 494 890 q 381 979 494 974 l 389 1068 q 546 1028 493 1065 q 599 928 599 992 q 585 873 599 896 q 549 833 572 850 q 497 807 526 817 q 433 793 467 797 z "},"ị":{"ha":833,"x_min":121,"x_max":585,"o":"m 425 0 l 425 568 l 121 568 l 121 679 l 563 679 l 563 0 l 425 0 m 482 811 q 408 838 438 811 q 379 910 379 865 q 408 981 379 954 q 482 1008 438 1008 q 556 981 526 1008 q 585 910 585 954 q 556 838 585 865 q 482 811 526 811 m 482 -308 q 408 -281 438 -308 q 379 -210 379 -254 q 408 -138 379 -165 q 482 -111 438 -111 q 556 -138 526 -111 q 585 -210 585 -165 q 556 -281 585 -254 q 482 -308 526 -308 z "},"ĭ":{"ha":833,"x_min":121,"x_max":704,"o":"m 425 0 l 425 568 l 121 568 l 121 679 l 563 679 l 563 0 l 425 0 m 482 793 q 384 811 425 793 q 317 859 343 829 q 276 927 290 889 q 260 1006 263 965 l 343 1019 q 357 969 347 993 q 384 926 367 944 q 426 895 401 907 q 482 883 450 883 q 538 895 514 883 q 580 926 563 907 q 607 969 597 944 q 621 1019 617 993 l 704 1006 q 688 927 701 965 q 647 859 674 889 q 580 811 621 829 q 482 793 539 793 z "},"ı":{"ha":833,"x_min":121,"x_max":563,"o":"m 425 0 l 425 568 l 121 568 l 121 679 l 563 679 l 563 0 l 425 0 z "},"ĵ":{"ha":833,"x_min":72,"x_max":707,"o":"m 269 -294 q 163 -281 214 -294 q 72 -249 113 -268 l 115 -147 q 265 -183 192 -183 q 392 -138 358 -183 q 425 -10 425 -93 l 425 568 l 121 568 l 121 679 l 563 679 l 563 -1 q 549 -117 563 -64 q 501 -210 535 -171 q 410 -272 467 -250 q 269 -294 354 -294 m 313 786 l 257 839 l 413 1029 l 551 1029 l 707 839 l 651 786 l 485 936 l 479 936 l 313 786 z "},"ķ":{"ha":833,"x_min":136,"x_max":801,"o":"m 136 0 l 136 985 l 274 985 l 274 343 l 279 343 l 614 679 l 768 679 l 501 410 l 801 0 l 650 0 l 417 325 l 274 181 l 274 0 l 136 0 m 335 -319 l 324 -256 q 441 -235 410 -250 q 472 -193 472 -221 q 376 -137 472 -146 l 404 -78 q 538 -114 501 -89 q 575 -187 575 -139 q 513 -283 575 -251 q 335 -319 451 -314 z "},"ḳ":{"ha":833,"x_min":136,"x_max":801,"o":"m 136 0 l 136 985 l 274 985 l 274 343 l 279 343 l 614 679 l 768 679 l 501 410 l 801 0 l 650 0 l 417 325 l 274 181 l 274 0 l 136 0 m 461 -308 q 388 -281 417 -308 q 358 -210 358 -254 q 388 -138 358 -165 q 461 -111 417 -111 q 535 -138 506 -111 q 564 -210 564 -165 q 535 -281 564 -254 q 461 -308 506 -308 z "},"ḵ":{"ha":833,"x_min":136,"x_max":801,"o":"m 136 0 l 136 985 l 274 985 l 274 343 l 279 343 l 614 679 l 768 679 l 501 410 l 801 0 l 650 0 l 417 325 l 274 181 l 274 0 l 136 0 m 271 -242 l 271 -149 l 651 -149 l 651 -242 l 271 -242 z "},"ĸ":{"ha":833,"x_min":136,"x_max":801,"o":"m 136 0 l 136 679 l 274 679 l 274 344 l 278 346 l 614 679 l 768 679 l 503 407 l 801 0 l 650 0 l 419 317 l 274 178 l 274 0 l 136 0 z "},"ĺ":{"ha":833,"x_min":94,"x_max":749,"o":"m 561 -17 q 388 49 447 -17 q 328 238 328 114 l 328 875 l 94 875 l 94 985 l 465 985 l 465 229 q 501 127 465 158 q 593 96 536 96 q 715 125 646 96 l 749 22 q 659 -7 700 3 q 561 -17 618 -17 m 350 1046 l 289 1115 l 496 1297 l 572 1206 l 350 1046 z "},"ľ":{"ha":833,"x_min":94,"x_max":749,"o":"m 561 -17 q 388 49 447 -17 q 328 238 328 114 l 328 875 l 94 875 l 94 985 l 465 985 l 465 229 q 501 127 465 158 q 593 96 536 96 q 715 125 646 96 l 749 22 q 659 -7 700 3 q 561 -17 618 -17 m 565 761 l 560 1136 l 683 1136 l 682 1017 l 658 761 l 565 761 z "},"ļ":{"ha":833,"x_min":94,"x_max":749,"o":"m 561 -17 q 388 49 447 -17 q 328 238 328 114 l 328 875 l 94 875 l 94 985 l 465 985 l 465 229 q 501 127 465 158 q 593 96 536 96 q 715 125 646 96 l 749 22 q 659 -7 700 3 q 561 -17 618 -17 m 401 -319 l 390 -256 q 508 -235 476 -250 q 539 -193 539 -221 q 443 -137 539 -146 l 471 -78 q 605 -114 568 -89 q 642 -187 642 -139 q 580 -283 642 -251 q 401 -319 518 -314 z "},"ḷ":{"ha":833,"x_min":94,"x_max":749,"o":"m 561 -17 q 388 49 447 -17 q 328 238 328 114 l 328 875 l 94 875 l 94 985 l 465 985 l 465 229 q 501 127 465 158 q 593 96 536 96 q 715 125 646 96 l 749 22 q 659 -7 700 3 q 561 -17 618 -17 m 528 -308 q 454 -281 483 -308 q 425 -210 425 -254 q 454 -138 425 -165 q 528 -111 483 -111 q 601 -138 572 -111 q 631 -210 631 -165 q 601 -281 631 -254 q 528 -308 572 -308 z "},"ḹ":{"ha":833,"x_min":94,"x_max":749,"o":"m 561 -17 q 388 49 447 -17 q 328 238 328 114 l 328 875 l 94 875 l 94 985 l 465 985 l 465 229 q 501 127 465 158 q 593 96 536 96 q 715 125 646 96 l 749 22 q 659 -7 700 3 q 561 -17 618 -17 m 201 1099 l 201 1192 l 585 1192 l 585 1099 l 201 1099 m 528 -308 q 454 -281 483 -308 q 425 -210 425 -254 q 454 -138 425 -165 q 528 -111 483 -111 q 601 -138 572 -111 q 631 -210 631 -165 q 601 -281 631 -254 q 528 -308 572 -308 z "},"ḻ":{"ha":833,"x_min":94,"x_max":749,"o":"m 561 -17 q 388 49 447 -17 q 328 238 328 114 l 328 875 l 94 875 l 94 985 l 465 985 l 465 229 q 501 127 465 158 q 593 96 536 96 q 715 125 646 96 l 749 22 q 659 -7 700 3 q 561 -17 618 -17 m 338 -242 l 338 -149 l 718 -149 l 718 -242 l 338 -242 z "},"ł":{"ha":833,"x_min":94,"x_max":749,"o":"m 561 -17 q 388 49 447 -17 q 328 238 328 114 l 328 444 l 188 361 l 139 450 l 328 558 l 328 875 l 94 875 l 94 985 l 465 985 l 465 625 l 661 735 l 708 646 l 465 510 l 465 229 q 501 127 465 158 q 593 96 536 96 q 715 125 646 96 l 749 22 q 659 -7 700 3 q 561 -17 618 -17 z "},"ŀ":{"ha":833,"x_min":38,"x_max":888,"o":"m 504 -17 q 331 49 390 -17 q 271 238 271 114 l 271 875 l 38 875 l 38 985 l 408 985 l 408 229 q 444 127 408 158 q 536 96 479 96 q 658 125 589 96 l 692 22 q 602 -7 643 3 q 504 -17 561 -17 m 785 390 q 711 417 740 390 q 682 489 682 444 q 711 560 682 533 q 785 588 740 588 q 858 560 829 588 q 888 489 888 533 q 858 417 888 444 q 785 390 829 390 z "},"ḿ":{"ha":833,"x_min":72,"x_max":781,"o":"m 72 0 l 72 679 l 181 679 l 192 590 l 194 590 q 253 666 218 636 q 347 696 289 696 q 472 579 444 696 q 535 664 500 632 q 629 696 571 696 q 741 641 701 696 q 781 483 781 586 l 781 0 l 646 0 l 646 474 q 583 578 646 578 q 531 554 551 578 q 486 483 510 531 l 486 0 l 367 0 l 367 474 q 306 578 367 578 q 251 554 274 578 q 207 483 229 531 l 207 0 l 72 0 m 417 788 l 346 856 l 547 1094 l 643 1001 l 417 788 z "},"ṁ":{"ha":833,"x_min":72,"x_max":781,"o":"m 72 0 l 72 679 l 181 679 l 192 590 l 194 590 q 253 666 218 636 q 347 696 289 696 q 472 579 444 696 q 535 664 500 632 q 629 696 571 696 q 741 641 701 696 q 781 483 781 586 l 781 0 l 646 0 l 646 474 q 583 578 646 578 q 531 554 551 578 q 486 483 510 531 l 486 0 l 367 0 l 367 474 q 306 578 367 578 q 251 554 274 578 q 207 483 229 531 l 207 0 l 72 0 m 440 813 q 367 840 396 813 q 338 911 338 867 q 367 983 338 956 q 440 1010 396 1010 q 514 983 485 1010 q 543 911 543 956 q 514 840 543 867 q 440 813 485 813 z "},"ṃ":{"ha":833,"x_min":72,"x_max":781,"o":"m 72 0 l 72 679 l 181 679 l 192 590 l 194 590 q 253 666 218 636 q 347 696 289 696 q 472 579 444 696 q 535 664 500 632 q 629 696 571 696 q 741 641 701 696 q 781 483 781 586 l 781 0 l 646 0 l 646 474 q 583 578 646 578 q 531 554 551 578 q 486 483 510 531 l 486 0 l 367 0 l 367 474 q 306 578 367 578 q 251 554 274 578 q 207 483 229 531 l 207 0 l 72 0 m 426 -308 q 353 -281 382 -308 q 324 -210 324 -254 q 353 -138 324 -165 q 426 -111 382 -111 q 500 -138 471 -111 q 529 -210 529 -165 q 500 -281 529 -254 q 426 -308 471 -308 z "},"ń":{"ha":833,"x_min":122,"x_max":732,"o":"m 122 0 l 122 679 l 235 679 l 246 569 l 251 569 q 363 659 303 622 q 501 696 422 696 q 676 625 621 696 q 732 421 732 554 l 732 0 l 594 0 l 594 403 q 563 534 594 492 q 453 576 531 576 q 356 549 399 576 q 260 468 313 522 l 260 0 l 122 0 m 417 786 l 346 854 l 547 1093 l 643 1000 l 417 786 z "},"ǹ":{"ha":833,"x_min":122,"x_max":732,"o":"m 122 0 l 122 679 l 235 679 l 246 569 l 251 569 q 363 659 303 622 q 501 696 422 696 q 676 625 621 696 q 732 421 732 554 l 732 0 l 594 0 l 594 403 q 563 534 594 492 q 453 576 531 576 q 356 549 399 576 q 260 468 313 522 l 260 0 l 122 0 m 464 786 l 238 1000 l 333 1093 l 535 854 l 464 786 z "},"ň":{"ha":833,"x_min":122,"x_max":732,"o":"m 122 0 l 122 679 l 235 679 l 246 569 l 251 569 q 363 659 303 622 q 501 696 422 696 q 676 625 621 696 q 732 421 732 554 l 732 0 l 594 0 l 594 403 q 563 534 594 492 q 453 576 531 576 q 356 549 399 576 q 260 468 313 522 l 260 0 l 122 0 m 371 799 l 215 989 l 271 1042 l 438 892 l 443 892 l 610 1042 l 665 989 l 510 799 l 371 799 z "},"ñ":{"ha":833,"x_min":122,"x_max":732,"o":"m 122 0 l 122 679 l 235 679 l 246 569 l 251 569 q 363 659 303 622 q 501 696 422 696 q 676 625 621 696 q 732 421 732 554 l 732 0 l 594 0 l 594 403 q 563 534 594 492 q 453 576 531 576 q 356 549 399 576 q 260 468 313 522 l 260 0 l 122 0 m 539 800 q 476 817 503 800 q 428 855 450 835 q 386 892 406 875 q 344 910 367 910 q 301 883 315 910 q 283 808 286 856 l 194 814 q 233 954 197 901 q 343 1007 268 1007 q 405 990 378 1007 q 453 953 432 974 q 495 915 475 932 q 538 899 515 899 q 580 926 565 899 q 597 1000 594 953 l 686 994 q 649 853 683 907 q 539 800 614 800 z "},"ņ":{"ha":833,"x_min":122,"x_max":732,"o":"m 122 0 l 122 679 l 235 679 l 246 569 l 251 569 q 363 659 303 622 q 501 696 422 696 q 676 625 621 696 q 732 421 732 554 l 732 0 l 594 0 l 594 403 q 563 534 594 492 q 453 576 531 576 q 356 549 399 576 q 260 468 313 522 l 260 0 l 122 0 m 306 -319 l 294 -256 q 412 -235 381 -250 q 443 -193 443 -221 q 347 -137 443 -146 l 375 -78 q 509 -114 472 -89 q 546 -187 546 -139 q 484 -283 546 -251 q 306 -319 422 -314 z "},"ṅ":{"ha":833,"x_min":122,"x_max":732,"o":"m 122 0 l 122 679 l 235 679 l 246 569 l 251 569 q 363 659 303 622 q 501 696 422 696 q 676 625 621 696 q 732 421 732 554 l 732 0 l 594 0 l 594 403 q 563 534 594 492 q 453 576 531 576 q 356 549 399 576 q 260 468 313 522 l 260 0 l 122 0 m 440 811 q 367 838 396 811 q 338 910 338 865 q 367 981 338 954 q 440 1008 396 1008 q 514 981 485 1008 q 543 910 543 954 q 514 838 543 865 q 440 811 485 811 z "},"ṇ":{"ha":833,"x_min":122,"x_max":732,"o":"m 122 0 l 122 679 l 235 679 l 246 569 l 251 569 q 363 659 303 622 q 501 696 422 696 q 676 625 621 696 q 732 421 732 554 l 732 0 l 594 0 l 594 403 q 563 534 594 492 q 453 576 531 576 q 356 549 399 576 q 260 468 313 522 l 260 0 l 122 0 m 432 -308 q 358 -281 388 -308 q 329 -210 329 -254 q 358 -138 329 -165 q 432 -111 388 -111 q 506 -138 476 -111 q 535 -210 535 -165 q 506 -281 535 -254 q 432 -308 476 -308 z "},"ṉ":{"ha":833,"x_min":122,"x_max":732,"o":"m 122 0 l 122 679 l 235 679 l 246 569 l 251 569 q 363 659 303 622 q 501 696 422 696 q 676 625 621 696 q 732 421 732 554 l 732 0 l 594 0 l 594 403 q 563 534 594 492 q 453 576 531 576 q 356 549 399 576 q 260 468 313 522 l 260 0 l 122 0 m 242 -242 l 242 -149 l 622 -149 l 622 -242 l 242 -242 z "},"ŉ":{"ha":833,"x_min":-40,"x_max":847,"o":"m 279 0 l 279 679 l 393 679 l 404 576 l 410 576 q 510 661 457 626 q 636 696 564 696 q 796 627 744 696 q 847 428 847 558 l 847 0 l 710 0 l 710 410 q 681 536 710 496 q 588 576 653 576 q 502 551 539 576 q 417 475 465 526 l 417 0 l 279 0 m 3 464 l -40 542 q 65 631 26 578 q 107 754 103 683 q 74 747 89 747 q -3 776 26 747 q -32 854 -32 806 q -1 938 -32 906 q 78 969 29 969 q 176 922 139 969 q 213 788 213 875 q 158 597 213 681 q 3 464 103 514 z "},"ò":{"ha":833,"x_min":78,"x_max":756,"o":"m 417 -17 q 289 7 350 -17 q 181 76 228 31 q 106 188 133 122 q 78 339 78 254 q 106 490 78 424 q 181 603 133 557 q 289 672 228 649 q 417 696 350 696 q 544 672 483 696 q 653 603 606 649 q 728 490 700 557 q 756 339 756 424 q 728 188 756 254 q 653 76 700 122 q 544 7 606 31 q 417 -17 483 -17 m 417 96 q 561 163 508 96 q 614 339 614 229 q 561 515 614 449 q 417 582 508 582 q 272 515 325 582 q 219 339 219 449 q 272 163 219 229 q 417 96 325 96 m 440 786 l 214 1000 l 310 1093 l 511 854 l 440 786 z "},"ó":{"ha":833,"x_min":78,"x_max":756,"o":"m 417 -17 q 289 7 350 -17 q 181 76 228 31 q 106 188 133 122 q 78 339 78 254 q 106 490 78 424 q 181 603 133 557 q 289 672 228 649 q 417 696 350 696 q 544 672 483 696 q 653 603 606 649 q 728 490 700 557 q 756 339 756 424 q 728 188 756 254 q 653 76 700 122 q 544 7 606 31 q 417 -17 483 -17 m 417 96 q 561 163 508 96 q 614 339 614 229 q 561 515 614 449 q 417 582 508 582 q 272 515 325 582 q 219 339 219 449 q 272 163 219 229 q 417 96 325 96 m 393 786 l 322 854 l 524 1093 l 619 1000 l 393 786 z "},"ô":{"ha":833,"x_min":78,"x_max":756,"o":"m 417 -17 q 289 7 350 -17 q 181 76 228 31 q 106 188 133 122 q 78 339 78 254 q 106 490 78 424 q 181 603 133 557 q 289 672 228 649 q 417 696 350 696 q 544 672 483 696 q 653 603 606 649 q 728 490 700 557 q 756 339 756 424 q 728 188 756 254 q 653 76 700 122 q 544 7 606 31 q 417 -17 483 -17 m 417 96 q 561 163 508 96 q 614 339 614 229 q 561 515 614 449 q 417 582 508 582 q 272 515 325 582 q 219 339 219 449 q 272 163 219 229 q 417 96 325 96 m 247 786 l 192 839 l 347 1029 l 486 1029 l 642 839 l 586 786 l 419 936 l 414 936 l 247 786 z "},"õ":{"ha":833,"x_min":78,"x_max":756,"o":"m 417 -17 q 289 7 350 -17 q 181 76 228 31 q 106 188 133 122 q 78 339 78 254 q 106 490 78 424 q 181 603 133 557 q 289 672 228 649 q 417 696 350 696 q 544 672 483 696 q 653 603 606 649 q 728 490 700 557 q 756 339 756 424 q 728 188 756 254 q 653 76 700 122 q 544 7 606 31 q 417 -17 483 -17 m 417 96 q 561 163 508 96 q 614 339 614 229 q 561 515 614 449 q 417 582 508 582 q 272 515 325 582 q 219 339 219 449 q 272 163 219 229 q 417 96 325 96 m 515 800 q 453 817 479 800 q 404 855 426 835 q 363 892 382 875 q 321 910 343 910 q 277 883 292 910 q 260 808 263 856 l 171 814 q 209 954 174 901 q 319 1007 244 1007 q 381 990 354 1007 q 430 953 408 974 q 472 915 451 932 q 514 899 492 899 q 556 926 542 899 q 574 1000 571 953 l 663 994 q 625 853 660 907 q 515 800 590 800 z "},"ö":{"ha":833,"x_min":78,"x_max":756,"o":"m 417 -17 q 289 7 350 -17 q 181 76 228 31 q 106 188 133 122 q 78 339 78 254 q 106 490 78 424 q 181 603 133 557 q 289 672 228 649 q 417 696 350 696 q 544 672 483 696 q 653 603 606 649 q 728 490 700 557 q 756 339 756 424 q 728 188 756 254 q 653 76 700 122 q 544 7 606 31 q 417 -17 483 -17 m 417 96 q 561 163 508 96 q 614 339 614 229 q 561 515 614 449 q 417 582 508 582 q 272 515 325 582 q 219 339 219 449 q 272 163 219 229 q 417 96 325 96 m 276 811 q 215 836 239 811 q 192 897 192 861 q 215 958 192 933 q 276 983 239 983 q 338 958 314 983 q 363 897 363 933 q 338 836 363 861 q 276 811 314 811 m 557 811 q 495 836 519 811 q 471 897 471 861 q 495 958 471 933 q 557 983 519 983 q 618 958 594 983 q 642 897 642 933 q 618 836 642 861 q 557 811 594 811 z "},"ō":{"ha":833,"x_min":78,"x_max":756,"o":"m 417 -17 q 289 7 350 -17 q 181 76 228 31 q 106 188 133 122 q 78 339 78 254 q 106 490 78 424 q 181 603 133 557 q 289 672 228 649 q 417 696 350 696 q 544 672 483 696 q 653 603 606 649 q 728 490 700 557 q 756 339 756 424 q 728 188 756 254 q 653 76 700 122 q 544 7 606 31 q 417 -17 483 -17 m 417 96 q 561 163 508 96 q 614 339 614 229 q 561 515 614 449 q 417 582 508 582 q 272 515 325 582 q 219 339 219 449 q 272 163 219 229 q 417 96 325 96 m 226 831 l 226 924 l 607 924 l 607 831 l 226 831 z "},"ő":{"ha":833,"x_min":78,"x_max":756,"o":"m 417 -17 q 289 7 350 -17 q 181 76 228 31 q 106 188 133 122 q 78 339 78 254 q 106 490 78 424 q 181 603 133 557 q 289 672 228 649 q 417 696 350 696 q 544 672 483 696 q 653 603 606 649 q 728 490 700 557 q 756 339 756 424 q 728 188 756 254 q 653 76 700 122 q 544 7 606 31 q 417 -17 483 -17 m 417 96 q 561 163 508 96 q 614 339 614 229 q 561 515 614 449 q 417 582 508 582 q 272 515 325 582 q 219 339 219 449 q 272 163 219 229 q 417 96 325 96 m 339 788 l 264 822 l 385 1064 l 481 1019 l 339 788 m 558 788 l 483 822 l 604 1064 l 700 1019 l 558 788 z "},"ǒ":{"ha":833,"x_min":78,"x_max":756,"o":"m 417 -17 q 289 7 350 -17 q 181 76 228 31 q 106 188 133 122 q 78 339 78 254 q 106 490 78 424 q 181 603 133 557 q 289 672 228 649 q 417 696 350 696 q 544 672 483 696 q 653 603 606 649 q 728 490 700 557 q 756 339 756 424 q 728 188 756 254 q 653 76 700 122 q 544 7 606 31 q 417 -17 483 -17 m 417 96 q 561 163 508 96 q 614 339 614 229 q 561 515 614 449 q 417 582 508 582 q 272 515 325 582 q 219 339 219 449 q 272 163 219 229 q 417 96 325 96 m 347 799 l 192 989 l 247 1042 l 414 892 l 419 892 l 586 1042 l 642 989 l 486 799 l 347 799 z "},"ǫ":{"ha":833,"x_min":78,"x_max":756,"o":"m 449 -314 q 345 -281 386 -314 q 304 -182 304 -249 q 333 -85 304 -126 q 396 -15 361 -43 q 269 15 328 -11 q 169 88 211 42 q 102 197 126 133 q 78 339 78 260 q 106 490 78 424 q 180 603 133 557 q 288 672 226 649 q 417 696 350 696 q 545 672 483 696 q 653 603 607 649 q 728 490 700 557 q 756 339 756 424 q 738 216 756 269 q 690 122 721 163 q 615 51 658 81 q 517 -3 571 21 q 431 -71 461 -28 q 401 -154 401 -114 q 426 -208 401 -190 q 479 -226 451 -226 q 522 -219 504 -226 q 553 -200 540 -211 l 588 -264 q 528 -300 564 -286 q 449 -314 492 -314 m 417 94 q 561 160 508 94 q 614 339 614 226 q 561 515 614 449 q 417 582 508 582 q 272 515 325 582 q 219 339 219 449 q 272 160 219 226 q 417 94 325 94 z "},"ọ":{"ha":833,"x_min":78,"x_max":756,"o":"m 417 -17 q 289 7 350 -17 q 181 76 228 31 q 106 188 133 122 q 78 339 78 254 q 106 490 78 424 q 181 603 133 557 q 289 672 228 649 q 417 696 350 696 q 544 672 483 696 q 653 603 606 649 q 728 490 700 557 q 756 339 756 424 q 728 188 756 254 q 653 76 700 122 q 544 7 606 31 q 417 -17 483 -17 m 417 96 q 561 163 508 96 q 614 339 614 229 q 561 515 614 449 q 417 582 508 582 q 272 515 325 582 q 219 339 219 449 q 272 163 219 229 q 417 96 325 96 m 417 -308 q 343 -281 372 -308 q 314 -210 314 -254 q 343 -138 314 -165 q 417 -111 372 -111 q 490 -138 461 -111 q 519 -210 519 -165 q 490 -281 519 -254 q 417 -308 461 -308 z "},"ỏ":{"ha":833,"x_min":78,"x_max":756,"o":"m 417 -17 q 289 7 350 -17 q 181 76 228 31 q 106 188 133 122 q 78 339 78 254 q 106 490 78 424 q 181 603 133 557 q 289 672 228 649 q 417 696 350 696 q 544 672 483 696 q 653 603 606 649 q 728 490 700 557 q 756 339 756 424 q 728 188 756 254 q 653 76 700 122 q 544 7 606 31 q 417 -17 483 -17 m 417 96 q 561 163 508 96 q 614 339 614 229 q 561 515 614 449 q 417 582 508 582 q 272 515 325 582 q 219 339 219 449 q 272 163 219 229 q 417 96 325 96 m 368 793 l 354 856 q 408 876 386 863 q 429 917 429 890 q 315 979 429 974 l 324 1068 q 481 1028 428 1065 q 533 928 533 992 q 520 873 533 896 q 484 833 507 850 q 431 807 461 817 q 368 793 401 797 z "},"ố":{"ha":833,"x_min":78,"x_max":758,"o":"m 417 -17 q 289 7 350 -17 q 181 76 228 31 q 106 188 133 122 q 78 339 78 254 q 106 490 78 424 q 181 603 133 557 q 289 672 228 649 q 417 696 350 696 q 544 672 483 696 q 653 603 606 649 q 728 490 700 557 q 756 339 756 424 q 728 188 756 254 q 653 76 700 122 q 544 7 606 31 q 417 -17 483 -17 m 417 96 q 561 163 508 96 q 614 339 614 229 q 561 515 614 449 q 417 582 508 582 q 272 515 325 582 q 219 339 219 449 q 272 163 219 229 q 417 96 325 96 m 271 790 l 225 844 l 361 972 l 472 972 l 608 844 l 563 790 l 419 888 l 414 888 l 271 790 m 618 885 l 561 929 l 681 1099 l 758 1046 l 618 885 z "},"ồ":{"ha":833,"x_min":61,"x_max":756,"o":"m 417 -17 q 289 7 350 -17 q 181 76 228 31 q 106 188 133 122 q 78 339 78 254 q 106 490 78 424 q 181 603 133 557 q 289 672 228 649 q 417 696 350 696 q 544 672 483 696 q 653 603 606 649 q 728 490 700 557 q 756 339 756 424 q 728 188 756 254 q 653 76 700 122 q 544 7 606 31 q 417 -17 483 -17 m 417 96 q 561 163 508 96 q 614 339 614 229 q 561 515 614 449 q 417 582 508 582 q 272 515 325 582 q 219 339 219 449 q 272 163 219 229 q 417 96 325 96 m 271 790 l 225 844 l 361 972 l 472 972 l 608 844 l 563 790 l 419 888 l 414 888 l 271 790 m 215 885 l 61 1043 l 139 1099 l 272 933 l 215 885 z "}}}
